{
.appVersion = "3523";
.formatVersion = 3;
DisplayStrings = (
"0123456789
ABCDEFGHIJKLMNOPQRSTUVWXYZ
abcdefghijklmnopqrstuvwxyz



",
"/uni3000/_cross/uni3000 はばぱほぼぽみもを
/_cross を/_cross あいうえお
/uni3000/_cross/uni3000 あをあをを 

がぎぐげご/uni3000 ガギグゲゴ
ざじずぜぞ/uni3000 ザジズゼゾ
だぢづでど/uni3000 ダヂヅデド
ばびぶべぼ/uni3000 バビブベボ
ぱぴぷぺぽ/uni3000 パピプペポ"
);
axes = (
{
name = Weight;
tag = wght;
}
);
customParameters = (
{
name = "Enforce Compatibility Check";
value = 1;
},
{
name = fsType;
value = (
);
}
);
date = "2025-02-03 07:01:27 +0000";
familyName = "M PLUS 3";
featurePrefixes = (
{
automatic = 1;
code = "languagesystem DFLT dflt;
";
name = Languagesystems;
},
{
code = "table BASE {
  HorizAxis.BaseTagList     icfb  icft  ideo  romn;
  HorizAxis.BaseScriptList  
                DFLT  ideo   -70   830  -120     0,
                hani  ideo   -70   830  -120     0,
                kana  ideo   -70   830  -120     0,
                latn  romn   -70   830  -120     0,
                cyrl  romn   -70   830  -120     0,
                grek  romn   -70   830  -120     0;

  VertAxis.BaseTagList      icfb  icft  ideo  romn;
  VertAxis.BaseScriptList 
                DFLT  ideo    46   954     0   120,
                hani  ideo    46   954     0   120,
                kana  ideo    46   954     0   120,
                latn  romn    46   954     0   120,
                cyrl  romn    46   954     0   120,
                grek  romn    46   954     0   120;
} BASE;";
name = BASE;
}
);
features = (
{
automatic = 1;
code = "feature sups;
feature frac;
feature pnum;
feature tnum;
feature fwid;
feature vert;
feature vkna;
feature vrt2;
";
tag = aalt;
},
{
automatic = 1;
code = "sub zero by zerosuperior;
sub one by onesuperior;
sub two by twosuperior;
sub three by threesuperior;
sub four by foursuperior;
";
tag = sups;
},
{
automatic = 1;
code = "sub one slash four by onequarter;
sub one slash two by onehalf;
sub three slash four by threequarters;
";
tag = frac;
},
{
automatic = 1;

glyphs = (
{
glyphname = A;
kernLeft = A;
kernRight = A;
lastChange = "2026-04-16 04:43:43 +0000";
layers = (
{
anchors = (
{
name = bottom;
pos = (318,0);
},
{
name = ogonek;
pos = (618,0);
},
{
name = top;
pos = (318,730);
},
{
name = top_ring;
pos = (318,640);
}
);
layerId = "D65C9A1E-0FCA-4B2D-8EDF-9F36CA9182A1";
metricLeft = "=H*.2";
shapes = (
{
closed = 1;
nodes = (
(40,0,l),
(317,709,l),
(319,709,l),
(596,0,l),
(618,0,l),
(332,730,l),
(304,730,l),
(18,0,l)
);
},
{
closed = 1;
nodes = (
(513,237,l),
(513,257,l),
(123,257,l),
(123,237,l)
);
}
);
width = 636;
},
{
anchors = (
{
name = bottom;
pos = (349,0);
},
{
name = ogonek;
pos = (660,0);
},
{
name = top;
pos = (349,730);
},
{
name = top_ring;
pos = (349,610);
}
);
background = {
anchors = (
{
name = bottom;
pos = (340,0);
},
{
name = ogonek;
pos = (680,0);
},
{
name = top;
pos = (340,730);
},
{
name = top_ring;
pos = (340,613);
}
);
};
layerId = "9527F797-22C1-480E-A1FE-2CDBEBE1FD4C";
shapes = (
{
closed = 1;
nodes = (
(131,0,l),
(339,635,l),
(341,635,l),
(549,0,l),
(670,0,l),
(415,730,l),
(266,730,l),
(10,0,l)
);
},
{
closed = 1;
nodes = (
(543,183,l),
(543,283,l),
(138,283,l),
(138,183,l)
);
}
);
width = 680;
},
{
anchors = (
{
name = bottom;
pos = (366,0);
},
{
name = ogonek;
pos = (706,0);
},
{
name = top;
pos = (366,730);
},
{
name = top_ring;
pos = (366,585);
}
);
layerId = "9E6B41AB-2970-4C41-8B35-4DBE0D296A43";
metricLeft = "=H*.1";
shapes = (
{
closed = 1;
nodes = (
(226,0,l),
(365,560,l),
(367,560,l),
(506,0,l),
(726,0,l),
(501,730,l),
(231,730,l),
(6,0,l)
);
},
{
closed = 1;
nodes = (
(561,135,l),
(561,300,l),
(171,300,l),
(171,135,l)
);
}
);
width = 732;
}
);
metricLeft = "=H*.15";
metricRight = "=|";
unicode = 65;
},
{
glyphname = AE;
kernLeft = A;
kernRight = E;
lastChange = "2026-04-11 06:35:25 +0000";
layers = (
{
anchors = (
{
name = bottom;
pos = (487,0);
},
{
name = top;
pos = (487,730);
}
);
layerId = "D65C9A1E-0FCA-4B2D-8EDF-9F36CA9182A1";
shapes = (
{
closed = 1;
nodes = (
(41,0,l),
(456,710,l),
(468,710,l),
(468,0,l),
(828,0,l),
(828,20,l),
(488,20,l),
(488,380,l),
(805,380,l),
(805,400,l),
(488,400,l),
(488,710,l),
(828,710,l),
(828,730,l),
(445,730,l),
(18,0,l)
);
},
{
closed = 1;
nodes = (
(478,237,l),
(478,257,l),
(174,257,l),
(174,237,l)
);
}
);
width = 864;
},
{
anchors = (
{
name = bottom;
pos = (481,0);
},
{
name = top;
pos = (481,730);
}
);
layerId = "9527F797-22C1-480E-A1FE-2CDBEBE1FD4C";
shapes = (
{
closed = 1;
nodes = (
(132,0,l),
(414,640,l),
(435,640,l),
(435,0,l),
(840,0,l),
(840,98,l),
(545,98,l),
(545,334,l),
(819,334,l),
(819,430,l),
(545,430,l),
(545,632,l),
(840,632,l),
(840,730,l),
(344,730,l),
(10,0,l)
);
},
{
closed = 1;
nodes = (
(495,183,l),
(495,283,l),
(166,283,l),
(166,183,l)
);
}
);
width = 882;
},
{
anchors = (
{
name = bottom;
pos = (479,0);
},
{
name = top;
pos = (479,730);
}
);
layerId = "9E6B41AB-2970-4C41-8B35-4DBE0D296A43";
shapes = (
{
closed = 1;
nodes = (
(226,0,l),
(376,570,l),
(406,570,l),
(406,0,l),
(856,0,l),
(856,160,l),
(606,160,l),
(606,292,l),
(836,292,l),
(836,446,l),
(606,446,l),
(606,570,l),
(856,570,l),
(856,730,l),
(246,730,l),
(6,0,l)
);
},
{
closed = 1;
nodes = (
(516,135,l),
(516,300,l),
(161,300,l),
(161,135,l)
);
}
);
width = 904;
}
);
metricLeft = "=A";
metricRight = "=E";
unicode = 198;
},
{
glyphname = B;
kernLeft = H;
kernRight = B;
lastChange = "2026-04-02 03:34:34 +0000";
layers = (
{
layerId = "9527F797-22C1-480E-A1FE-2CDBEBE1FD4C";
shapes = (
{
closed = 1;
nodes = (
(500,-10,o),
(610,60,o),
(610,201,cs),
(610,303,o),
(553,364,o),
(443,380,c),
(443,381,l),
(531,399,o),
(580,458,o),
(580,547,cs),
(580,675,o),
(477,740,o),
(275,740,cs),
(218,740,o),
(146,735,o),
(70,726,c),
(70,4,l),
(133,-4,o),
(217,-10,o),
(280,-10,cs)
);
},
{
closed = 1;
nodes = (
(180,35,l),
(180,695,l),
(143,632,l),
(226,640,o),
(255,642,o),
(285,642,cs),
(410,642,o),
(470,606,o),
(470,530,cs),
(470,457,o),
(413,422,o),
(295,422,cs),
(125,422,l),
(125,327,l),
(295,327,ls),
(439,327,o),
(498,294,o),
(498,213,cs),
(498,127,o),
(431,88,o),
(285,88,cs),
(239,88,o),
(182,92,o),
(144,98,c)
);
}
);
width = 638;
},
{
layerId = "9E6B41AB-2970-4C41-8B35-4DBE0D296A43";
shapes = (
{
closed = 1;
nodes = (
(531,-10,o),
(650,67,o),
(650,210,cs),
(650,307,o),
(592,364,o),
(480,378,c),
(480,379,l),
(574,394,o),
(630,458,o),
(630,550,cs),
(630,675,o),
(517,740,o),
(300,740,cs),
(234,740,o),
(137,734,o),
(60,726,c),
(60,4,l),
(154,-5,o),
(253,-10,o),
(310,-10,cs)
);
},
{
closed = 1;
nodes = (
(260,59,l),
(260,671,l),
(204,577,l),
(246,582,o),
(289,585,o),
(320,585,cs),
(399,585,o),
(430,565,o),
(430,514,cs),
(430,462,o),
(402,444,o),
(320,444,cs),
(160,444,l),
(160,294,l),
(320,294,ls),
(408,294,o),
(445,273,o),
(445,223,cs),
(445,170,o),
(405,145,o),
(320,145,cs),
(291,145,o),
(239,148,o),
(204,153,c)
);
}
);
width = 674;
},
{
layerId = "D65C9A1E-0FCA-4B2D-8EDF-9F36CA9182A1";
shapes = (
{
closed = 1;
nodes = (
(475,-10,o),
(580,53,o),
(580,194,cs),
(580,300,o),
(518,360,o),
(392,381,c),
(392,382,l),
(490,405,o),
(540,458,o),
(540,549,cs),
(540,678,o),
(444,740,o),
(260,740,cs),
(219,740,o),
(181,737,o),
(90,726,c),
(90,4,l),
(158,-6,o),
(207,-10,o),
(260,-10,cs)
);
},
{
closed = 1;
nodes = (
(110,10,l),
(110,720,l),
(92,706,l),
(182,717,o),
(220,720,o),
(260,720,cs),
(435,720,o),
(520,664,o),
(520,549,cs),
(520,441,o),
(443,390,o),
(280,390,cs),
(100,390,l),
(100,370,l),
(280,370,ls),
(473,370,o),
(560,315,o),
(560,194,cs),
(560,67,o),
(467,10,o),
(260,10,cs),
(205,10,o),
(160,14,o),
(93,24,c)
);
}
);
width = 616;
}
);
metricLeft = "=H";
metricRight = "=|*.4";
unicode = 66;
},
{
glyphname = C;
kernLeft = O;
kernRight = C;
lastChange = "2026-04-14 07:53:04 +0000";
layers = (
{
anchors = (
{
name = bottom;
pos = (403,0);
},
{
name = cedi;
pos = (341,0);
},
{
name = top;
pos = (403,730);
}
);
layerId = "D65C9A1E-0FCA-4B2D-8EDF-9F36CA9182A1";
shapes = (
{
closed = 1;
nodes = (
(488,-10,o),
(557,4,o),
(625,32,c),
(617,50,l),
(551,23,o),
(486,10,o),
(413,10,cs),
(190,10,o),
(65,137,o),
(65,365,cs),
(65,593,o),
(190,720,o),
(413,720,cs),
(486,720,o),
(551,707,o),
(617,680,c),
(625,698,l),
(557,726,o),
(488,740,o),
(413,740,cs),
(179,740,o),
(45,604,o),
(45,365,cs),
(45,126,o),
(179,-10,o),
(413,-10,cs)
);
}
);
width = 679;
},
{
anchors = (
{
name = bottom;
pos = (397,0);
},
{
name = cedi;
pos = (323,0);
},
{
name = top;
pos = (397,730);
}
);
background = {
anchors = (
{
name = bottom;
pos = (397,0);
},
{
name = cedi;
pos = (323,0);
},
{
name = top;
pos = (397,730);
}
);
};
layerId = "9527F797-22C1-480E-A1FE-2CDBEBE1FD4C";
shapes = (
{
closed = 1;
nodes = (
(497,-10,o),
(573,6,o),
(645,39,c),
(619,133,l),
(549,104,o),
(483,90,o),
(418,90,cs),
(246,90,o),
(149,189,o),
(149,365,cs),
(149,541,o),
(246,640,o),
(418,640,cs),
(483,640,o),
(549,626,o),
(619,597,c),
(645,691,l),
(574,724,o),
(498,740,o),
(414,740,cs),
(172,740,o),
(35,605,o),
(35,365,cs),
(35,125,o),
(172,-10,o),
(414,-10,cs)
);
}
);
width = 687;
},
{
anchors = (
{
name = bottom;
pos = (396,0);
},
{
name = cedi;
pos = (311,0);
},
{
name = top;
pos = (396,730);
}
);
layerId = "9E6B41AB-2970-4C41-8B35-4DBE0D296A43";
shapes = (
{
closed = 1;
nodes = (
(514,-10,o),
(597,8,o),
(670,46,c),
(627,216,l),
(555,178,o),
(489,160,o),
(429,160,cs),
(307,160,o),
(238,234,o),
(238,365,cs),
(238,496,o),
(307,570,o),
(429,570,cs),
(489,570,o),
(555,552,o),
(627,514,c),
(670,684,l),
(597,722,o),
(514,740,o),
(421,740,cs),
(170,740,o),
(30,606,o),
(30,365,cs),
(30,124,o),
(170,-10,o),
(421,-10,cs)
);
}
);
width = 706;
}
);
metricLeft = "=O";
metricRight = "=H*.6";
unicode = 67;
},
{
glyphname = D;
kernLeft = H;
kernRight = O;
lastChange = "2026-04-04 07:01:26 +0000";
layers = (
{
anchors = (
{
name = bottom;
pos = (315,0);
},
{
name = center;
pos = (315,365);
},
{
name = top;
pos = (315,730);
}
);
layerId = "D65C9A1E-0FCA-4B2D-8EDF-9F36CA9182A1";
shapes = (
{
closed = 1;
nodes = (
(494,-10,o),
(630,121,o),
(630,365,cs),
(630,609,o),
(494,740,o),
(240,740,cs),
(195,740,o),
(150,736,o),
(90,726,c),
(90,4,l),
(150,-6,o),
(195,-10,o),
(240,-10,cs)
);
},
{
closed = 1;
nodes = (
(195,10,o),
(150,14,o),
(93,24,c),
(110,14,l),
(110,716,l),
(93,706,l),
(150,716,o),
(195,720,o),
(240,720,cs),
(483,720,o),
(610,598,o),
(610,365,cs),
(610,132,o),
(483,10,o),
(240,10,cs)
);
}
);
width = 675;
},
{
anchors = (
{
name = bottom;
pos = (320,0);
},
{
name = center;
pos = (320,365);
},
{
name = top;
pos = (320,730);
}
);
layerId = "9527F797-22C1-480E-A1FE-2CDBEBE1FD4C";
shapes = (
{
closed = 1;
nodes = (
(532,-10,o),
(650,107,o),
(650,365,cs),
(650,623,o),
(532,740,o),
(270,740,cs),
(216,740,o),
(142,735,o),
(70,726,c),
(70,4,l),
(142,-5,o),
(216,-10,o),
(270,-10,cs)
);
},
{
closed = 1;
nodes = (
(235,90,o),
(183,94,o),
(127,101,c),
(180,42,l),
(180,688,l),
(127,629,l),
(183,636,o),
(235,640,o),
(277,640,cs),
(463,640,o),
(538,561,o),
(538,365,cs),
(538,169,o),
(463,90,o),
(277,90,cs)
);
}
);
width = 685;
},
{
anchors = (
{
name = bottom;
pos = (335,0);
},
{
name = center;
pos = (335,365);
},
{
name = top;
pos = (335,730);
}
);
layerId = "9E6B41AB-2970-4C41-8B35-4DBE0D296A43";
shapes = (
{
closed = 1;
nodes = (
(579,-10,o),
(680,93,o),
(680,365,cs),
(680,637,o),
(579,740,o),
(310,740,cs),
(245,740,o),
(146,734,o),
(60,726,c),
(60,4,l),
(146,-4,o),
(245,-10,o),
(310,-10,cs)
);
},
{
closed = 1;
nodes = (
(295,150,o),
(251,152,o),
(170,158,c),
(260,70,l),
(260,660,l),
(170,572,l),
(251,578,o),
(295,580,o),
(323,580,cs),
(447,580,o),
(475,540,o),
(475,365,cs),
(475,190,o),
(447,150,o),
(323,150,cs)
);
}
);
width = 710;
}
);
metricLeft = "=H";
metricRight = "=O";
unicode = 68;
},
{
glyphname = Eth;
kernLeft = f;
kernRight = O;
lastChange = "2026-04-11 06:56:26 +0000";
layers = (
{
anchors = (
{
name = bottom;
pos = (383,0);
},
{
name = center;
pos = (383,365);
},
{
name = top;
pos = (383,730);
}
);
layerId = "D65C9A1E-0FCA-4B2D-8EDF-9F36CA9182A1";
shapes = (
{
closed = 1;
nodes = (
(442,355,l),
(442,375,l),
(32,375,l),
(32,355,l)
);
},
{
pos = (47,0);
ref = D;
}
);
width = 722;
},
{
anchors = (
{
name = bottom;
pos = (396,0);
},
{
name = center;
pos = (396,365);
},
{
name = top;
pos = (396,730);
}
);
layerId = "9527F797-22C1-480E-A1FE-2CDBEBE1FD4C";
shapes = (
{
closed = 1;
nodes = (
(443,320,l),
(443,410,l),
(25,410,l),
(25,320,l)
);
},
{
alignment = -1;
pos = (53,0);
ref = D;
}
);
width = 738;
},
{
anchors = (
{
name = bottom;
pos = (411,0);
},
{
name = center;
pos = (411,365);
},
{
name = top;
pos = (411,730);
}
);
layerId = "9E6B41AB-2970-4C41-8B35-4DBE0D296A43";
shapes = (
{
closed = 1;
nodes = (
(448,295,l),
(448,435,l),
(22,435,l),
(22,295,l)
);
},
{
pos = (62,0);
ref = D;
}
);
width = 772;
}
);
metricLeft = "=f*1.2";
metricRight = "=O";
unicode = 208;
},
{
glyphname = E;
kernLeft = H;
kernRight = E;
lastChange = "2026-04-11 07:02:07 +0000";
layers = (
{
anchors = (
{
name = bottom;
pos = (305,0);
},
{
name = ogonek;
pos = (520,0);
},
{
name = top;
pos = (305,730);
},
{
name = topleft;
pos = (-32,730);
}
);
layerId = "D65C9A1E-0FCA-4B2D-8EDF-9F36CA9182A1";
metricRight = "=H*.4";
shapes = (
{
closed = 1;
nodes = (
(520,0,l),
(520,20,l),
(110,20,l),
(110,370,l),
(500,370,l),
(500,390,l),
(110,390,l),
(110,710,l),
(520,710,l),
(520,730,l),
(90,730,l),
(90,0,l)
);
}
);
width = 556;
},
{
anchors = (
{
name = bottom;
pos = (310,0);
},
{
name = ogonek;
pos = (550,0);
},
{
name = top;
pos = (310,730);
},
{
name = topleft;
pos = (-16,730);
}
);
background = {
anchors = (
{
name = bottom;
pos = (310,0);
},
{
name = ogonek;
pos = (550,0);
},
{
name = top;
pos = (310,730);
},
{
name = topleft;
pos = (-16,730);
}
);
};
layerId = "9527F797-22C1-480E-A1FE-2CDBEBE1FD4C";
metricRight = "=H*.6";
shapes = (
{
closed = 1;
nodes = (
(550,0,l),
(550,98,l),
(180,98,l),
(180,327,l),
(530,327,l),
(530,423,l),
(180,423,l),
(180,632,l),
(550,632,l),
(550,730,l),
(70,730,l),
(70,0,l)
);
}
);
width = 592;
},
{
anchors = (
{
name = bottom;
pos = (335,0);
},
{
name = ogonek;
pos = (590,0);
},
{
name = top;
pos = (335,730);
},
{
name = topleft;
pos = (10,730);
}
);
layerId = "9E6B41AB-2970-4C41-8B35-4DBE0D296A43";
metricRight = "=H*.8";
shapes = (
{
closed = 1;
nodes = (
(590,0,l),
(590,160,l),
(260,160,l),
(260,292,l),
(570,292,l),
(570,446,l),
(260,446,l),
(260,570,l),
(590,570,l),
(590,730,l),
(60,730,l),
(60,0,l)
);
}
);
width = 638;
}
);
metricLeft = "=H";
metricRight = "=H*.85";
unicode = 69;
},
{
glyphname = Schwa;
kernLeft = O;
kernRight = O;
lastChange = "2026-04-11 07:00:12 +0000";
layers = (
{
layerId = "D65C9A1E-0FCA-4B2D-8EDF-9F36CA9182A1";
shapes = (
{
closed = 1;
nodes = (
(248,740,o),
(150,716,o),
(74,676,c),
(83,658,l),
(158,698,o),
(253,720,o),
(344,720,cs),
(564,720,o),
(684,596,o),
(684,365,c),
(684,365,l),
(684,139,o),
(570,10,o),
(374,10,cs),
(178,10,o),
(64,139,o),
(64,365,c),
(48,348,l),
(694,348,l),
(694,368,l),
(43,368,l),
(43,366,o),
(43,366,o),
(43,365,cs),
(43,129,o),
(166,-10,o),
(374,-10,cs),
(582,-10,o),
(704,129,o),
(704,365,cs),
(704,606,o),
(576,740,o),
(344,740,cs)
);
}
);
width = 749;
},
{
layerId = "9527F797-22C1-480E-A1FE-2CDBEBE1FD4C";
shapes = (
{
closed = 1;
nodes = (
(237,740,o),
(143,720,o),
(74,688,c),
(99,588,l),
(173,622,o),
(255,640,o),
(335,640,cs),
(516,640,o),
(603,559,o),
(603,396,c),
(603,354,l),
(603,180,o),
(523,90,o),
(373,90,cs),
(223,90,o),
(143,180,o),
(143,354,c),
(102,314,l),
(635,314,l),
(635,413,l),
(36,413,l),
(34,403,o),
(33,377,o),
(33,358,cs),
(33,126,o),
(158,-10,o),
(370,-10,cs),
(585,-10,o),
(713,130,o),
(713,365,cs),
(713,606,o),
(576,740,o),
(328,740,cs)
);
}
);
width = 748;
},
{
layerId = "9E6B41AB-2970-4C41-8B35-4DBE0D296A43";
shapes = (
{
closed = 1;
nodes = (
(232,740,o),
(142,725,o),
(81,701,c),
(116,536,l),
(187,559,o),
(257,570,o),
(332,570,cs),
(474,570,o),
(529,531,o),
(529,430,cs),
(529,343,ls),
(529,215,o),
(483,160,o),
(379,160,cs),
(275,160,o),
(229,215,o),
(229,343,c),
(162,290,l),
(583,290,l),
(583,448,l),
(34,448,l),
(31,433,o),
(29,384,o),
(29,351,cs),
(29,123,o),
(156,-10,o),
(372,-10,cs),
(594,-10,o),
(729,131,o),
(729,365,cs),
(729,606,o),
(582,740,o),
(319,740,cs)
);
}
);
width = 759;
}
);
metricLeft = "=O*.95";
metricRight = "=O";
unicode = 399;
},
{
glyphname = F;
kernLeft = H;
kernRight = F;
lastChange = "2026-04-03 14:06:11 +0000";
layers = (
{
layerId = "D65C9A1E-0FCA-4B2D-8EDF-9F36CA9182A1";
metricRight = "=H*.3";
shapes = (
{
closed = 1;
nodes = (
(110,0,l),
(110,355,l),
(530,355,l),
(530,375,l),
(110,375,l),
(110,710,l),
(550,710,l),
(550,730,l),
(90,730,l),
(90,0,l)
);
}
);
width = 577;
},
{
layerId = "9527F797-22C1-480E-A1FE-2CDBEBE1FD4C";
metricRight = "=H*.4";
shapes = (
{
closed = 1;
nodes = (
(180,0,l),
(180,309,l),
(550,309,l),
(550,407,l),
(180,407,l),
(180,630,l),
(570,630,l),
(570,730,l),
(70,730,l),
(70,0,l)
);
}
);
width = 598;
},
{
layerId = "9E6B41AB-2970-4C41-8B35-4DBE0D296A43";
metricRight = "=H*.5";
shapes = (
{
closed = 1;
nodes = (
(260,0,l),
(260,270,l),
(580,270,l),
(580,430,l),
(260,430,l),
(260,565,l),
(600,565,l),
(600,730,l),
(60,730,l),
(60,0,l)
);
}
);
width = 630;
}
);
metricLeft = "=H";
metricRight = "=H*.75";
unicode = 70;
},
{
glyphname = G;
kernLeft = O;
kernRight = G;
lastChange = "2026-04-14 08:00:48 +0000";
layers = (
{
anchors = (
{
name = bottom;
pos = (375,0);
},
{
name = top;
pos = (375,730);
}
);
background = {
anchors = (
{
name = bottom;
pos = (378,0);
},
{
name = top;
pos = (378,730);
}
);
};
layerId = "9527F797-22C1-480E-A1FE-2CDBEBE1FD4C";
metricRight = "=H*.8";
shapes = (
{
closed = 1;
nodes = (
(529,-10,o),
(624,10,o),
(695,47,c),
(695,423,l),
(340,423,l),
(340,327,l),
(585,327,l),
(585,88,l),
(602,120,l),
(553,101,o),
(494,90,o),
(433,90,cs),
(251,90,o),
(153,186,o),
(153,365,cs),
(153,543,o),
(250,640,o),
(427,640,cs),
(494,640,o),
(572,626,o),
(633,602,c),
(657,691,l),
(587,724,o),
(511,740,o),
(427,740,cs),
(179,740,o),
(35,602,o),
(35,365,cs),
(35,127,o),
(181,-10,o),
(433,-10,cs)
);
}
);
width = 751;
},
{
anchors = (
{
name = bottom;
pos = (400,0);
},
{
name = top;
pos = (400,730);
}
);
layerId = "9E6B41AB-2970-4C41-8B35-4DBE0D296A43";
metricRight = "=H*.9";
shapes = (
{
closed = 1;
nodes = (
(538,-10,o),
(637,11,o),
(710,50,c),
(710,446,l),
(350,446,l),
(350,292,l),
(510,292,l),
(510,131,l),
(533,177,l),
(502,161,o),
(477,155,o),
(438,155,cs),
(306,155,o),
(240,225,o),
(240,365,cs),
(240,503,o),
(305,575,o),
(427,575,cs),
(493,575,o),
(571,554,o),
(621,524,c),
(663,684,l),
(599,721,o),
(519,740,o),
(427,740,cs),
(178,740,o),
(30,600,o),
(30,365,cs),
(30,128,o),
(181,-10,o),
(438,-10,cs)
);
}
);
width = 764;
},
{
anchors = (
{
name = bottom;
pos = (376,0);
},
{
name = top;
pos = (376,730);
}
);
background = {
anchors = (
{
name = bottom;
pos = (383,0);
},
{
name = top;
pos = (383,730);
}
);
shapes = (
{
closed = 1;
nodes = (
(517,-10,o),
(617,11,o),
(685,44,c),
(685,390,l),
(335,390,l),
(335,370,l),
(665,370,l),
(665,45,l),
(676,62,l),
(611,30,o),
(514,10,o),
(427,10,cs),
(202,10,o),
(65,145,o),
(65,365,cs),
(65,585,o),
(202,720,o),
(427,720,cs),
(512,720,o),
(585,701,o),
(647,663,c),
(657,680,l),
(592,720,o),
(515,740,o),
(427,740,cs),
(191,740,o),
(45,596,o),
(45,365,cs),
(45,134,o),
(191,-10,o),
(427,-10,cs)
);
}
);
};
layerId = "D65C9A1E-0FCA-4B2D-8EDF-9F36CA9182A1";
metricRight = "=H*.7";
name = Thin;
shapes = (
{
closed = 1;
nodes = (
(528,-10,o),
(618,10,o),
(685,44,c),
(685,390,l),
(335,390,l),
(335,370,l),
(665,370,l),
(665,45,l),
(676,62,l),
(611,29,o),
(526,10,o),
(433,10,cs),
(197,10,o),
(65,137,o),
(65,365,cs),
(65,593,o),
(197,720,o),
(433,720,cs),
(507,720,o),
(576,707,o),
(650,679,c),
(657,698,l),
(581,727,o),
(509,740,o),
(433,740,cs),
(186,740,o),
(45,604,o),
(45,365,cs),
(45,126,o),
(186,-10,o),
(433,-10,cs)
);
}
);
width = 748;
}
);
metricLeft = "=O";
metricRight = "=H*.9";
unicode = 71;
},
{
glyphname = H;
kernLeft = H;
kernRight = H;
lastChange = "2026-04-02 04:55:31 +0000";
layers = (
{
anchors = (
{
name = bottom;
pos = (345,0);
},
{
name = center;
pos = (345,365);
},
{
name = top;
pos = (345,730);
},
{
name = topleft;
pos = (-5,730);
}
);
layerId = "D65C9A1E-0FCA-4B2D-8EDF-9F36CA9182A1";
shapes = (
{
closed = 1;
nodes = (
(600,0,l),
(600,730,l),
(580,730,l),
(580,0,l)
);
},
{
closed = 1;
nodes = (
(110,0,l),
(110,730,l),
(90,730,l),
(90,0,l)
);
},
{
closed = 1;
nodes = (
(590,370,l),
(590,390,l),
(100,390,l),
(100,370,l)
);
}
);
width = 690;
},
{
anchors = (
{
name = bottom;
pos = (350,0);
},
{
name = center;
pos = (350,365);
},
{
name = top;
pos = (350,730);
},
{
name = topleft;
pos = (-5,730);
}
);
background = {
anchors = (
{
name = bottom;
pos = (350,0);
},
{
name = center;
pos = (350,365);
},
{
name = top;
pos = (350,730);
},
{
name = topleft;
pos = (-5,730);
}
);
};
layerId = "9527F797-22C1-480E-A1FE-2CDBEBE1FD4C";
shapes = (
{
closed = 1;
nodes = (
(630,0,l),
(630,730,l),
(520,730,l),
(520,0,l)
);
},
{
closed = 1;
nodes = (
(180,0,l),
(180,730,l),
(70,730,l),
(70,0,l)
);
},
{
closed = 1;
nodes = (
(575,325,l),
(575,425,l),
(125,425,l),
(125,325,l)
);
}
);
width = 700;
},
{
anchors = (
{
name = bottom;
pos = (365,0);
},
{
name = center;
pos = (365,365);
},
{
name = top;
pos = (365,730);
},
{
name = topleft;
pos = (5,730);
}
);
layerId = "9E6B41AB-2970-4C41-8B35-4DBE0D296A43";
shapes = (
{
closed = 1;
nodes = (
(670,0,l),
(670,730,l),
(470,730,l),
(470,0,l)
);
},
{
closed = 1;
nodes = (
(260,0,l),
(260,730,l),
(60,730,l),
(60,0,l)
);
},
{
closed = 1;
nodes = (
(570,284,l),
(570,454,l),
(160,454,l),
(160,284,l)
);
}
);
width = 730;
}
);
metricRight = "=|";
unicode = 72;
},
{
glyphname = Hbar;
kernLeft = W;
kernRight = W;
lastChange = "2026-04-11 07:05:14 +0000";
layers = (
{
layerId = "D65C9A1E-0FCA-4B2D-8EDF-9F36CA9182A1";
shapes = (
{
closed = 1;
nodes = (
(758,586,l),
(758,606,l),
(18,606,l),
(18,586,l)
);
},
{
pos = (43,0);
ref = H;
}
);
width = 776;
},
{
layerId = "9527F797-22C1-480E-A1FE-2CDBEBE1FD4C";
shapes = (
{
closed = 1;
nodes = (
(794,551,l),
(794,641,l),
(20,641,l),
(20,551,l)
);
},
{
alignment = -1;
pos = (57,0);
ref = H;
}
);
width = 814;
},
{
layerId = "9E6B41AB-2970-4C41-8B35-4DBE0D296A43";
shapes = (
{
closed = 1;
nodes = (
(828,526,l),
(828,666,l),
(18,666,l),
(18,526,l)
);
},
{
pos = (58,0);
ref = H;
}
);
width = 846;
}
);
metricLeft = "=W";
metricRight = "=|";
unicode = 294;
},
{
glyphname = I;
kernLeft = I;
kernRight = I;
lastChange = "2026-04-16 05:34:38 +0000";
layers = (
{
anchors = (
{
name = bottom;
pos = (109,0);
},
{
name = ogonek;
pos = (119,0);
},
{
name = top;
pos = (109,730);
},
{
name = topleft;
pos = (14,730);
}
);
layerId = "D65C9A1E-0FCA-4B2D-8EDF-9F36CA9182A1";
shapes = (
{
closed = 1;
nodes = (
(119,0,l),
(119,730,l),
(99,730,l),
(99,0,l)
);
}
);
width = 218;
},
{
anchors = (
{
name = bottom;
pos = (134,0);
},
{
name = ogonek;
pos = (191,0);
},
{
name = top;
pos = (134,730);
},
{
name = topleft;
pos = (9,730);
}
);
layerId = "9527F797-22C1-480E-A1FE-2CDBEBE1FD4C";
shapes = (
{
closed = 1;
nodes = (
(191,0,l),
(191,730,l),
(77,730,l),
(77,0,l)
);
}
);
width = 268;
},
{
anchors = (
{
name = bottom;
pos = (171,0);
},
{
name = ogonek;
pos = (276,0);
},
{
name = top;
pos = (171,730);
},
{
name = topleft;
pos = (14,730);
}
);
layerId = "9E6B41AB-2970-4C41-8B35-4DBE0D296A43";
shapes = (
{
closed = 1;
nodes = (
(276,0,l),
(276,730,l),
(66,730,l),
(66,0,l)
);
}
);
width = 342;
}
);
metricLeft = "=H*1.1";
metricRight = "=|";
unicode = 73;
},
{
glyphname = J;
kernLeft = I;
kernRight = I;
lastChange = "2026-04-16 05:11:11 +0000";
layers = (
{
anchors = (
{
name = bottom;
pos = (158,0);
},
{
name = top;
pos = (145,730);
}
);
background = {
anchors = (
{
name = bottom;
pos = (160,0);
},
{
name = top;
pos = (160,730);
}
);
shapes = (
{
closed = 1;
nodes = (
(136,-92,o),
(227,22,o),
(227,290,cs),
(227,730,l),
(115,730,l),
(115,311,ls),
(115,75,o),
(57,-4,o),
(-143,-37,c),
(-113,-133,l)
);
}
);
};
layerId = "9527F797-22C1-480E-A1FE-2CDBEBE1FD4C";
metricLeft = "=I-220";
shapes = (
{
closed = 1;
nodes = (
(129,-171,o),
(212,-65,o),
(212,198,cs),
(212,730,l),
(100,730,l),
(100,198,ls),
(100,-14,o),
(47,-84,o),
(-143,-122,c),
(-113,-218,l)
);
}
);
width = 289;
},
{
anchors = (
{
name = bottom;
pos = (197,0);
},
{
name = top;
pos = (171,730);
}
);
layerId = "9E6B41AB-2970-4C41-8B35-4DBE0D296A43";
metricLeft = "=I-190";
shapes = (
{
closed = 1;
nodes = (
(197,-166,o),
(286,-56,o),
(286,217,cs),
(286,730,l),
(81,730,l),
(81,217,ls),
(81,32,o),
(48,-11,o),
(-124,-48,c),
(-66,-218,l)
);
}
);
width = 352;
},
{
anchors = (
{
name = bottom;
pos = (129,0);
},
{
name = top;
pos = (129,730);
}
);
layerId = "D65C9A1E-0FCA-4B2D-8EDF-9F36CA9182A1";
metricLeft = "=I-250";
shapes = (
{
closed = 1;
nodes = (
(72,-177,o),
(149,-71,o),
(149,178,cs),
(149,730,l),
(129,730,l),
(129,178,ls),
(129,-62,o),
(57,-159,o),
(-151,-198,c),
(-147,-218,l)
);
}
);
width = 248;
}
);
metricLeft = "=I";
metricRight = "=I";
unicode = 74;
},
{
glyphname = K;
kernLeft = H;
kernRight = K;
lastChange = "2026-04-14 06:56:10 +0000";
layers = (
{
anchors = (
{
name = bottom;
pos = (330,0);
},
{
name = top;
pos = (330,730);
}
);
background = {
shapes = (
{
closed = 1;
nodes = (
(103,324,l),
(620,730,l),
(588,730,l),
(92,341,l)
);
},
{
closed = 1;
nodes = (
(110,0,l),
(110,730,l),
(90,730,l),
(90,0,l)
);
},
{
closed = 1;
nodes = (
(630,0,l),
(173,400,l),
(161,384,l),
(600,0,l)
);
}
);
};
layerId = "D65C9A1E-0FCA-4B2D-8EDF-9F36CA9182A1";
shapes = (
{
closed = 1;
nodes = (
(110,0,l),
(110,329,l),
(170,376,l),
(170,376,l),
(600,0,l),
(630,0,l),
(186,389,l),
(620,730,l),
(588,730,l),
(112,356,l),
(110,356,l),
(110,730,l),
(90,730,l),
(90,0,l)
);
}
);
width = 639;
},
{
anchors = (
{
name = bottom;
pos = (350,0);
},
{
name = top;
pos = (350,730);
}
);
background = {
anchors = (
{
name = bottom;
pos = (350,0);
},
{
name = top;
pos = (350,730);
}
);
};
layerId = "9527F797-22C1-480E-A1FE-2CDBEBE1FD4C";
shapes = (
{
closed = 1;
nodes = (
(180,0,l),
(180,267,l),
(231,319,l),
(231,319,l),
(534,0,l),
(670,0,l),
(314,392,l),
(660,730,l),
(524,730,l),
(182,408,l),
(180,408,l),
(180,730,l),
(70,730,l),
(70,0,l)
);
}
);
width = 677;
},
{
anchors = (
{
name = bottom;
pos = (370,0);
},
{
name = top;
pos = (370,730);
}
);
background = {
shapes = (
{
closed = 1;
nodes = (
(365,281,l),
(710,730,l),
(480,730,l),
(193,365,l),
(187,109,l),
(333,299,l)
);
},
{
closed = 1;
nodes = (
(260,730,l),
(60,730,l),
(60,0,l),
(260,0,l)
);
},
{
closed = 1;
nodes = (
(212,408,l),
(490,0,l),
(720,0,l),
(442,408,l)
);
}
);
};
layerId = "9E6B41AB-2970-4C41-8B35-4DBE0D296A43";
shapes = (
{
closed = 1;
nodes = (
(260,0,l),
(260,204,l),
(308,267,l),
(310,267,l),
(490,0,l),
(720,0,l),
(452,394,l),
(710,730,l),
(480,730,l),
(262,450,l),
(260,450,l),
(260,730,l),
(60,730,l),
(60,0,l)
);
}
);
width = 726;
}
);
metricLeft = "=H";
metricRight = "=H*.1";
unicode = 75;
},
{
glyphname = L;
kernLeft = H;
kernRight = L;
lastChange = "2026-04-16 06:11:37 +0000";
layers = (
{
anchors = (
{
name = bottom;
pos = (315,0);
},
{
name = center;
pos = (302,375);
},
{
name = pdcenter;
pos = (530,375);
},
{
name = top;
pos = (260,730);
},
{
name = topright;
pos = (573,730);
}
);
layerId = "D65C9A1E-0FCA-4B2D-8EDF-9F36CA9182A1";
shapes = (
{
closed = 1;
nodes = (
(560,0,l),
(560,20,l),
(110,20,l),
(110,730,l),
(90,730,l),
(90,0,l)
);
}
);
width = 596;
},
{
anchors = (
{
name = bottom;
pos = (315,0);
},
{
name = center;
pos = (303,375);
},
{
name = pdcenter;
pos = (520,375);
},
{
name = top;
pos = (285,730);
},
{
name = topright;
pos = (596,730);
}
);
layerId = "9527F797-22C1-480E-A1FE-2CDBEBE1FD4C";
shapes = (
{
closed = 1;
nodes = (
(580,0,l),
(580,100,l),
(183,100,l),
(183,730,l),
(70,730,l),
(70,0,l)
);
}
);
width = 608;
},
{
anchors = (
{
name = bottom;
pos = (325,0);
},
{
name = center;
pos = (316,375);
},
{
name = pdcenter;
pos = (520,375);
},
{
name = top;
pos = (310,730);
},
{
name = topright;
pos = (611,730);
}
);
layerId = "9E6B41AB-2970-4C41-8B35-4DBE0D296A43";
shapes = (
{
closed = 1;
nodes = (
(610,0,l),
(610,170,l),
(265,170,l),
(265,730,l),
(60,730,l),
(60,0,l)
);
}
);
width = 634;
}
);
metricLeft = "=H";
metricRight = "=H*.4";
unicode = 76;
},
{
glyphname = LJ;
kernLeft = H;
kernRight = U;
lastChange = "2026-04-16 05:13:44 +0000";
layers = (
{
anchors = (
{
name = bottom;
pos = (302,0);
},
{
name = center;
pos = (302,375);
},
{
name = pdcenter;
pos = (530,375);
},
{
name = top;
pos = (302,730);
},
{
name = topright;
pos = (573,730);
}
);
layerId = "D65C9A1E-0FCA-4B2D-8EDF-9F36CA9182A1";
shapes = (
{
closed = 1;
nodes = (
(360,0,l),
(360,20,l),
(110,20,l),
(110,730,l),
(90,730,l),
(90,0,l)
);
},
{
pos = (356,0);
ref = J;
}
);
width = 604;
},
{
anchors = (
{
name = bottom;
pos = (304,0);
},
{
name = center;
pos = (304,375);
},
{
name = pdcenter;
pos = (520,375);
},
{
name = top;
pos = (304,730);
},
{
name = topright;
pos = (587,730);
}
);
layerId = "9527F797-22C1-480E-A1FE-2CDBEBE1FD4C";
shapes = (
{
closed = 1;
nodes = (
(390,0,l),
(390,100,l),
(183,100,l),
(183,730,l),
(70,730,l),
(70,0,l)
);
},
{
pos = (390,0);
ref = J;
}
);
width = 679;
},
{
anchors = (
{
name = bottom;
pos = (316,0);
},
{
name = center;
pos = (316,375);
},
{
name = pdcenter;
pos = (520,375);
},
{
name = top;
pos = (316,730);
},
{
name = topright;
pos = (611,730);
}
);
layerId = "9E6B41AB-2970-4C41-8B35-4DBE0D296A43";
name = Black;
shapes = (
{
closed = 1;
nodes = (
(430,0,l),
(430,170,l),
(265,170,l),
(265,730,l),
(60,730,l),
(60,0,l)
);
},
{
pos = (434,0);
ref = J;
}
);
width = 786;
},
{
associatedMasterId = "9E6B41AB-2970-4C41-8B35-4DBE0D296A43";
layerId = "8C0C6916-A712-4D80-BA15-D9AC41425293";
name = "Apr 14, 26 at 16:01";
shapes = (
{
ref = L;
},
{
pos = (654,0);
ref = J;
}
);
width = 1006;
},
{
associatedMasterId = "D65C9A1E-0FCA-4B2D-8EDF-9F36CA9182A1";
layerId = "2DC086B4-9C92-4DC4-8653-38BD219805BB";
name = "Apr 14, 26 at 16:02";
shapes = (
{
ref = L;
},
{
pos = (596,0);
ref = J;
}
);
width = 844;
},
{
associatedMasterId = "9527F797-22C1-480E-A1FE-2CDBEBE1FD4C";
layerId = "63531BA3-F63E-4656-AA7D-A57F195CA568";
name = "Apr 14, 26 at 16:02";
shapes = (
{
ref = L;
},
{
pos = (618,0);
ref = J;
}
);
width = 907;
}
);
metricLeft = "=H";
metricRight = "=J";
unicode = 455;
},
{
glyphname = Lj;
kernLeft = H;
kernRight = g;
lastChange = "2026-04-14 07:13:08 +0000";
layers = (
{
anchors = (
{
name = bottom;
pos = (302,0);
},
{
name = center;
pos = (302,375);
},
{
name = pdcenter;
pos = (530,375);
},
{
name = top;
pos = (302,730);
},
{
name = topright;
pos = (573,730);
}
);
layerId = "D65C9A1E-0FCA-4B2D-8EDF-9F36CA9182A1";
shapes = (
{
closed = 1;
nodes = (
(360,0,l),
(360,20,l),
(110,20,l),
(110,730,l),
(90,730,l),
(90,0,l)
);
},
{
pos = (296,0);
ref = j;
}
);
width = 586;
},
{
anchors = (
{
name = bottom;
pos = (303,0);
},
{
name = center;
pos = (303,375);
},
{
name = pdcenter;
pos = (520,375);
},
{
name = top;
pos = (303,730);
},
{
name = topright;
pos = (596,730);
}
);
layerId = "9527F797-22C1-480E-A1FE-2CDBEBE1FD4C";
shapes = (
{
closed = 1;
nodes = (
(390,0,l),
(390,100,l),
(183,100,l),
(183,730,l),
(70,730,l),
(70,0,l)
);
},
{
alignment = -1;
pos = (345,0);
ref = j;
}
);
width = 675;
},
{
anchors = (
{
name = bottom;
pos = (316,0);
},
{
name = center;
pos = (316,375);
},
{
name = pdcenter;
pos = (520,375);
},
{
name = top;
pos = (316,730);
},
{
name = topright;
pos = (611,730);
}
);
layerId = "9E6B41AB-2970-4C41-8B35-4DBE0D296A43";
shapes = (
{
closed = 1;
nodes = (
(430,0,l),
(430,170,l),
(265,170,l),
(265,730,l),
(60,730,l),
(60,0,l)
);
},
{
pos = (394,0);
ref = j;
}
);
width = 763;
},
{
associatedMasterId = "9E6B41AB-2970-4C41-8B35-4DBE0D296A43";
layerId = "989522DA-539B-4617-9CBC-CF498C6AB23B";
name = "Apr 14, 26 at 16:05";
shapes = (
{
alignment = -1;
ref = L;
},
{
alignment = -1;
pos = (634,0);
ref = j;
}
);
width = 922;
},
{
associatedMasterId = "D65C9A1E-0FCA-4B2D-8EDF-9F36CA9182A1";
layerId = "EFFA3D9B-FEB8-4D1E-8D90-22C4479270D9";
name = "Apr 14, 26 at 16:10";
shapes = (
{
ref = L;
},
{
pos = (596,0);
ref = j;
}
);
width = 886;
},
{
associatedMasterId = "9527F797-22C1-480E-A1FE-2CDBEBE1FD4C";
layerId = "885C68DC-23BD-4714-B32A-37FF9C4C442B";
name = "Apr 14, 26 at 16:11";
shapes = (
{
alignment = -1;
ref = L;
},
{
alignment = -1;
pos = (633,0);
ref = j;
}
);
width = 933;
}
);
metricLeft = "=H";
metricRight = "=j";
unicode = 456;
},
{
glyphname = Lslash;
kernLeft = t;
kernRight = L;
lastChange = "2026-04-14 07:22:44 +0000";
layers = (
{
layerId = "D65C9A1E-0FCA-4B2D-8EDF-9F36CA9182A1";
metricLeft = "=f*.9";
shapes = (
{
closed = 1;
nodes = (
(362,431,l),
(354,449,l),
(24,299,l),
(32,281,l)
);
},
{
pos = (68,0);
ref = L;
}
);
width = 664;
},
{
layerId = "9527F797-22C1-480E-A1FE-2CDBEBE1FD4C";
metricLeft = "=f*.5";
shapes = (
{
closed = 1;
nodes = (
(447,407,l),
(411,491,l),
(11,323,l),
(47,239,l)
);
},
{
pos = (81,0);
ref = L;
}
);
width = 689;
},
{
layerId = "9E6B41AB-2970-4C41-8B35-4DBE0D296A43";
metricLeft = "=f*.1";
shapes = (
{
closed = 1;
nodes = (
(526,393,l),
(471,523,l),
(2,337,l),
(57,207,l)
);
},
{
pos = (94,0);
ref = L;
}
);
width = 728;
}
);
metricLeft = "=t*.5";
metricRight = "=L";
unicode = 321;
},
{
glyphname = M;
kernLeft = M;
kernRight = M;
lastChange = "2026-04-05 08:07:54 +0000";
layers = (
{
background = {
shapes = (
{
closed = 1;
nodes = (
(170,730,l),
(140,730,l),
(72,0,l),
(92,0,l),
(157,707,l),
(159,707,l)
);
},
{
closed = 1;
nodes = (
(406,0,l),
(705,707,l),
(707,707,l),
(772,0,l),
(792,0,l),
(724,730,l),
(694,730,l),
(384,0,l)
);
},
{
attr = {
strokeWidth = 20;
};
closed = 0;
nodes = (
(445,114,l),
(314,303,o),
(224,500,o),
(165,727,c)
);
}
);
};
layerId = "D65C9A1E-0FCA-4B2D-8EDF-9F36CA9182A1";
metricLeft = "=A*4.0";
shapes = (
{
closed = 1;
nodes = (
(92,0,l),
(157,707,l),
(159,707,l),
(218,487,o),
(309,293,o),
(437,108,c),
(453,120,l),
(322,309,o),
(234,503,o),
(175,730,c),
(140,730,l),
(72,0,l)
);
},
{
closed = 1;
nodes = (
(406,0,l),
(705,707,l),
(707,707,l),
(772,0,l),
(792,0,l),
(724,730,l),
(694,730,l),
(384,0,l)
);
}
);
width = 864;
},
{
layerId = "9527F797-22C1-480E-A1FE-2CDBEBE1FD4C";
metricLeft = "=A*5";
shapes = (
{
closed = 1;
nodes = (
(162,0,l),
(206,587,l),
(208,587,l),
(255,388,o),
(317,234,o),
(413,64,c),
(499,111,l),
(394,316,o),
(324,521,o),
(283,730,c),
(118,730,l),
(50,0,l)
);
},
{
closed = 1;
nodes = (
(468,0,l),
(662,587,l),
(664,587,l),
(708,0,l),
(820,0,l),
(752,730,l),
(607,730,l),
(356,0,l)
);
}
);
width = 870;
},
{
layerId = "9E6B41AB-2970-4C41-8B35-4DBE0D296A43";
metricLeft = "=A*6.0";
name = Black;
shapes = (
{
closed = 1;
nodes = (
(236,0,l),
(264,471,l),
(266,471,l),
(302,292,o),
(336,178,o),
(399,24,c),
(518,102,l),
(440,322,o),
(387,538,o),
(364,730,c),
(104,730,l),
(36,0,l)
);
},
{
closed = 1;
nodes = (
(531,0,l),
(625,471,l),
(627,471,l),
(656,0,l),
(856,0,l),
(788,730,l),
(528,730,l),
(343,0,l)
);
}
);
width = 892;
}
);
metricLeft = "=H";
metricRight = "=|";
unicode = 77;
},
{
glyphname = N;
kernLeft = H;
kernRight = H;
lastChange = "2026-04-02 03:47:36 +0000";
layers = (
{
anchors = (
{
name = bottom;
pos = (360,0);
},
{
name = top;
pos = (360,730);
}
);
layerId = "D65C9A1E-0FCA-4B2D-8EDF-9F36CA9182A1";
shapes = (
{
closed = 1;
nodes = (
(110,0,l),
(110,709,l),
(112,709,l),
(599,0,l),
(630,0,l),
(630,730,l),
(610,730,l),
(610,21,l),
(608,21,l),
(121,730,l),
(90,730,l),
(90,0,l)
);
}
);
width = 720;
},
{
anchors = (
{
name = bottom;
pos = (360,0);
},
{
name = top;
pos = (360,730);
}
);
layerId = "9527F797-22C1-480E-A1FE-2CDBEBE1FD4C";
shapes = (
{
closed = 1;
nodes = (
(180,0,l),
(180,550,l),
(182,550,l),
(530,0,l),
(650,0,l),
(650,730,l),
(540,730,l),
(540,180,l),
(538,180,l),
(190,730,l),
(70,730,l),
(70,0,l)
);
}
);
width = 720;
},
{
anchors = (
{
name = bottom;
pos = (370,0);
},
{
name = top;
pos = (370,730);
}
);
layerId = "9E6B41AB-2970-4C41-8B35-4DBE0D296A43";
shapes = (
{
closed = 1;
nodes = (
(260,0,l),
(260,390,l),
(262,390,l),
(480,0,l),
(680,0,l),
(680,730,l),
(480,730,l),
(480,340,l),
(478,340,l),
(260,730,l),
(60,730,l),
(60,0,l)
);
}
);
width = 740;
}
);
metricLeft = "=H";
metricRight = "=|";
unicode = 78;
},
{
glyphname = Eng;
kernLeft = H;
kernRight = H;
lastChange = "2026-04-16 05:21:49 +0000";
layers = (
{
anchors = (
{
name = bottom;
pos = (360,0);
},
{
name = top;
pos = (360,730);
}
);
background = {
shapes = (
{
ref = N;
}
);
};
layerId = "D65C9A1E-0FCA-4B2D-8EDF-9F36CA9182A1";
shapes = (
{
closed = 1;
nodes = (
(587,-211,o),
(630,-164,o),
(630,-61,cs),
(630,730,l),
(610,730,l),
(610,21,l),
(608,21,l),
(121,730,l),
(90,730,l),
(90,0,l),
(110,0,l),
(110,709,l),
(112,709,l),
(621,-32,l),
(610,0,l),
(610,-61,ls),
(610,-153,o),
(575,-191,o),
(490,-191,cs),
(465,-191,o),
(439,-186,o),
(417,-177,c),
(410,-196,l),
(434,-205,o),
(463,-211,o),
(490,-211,cs)
);
}
);
width = 720;
},
{
anchors = (
{
name = bottom;
pos = (360,0);
},
{
name = top;
pos = (360,730);
}
);
background = {
shapes = (
{
ref = N;
}
);
};
layerId = "9527F797-22C1-480E-A1FE-2CDBEBE1FD4C";
shapes = (
{
closed = 1;
nodes = (
(598,-221,o),
(650,-163,o),
(650,-26,cs),
(650,730,l),
(540,730,l),
(540,180,l),
(538,180,l),
(190,730,l),
(70,730,l),
(70,0,l),
(180,0,l),
(180,550,l),
(182,550,l),
(556,-41,l),
(542,9,l),
(542,-26,ls),
(542,-97,o),
(516,-126,o),
(452,-126,cs),
(427,-126,o),
(401,-122,o),
(377,-114,c),
(360,-205,l),
(398,-216,o),
(436,-221,o),
(474,-221,cs)
);
}
);
width = 720;
},
{
anchors = (
{
name = bottom;
pos = (370,0);
},
{
name = top;
pos = (370,730);
}
);
background = {
shapes = (
{
ref = N;
}
);
};
layerId = "9E6B41AB-2970-4C41-8B35-4DBE0D296A43";
shapes = (
{
closed = 1;
nodes = (
(625,-229,o),
(680,-169,o),
(680,0,cs),
(680,730,l),
(480,730,l),
(480,340,l),
(478,340,l),
(260,730,l),
(60,730,l),
(60,0,l),
(260,0,l),
(260,390,l),
(262,390,l),
(524,-79,l),
(480,90,l),
(480,0,l),
(480,-55,o),
(468,-70,o),
(425,-70,cs),
(404,-70,o),
(370,-66,o),
(342,-59,c),
(322,-214,l),
(370,-223,o),
(420,-229,o),
(468,-229,cs)
);
}
);
width = 740;
}
);
metricLeft = "=N";
metricRight = "=N";
unicode = 330;
},
{
glyphname = O;
kernLeft = O;
kernRight = O;
lastChange = "2026-04-16 06:37:00 +0000";
layers = (
{
anchors = (
{
name = bottom;
pos = (385,0);
},
{
name = center;
pos = (385,365);
},
{
name = ogonek;
pos = (445,0);
},
{
name = top;
pos = (385,730);
},
{
name = topleft;
pos = (17,730);
},
{
name = topright;
pos = (582,640);
}
);
layerId = "D65C9A1E-0FCA-4B2D-8EDF-9F36CA9182A1";
shapes = (
{
closed = 1;
nodes = (
(602,-10,o),
(725,126,o),
(725,365,cs),
(725,604,o),
(602,740,o),
(385,740,cs),
(168,740,o),
(45,604,o),
(45,365,cs),
(45,126,o),
(168,-10,o),
(385,-10,cs)
);
},
{
closed = 1;
nodes = (
(180,10,o),
(65,137,o),
(65,365,cs),
(65,593,o),
(180,720,o),
(385,720,cs),
(590,720,o),
(705,593,o),
(705,365,cs),
(705,137,o),
(590,10,o),
(385,10,cs)
);
}
);
width = 770;
},
{
anchors = (
{
name = bottom;
pos = (390,0);
},
{
name = center;
pos = (390,365);
},
{
name = ogonek;
pos = (458,0);
},
{
name = top;
pos = (390,730);
},
{
name = topleft;
pos = (20,730);
},
{
name = topright;
pos = (595,645);
}
);
layerId = "9527F797-22C1-480E-A1FE-2CDBEBE1FD4C";
shapes = (
{
closed = 1;
nodes = (
(617,-10,o),
(745,125,o),
(745,365,cs),
(745,605,o),
(617,740,o),
(390,740,cs),
(163,740,o),
(35,605,o),
(35,365,cs),
(35,125,o),
(163,-10,o),
(390,-10,cs)
);
},
{
closed = 1;
nodes = (
(235,90,o),
(148,189,o),
(148,365,cs),
(148,541,o),
(235,640,o),
(390,640,cs),
(545,640,o),
(632,541,o),
(632,365,cs),
(632,189,o),
(545,90,o),
(390,90,cs)
);
}
);
width = 780;
},
{
anchors = (
{
name = bottom;
pos = (400,0);
},
{
name = center;
pos = (400,365);
},
{
name = ogonek;
pos = (477,0);
},
{
name = top;
pos = (400,730);
},
{
name = topleft;
pos = (28,730);
},
{
name = topright;
pos = (573,650);
}
);
layerId = "9E6B41AB-2970-4C41-8B35-4DBE0D296A43";
shapes = (
{
closed = 1;
nodes = (
(638,-10,o),
(770,124,o),
(770,365,cs),
(770,606,o),
(638,740,o),
(400,740,cs),
(162,740,o),
(30,606,o),
(30,365,cs),
(30,124,o),
(162,-10,o),
(400,-10,cs)
);
},
{
closed = 1;
nodes = (
(294,160,o),
(235,233,o),
(235,365,cs),
(235,497,o),
(294,570,o),
(400,570,cs),
(506,570,o),
(565,497,o),
(565,365,cs),
(565,233,o),
(506,160,o),
(400,160,cs)
);
}
);
width = 800;
}
);
metricLeft = "=H*.5";
metricRight = "=|";
unicode = 79;
},
{
glyphname = Oogonek;
kernLeft = O;
kernRight = O;
lastChange = "2026-04-16 05:48:30 +0000";
layers = (
{
layerId = "D65C9A1E-0FCA-4B2D-8EDF-9F36CA9182A1";
shapes = (
{
closed = 1;
nodes = (
(410,-220,o),
(432,-214,o),
(450,-203,c),
(442,-185,l),
(423,-195,o),
(404,-200,o),
(386,-200,cs),
(338,-200,o),
(313,-178,o),
(313,-135,cs),
(313,-91,o),
(349,-26,o),
(475,-1,c),
(465,16,l),
(333,-13,o),
(293,-82,o),
(293,-135,cs),
(293,-191,o),
(325,-220,o),
(386,-220,cs)
);
},
{
ref = O;
}
);
width = 770;
},
{
layerId = "9527F797-22C1-480E-A1FE-2CDBEBE1FD4C";
shapes = (
{
closed = 1;
nodes = (
(433,-217,o),
(459,-213,o),
(482,-205,c),
(465,-120,l),
(452,-127,o),
(438,-130,o),
(423,-130,cs),
(398,-130,o),
(385,-117,o),
(385,-93,cs),
(385,-67,o),
(420,-19,o),
(480,-2,c),
(373,26,l),
(314,-10,o),
(283,-62,o),
(283,-107,cs),
(283,-177,o),
(327,-217,o),
(404,-217,cs)
);
},
{
ref = O;
}
);
width = 780;
},
{
layerId = "9E6B41AB-2970-4C41-8B35-4DBE0D296A43";
shapes = (
{
closed = 1;
nodes = (
(494,-220,o),
(518,-217,o),
(541,-210,c),
(526,-75,l),
(511,-81,o),
(492,-85,o),
(478,-85,cs),
(450,-85,o),
(437,-75,o),
(437,-53,cs),
(437,-32,o),
(453,-16,o),
(489,-3,c),
(353,46,l),
(289,1,o),
(261,-36,o),
(261,-82,cs),
(261,-170,o),
(334,-220,o),
(466,-220,cs)
);
},
{
ref = O;
}
);
width = 800;
}
);
metricLeft = "=O";
metricRight = "=|";
unicode = 490;
},
{
glyphname = Oslash;
kernLeft = O;
kernRight = O;
lastChange = "2026-04-16 05:49:11 +0000";
layers = (
{
anchors = (
{
name = bottom;
pos = (394,0);
},
{
name = top;
pos = (394,730);
}
);
layerId = "D65C9A1E-0FCA-4B2D-8EDF-9F36CA9182A1";
shapes = (
{
closed = 1;
nodes = (
(181,63,l),
(181,63,l),
(623,655,l),
(623,655,l),
(682,734,l),
(666,746,l),
(607,667,l),
(607,667,l),
(165,75,l),
(165,75,l),
(106,-4,l),
(122,-16,l)
);
},
{
pos = (9,0);
ref = O;
}
);
width = 788;
},
{
anchors = (
{
name = bottom;
pos = (397,0);
},
{
name = top;
pos = (397,730);
}
);
layerId = "9527F797-22C1-480E-A1FE-2CDBEBE1FD4C";
shapes = (
{
closed = 1;
nodes = (
(212,41,l),
(212,41,l),
(652,629,l),
(652,629,l),
(714,713,l),
(641,768,l),
(583,689,l),
(583,689,l),
(143,101,l),
(143,101,l),
(80,18,l),
(153,-38,l)
);
},
{
alignment = -1;
pos = (7,0);
ref = O;
}
);
width = 794;
},
{
anchors = (
{
name = bottom;
pos = (406,0);
},
{
name = top;
pos = (406,730);
}
);
layerId = "9E6B41AB-2970-4C41-8B35-4DBE0D296A43";
shapes = (
{
closed = 1;
nodes = (
(248,28,l),
(236,37,l),
(672,621,l),
(684,612,l),
(746,695,l),
(626,785,l),
(564,702,l),
(576,693,l),
(140,109,l),
(128,118,l),
(66,35,l),
(186,-55,l)
);
},
{
pos = (6,0);
ref = O;
}
);
width = 812;
}
);
metricLeft = "=O*1.2";
metricRight = "=|";
unicode = 216;
},
{
glyphname = OE;
kernLeft = O;
kernRight = E;
lastChange = "2026-04-16 05:43:14 +0000";
layers = (
{
layerId = "D65C9A1E-0FCA-4B2D-8EDF-9F36CA9182A1";
shapes = (
{
closed = 1;
nodes = (
(461,-10,o),
(531,-4,o),
(577,4,c),
(568,23,l),
(523,15,o),
(458,10,o),
(415,10,cs),
(211,10,o),
(65,158,o),
(65,365,cs),
(65,572,o),
(211,720,o),
(415,720,cs),
(458,720,o),
(523,715,o),
(568,707,c),
(577,726,l),
(531,734,o),
(461,740,o),
(415,740,cs),
(200,740,o),
(45,583,o),
(45,365,cs),
(45,147,o),
(200,-10,o),
(415,-10,cs)
);
},
{
pos = (440,0);
ref = E;
}
);
width = 996;
},
{
layerId = "9527F797-22C1-480E-A1FE-2CDBEBE1FD4C";
shapes = (
{
closed = 1;
nodes = (
(492,-10,o),
(565,11,o),
(624,49,c),
(549,127,l),
(510,103,o),
(463,90,o),
(410,90,cs),
(255,90,o),
(148,202,o),
(148,365,cs),
(148,528,o),
(255,640,o),
(410,640,cs),
(463,640,o),
(510,627,o),
(549,603,c),
(624,681,l),
(565,719,o),
(492,740,o),
(410,740,cs),
(188,740,o),
(35,587,o),
(35,365,cs),
(35,143,o),
(188,-10,o),
(410,-10,cs)
);
},
{
alignment = -1;
pos = (419,0);
ref = E;
}
);
width = 1011;
},
{
layerId = "9E6B41AB-2970-4C41-8B35-4DBE0D296A43";
shapes = (
{
closed = 1;
nodes = (
(526,-10,o),
(622,28,o),
(688,95,c),
(550,232,l),
(519,186,o),
(471,160,o),
(410,160,cs),
(304,160,o),
(235,241,o),
(235,365,cs),
(235,489,o),
(304,570,o),
(410,570,cs),
(471,570,o),
(519,544,o),
(550,498,c),
(688,635,l),
(622,702,o),
(526,740,o),
(410,740,cs),
(181,740,o),
(30,591,o),
(30,365,cs),
(30,139,o),
(181,-10,o),
(410,-10,cs)
);
},
{
pos = (448,0);
ref = E;
}
);
width = 1086;
}
);
metricLeft = "=O";
metricRight = "=E";
unicode = 338;
},
{
glyphname = P;
kernLeft = H;
kernRight = P;
lastChange = "2026-04-02 05:13:36 +0000";
layers = (
{
layerId = "D65C9A1E-0FCA-4B2D-8EDF-9F36CA9182A1";
shapes = (
{
closed = 1;
nodes = (
(90,0,l),
(110,0,l),
(110,716,l),
(93,706,l),
(159,716,o),
(215,720,o),
(267,720,cs),
(467,720,o),
(550,658,o),
(550,510,cs),
(550,362,o),
(467,300,o),
(267,300,cs),
(220,300,o),
(179,303,o),
(103,314,c),
(100,294,l),
(174,284,o),
(217,280,o),
(267,280,cs),
(478,280,o),
(570,350,o),
(570,510,cs),
(570,670,o),
(478,740,o),
(267,740,cs),
(217,740,o),
(161,736,o),
(90,726,c)
);
}
);
width = 588;
},
{
layerId = "9527F797-22C1-480E-A1FE-2CDBEBE1FD4C";
shapes = (
{
closed = 1;
nodes = (
(70,0,l),
(180,0,l),
(180,688,l),
(127,627,l),
(182,636,o),
(238,640,o),
(282,640,cs),
(429,640,o),
(488,596,o),
(488,488,cs),
(488,380,o),
(428,335,o),
(282,335,cs),
(244,335,o),
(204,338,o),
(127,348,c),
(125,249,l),
(202,239,o),
(250,235,o),
(295,235,cs),
(500,235,o),
(600,319,o),
(600,488,cs),
(600,659,o),
(498,740,o),
(280,740,cs),
(226,740,o),
(146,735,o),
(70,726,c)
);
}
);
width = 614;
},
{
layerId = "9E6B41AB-2970-4C41-8B35-4DBE0D296A43";
shapes = (
{
closed = 1;
nodes = (
(60,0,l),
(260,0,l),
(260,660,l),
(170,566,l),
(225,575,o),
(274,580,o),
(307,580,cs),
(395,580,o),
(435,544,o),
(435,465,cs),
(435,386,o),
(395,350,o),
(307,350,cs),
(271,350,o),
(210,356,o),
(160,364,c),
(160,204,l),
(224,195,o),
(288,190,o),
(333,190,cs),
(532,190,o),
(640,287,o),
(640,465,cs),
(640,648,o),
(527,740,o),
(302,740,cs),
(245,740,o),
(141,734,o),
(60,726,c)
);
}
);
width = 652;
}
);
metricLeft = "=H";
metricRight = "=H*.2";
unicode = 80;
},
{
glyphname = Thorn;
kernLeft = H;
kernRight = O;
lastChange = "2026-04-17 08:07:43 +0000";
layers = (
{
layerId = "D65C9A1E-0FCA-4B2D-8EDF-9F36CA9182A1";
shapes = (
{
closed = 1;
nodes = (
(478,145,o),
(570,215,o),
(570,375,cs),
(570,535,o),
(478,605,o),
(267,605,cs),
(217,605,o),
(174,601,o),
(100,591,c),
(103,571,l),
(179,582,o),
(220,585,o),
(267,585,cs),
(467,585,o),
(550,523,o),
(550,375,cs),
(550,227,o),
(467,165,o),
(267,165,cs),
(220,165,o),
(179,168,o),
(103,179,c),
(100,159,l),
(174,149,o),
(217,145,o),
(267,145,cs)
);
},
{
closed = 1;
nodes = (
(110,0,l),
(110,730,l),
(90,730,l),
(90,0,l)
);
}
);
width = 588;
},
{
layerId = "9527F797-22C1-480E-A1FE-2CDBEBE1FD4C";
shapes = (
{
closed = 1;
nodes = (
(500,122,o),
(600,206,o),
(600,375,cs),
(600,544,o),
(500,628,o),
(295,628,cs),
(250,628,o),
(202,624,o),
(125,614,c),
(127,515,l),
(204,525,o),
(244,528,o),
(282,528,cs),
(428,528,o),
(488,483,o),
(488,375,cs),
(488,267,o),
(428,222,o),
(282,222,cs),
(244,222,o),
(204,225,o),
(127,235,c),
(125,136,l),
(202,126,o),
(250,122,o),
(295,122,cs)
);
},
{
closed = 1;
nodes = (
(180,0,l),
(180,730,l),
(70,730,l),
(70,0,l)
);
}
);
width = 614;
},
{
layerId = "9E6B41AB-2970-4C41-8B35-4DBE0D296A43";
shapes = (
{
closed = 1;
nodes = (
(532,100,o),
(640,197,o),
(640,375,cs),
(640,553,o),
(532,650,o),
(333,650,cs),
(288,650,o),
(224,645,o),
(160,636,c),
(160,476,l),
(210,484,o),
(271,490,o),
(307,490,cs),
(395,490,o),
(435,454,o),
(435,375,cs),
(435,296,o),
(395,260,o),
(307,260,cs),
(271,260,o),
(210,266,o),
(160,274,c),
(160,114,l),
(224,105,o),
(288,100,o),
(333,100,cs)
);
},
{
closed = 1;
nodes = (
(260,0,l),
(260,730,l),
(60,730,l),
(60,0,l)
);
}
);
width = 652;
}
);
metricLeft = "=P";
metricRight = "=P";
unicode = 222;
},
{
glyphname = Q;
kernLeft = O;
kernRight = O;
lastChange = "2026-04-06 07:08:04 +0000";
layers = (
{
layerId = "D65C9A1E-0FCA-4B2D-8EDF-9F36CA9182A1";
metricRight = "=O-20";
shapes = (
{
closed = 1;
nodes = (
(543,-10,o),
(662,-56,o),
(735,-146,c),
(751,-132,l),
(690,-61,o),
(603,-17,o),
(493,1,c),
(493,3,l),
(642,42,o),
(725,169,o),
(725,365,cs),
(725,604,o),
(602,740,o),
(385,740,cs),
(168,740,o),
(45,604,o),
(45,365,cs),
(45,126,o),
(168,-10,o),
(385,-10,cs)
);
},
{
closed = 1;
nodes = (
(180,10,o),
(65,137,o),
(65,365,cs),
(65,593,o),
(180,720,o),
(385,720,cs),
(590,720,o),
(705,593,o),
(705,365,cs),
(705,137,o),
(590,10,o),
(385,10,cs)
);
}
);
width = 776;
},
{
layerId = "9E6B41AB-2970-4C41-8B35-4DBE0D296A43";
metricRight = "=O-14";
shapes = (
{
closed = 1;
nodes = (
(521,-10,o),
(572,-50,o),
(630,-190,c),
(790,-100,l),
(761,-30,o),
(709,36,o),
(657,69,c),
(657,71,l),
(731,134,o),
(770,234,o),
(770,365,cs),
(770,606,o),
(638,740,o),
(400,740,cs),
(162,740,o),
(30,606,o),
(30,365,cs),
(30,124,o),
(162,-10,o),
(400,-10,cs)
);
},
{
closed = 1;
nodes = (
(294,160,o),
(235,233,o),
(235,365,cs),
(235,497,o),
(294,570,o),
(400,570,cs),
(506,570,o),
(565,497,o),
(565,365,cs),
(565,233,o),
(506,160,o),
(400,160,cs)
);
}
);
width = 806;
},
{
layerId = "9527F797-22C1-480E-A1FE-2CDBEBE1FD4C";
metricRight = "=O-17";
shapes = (
{
closed = 1;
nodes = (
(523,-10,o),
(606,-56,o),
(675,-168,c),
(763,-116,l),
(720,-46,o),
(655,8,o),
(585,33,c),
(585,35,l),
(689,93,o),
(745,206,o),
(745,365,cs),
(745,605,o),
(617,740,o),
(390,740,cs),
(163,740,o),
(35,605,o),
(35,365,cs),
(35,125,o),
(163,-10,o),
(390,-10,cs)
);
},
{
closed = 1;
nodes = (
(235,90,o),
(148,189,o),
(148,365,cs),
(148,541,o),
(235,640,o),
(390,640,cs),
(545,640,o),
(632,541,o),
(632,365,cs),
(632,189,o),
(545,90,o),
(390,90,cs)
);
}
);
width = 781;
}
);
metricLeft = "=O";
metricRight = "=O-20";
unicode = 81;
},
{
glyphname = R;
kernLeft = H;
kernRight = R;
lastChange = "2026-04-17 08:09:32 +0000";
layers = (
{
anchors = (
{
name = bottom;
pos = (315,0);
},
{
name = top;
pos = (315,730);
}
);
background = {
anchors = (
{
name = bottom;
pos = (330,0);
},
{
name = top;
pos = (320,730);
}
);
};
layerId = "9527F797-22C1-480E-A1FE-2CDBEBE1FD4C";
shapes = (
{
closed = 1;
nodes = (
(180,0,l),
(180,688,l),
(127,627,l),
(201,636,o),
(251,640,o),
(295,640,cs),
(431,640,o),
(488,602,o),
(488,512,cs),
(488,422,o),
(431,384,o),
(295,384,cs),
(251,384,o),
(201,388,o),
(127,397,c),
(108,298,l),
(169,292,o),
(238,288,o),
(290,288,cs),
(505,288,o),
(600,357,o),
(600,514,cs),
(600,671,o),
(505,740,o),
(290,740,cs),
(227,740,o),
(139,734,o),
(70,726,c),
(70,0,l)
);
},
{
closed = 1;
nodes = (
(640,0,l),
(303,345,l),
(164,345,l),
(496,0,l)
);
}
);
width = 647;
},
{
anchors = (
{
name = bottom;
pos = (335,0);
},
{
name = top;
pos = (335,730);
}
);
layerId = "9E6B41AB-2970-4C41-8B35-4DBE0D296A43";
shapes = (
{
closed = 1;
nodes = (
(260,0,l),
(260,660,l),
(170,566,l),
(219,574,o),
(286,580,o),
(322,580,cs),
(400,580,o),
(435,552,o),
(435,489,cs),
(435,426,o),
(400,398,o),
(322,398,cs),
(286,398,o),
(219,404,o),
(170,412,c),
(162,258,l),
(207,255,o),
(268,252,o),
(312,252,cs),
(537,252,o),
(640,329,o),
(640,496,cs),
(640,663,o),
(537,740,o),
(312,740,cs),
(251,740,o),
(145,734,o),
(60,726,c),
(60,0,l)
);
},
{
closed = 1;
nodes = (
(690,0,l),
(411,327,l),
(203,327,l),
(462,0,l)
);
}
);
width = 696;
},
{
anchors = (
{
name = bottom;
pos = (305,0);
},
{
name = top;
pos = (305,730);
}
);
layerId = "D65C9A1E-0FCA-4B2D-8EDF-9F36CA9182A1";
shapes = (
{
closed = 1;
nodes = (
(110,0,l),
(110,716,l),
(93,706,l),
(170,716,o),
(223,720,o),
(277,720,cs),
(472,720,o),
(550,667,o),
(550,540,cs),
(550,413,o),
(472,360,o),
(277,360,cs),
(223,360,o),
(174,364,o),
(101,373,c),
(98,353,l),
(172,344,o),
(224,340,o),
(277,340,cs),
(482,340,o),
(570,400,o),
(570,540,cs),
(570,680,o),
(482,740,o),
(277,740,cs),
(218,740,o),
(161,735,o),
(90,726,c),
(90,0,l)
);
},
{
closed = 1;
nodes = (
(600,0,l),
(200,355,l),
(170,355,l),
(570,0,l)
);
}
);
width = 609;
}
);
metricLeft = "=H";
metricRight = "=H*.1";
unicode = 82;
},
{
glyphname = S;
kernLeft = S;
kernRight = S;
lastChange = "2026-04-17 08:13:14 +0000";
layers = (
{
anchors = (
{
name = bottom;
pos = (293,0);
},
{
name = cedi;
pos = (178,-1);
},
{
name = top;
pos = (293,730);
}
);
layerId = "D65C9A1E-0FCA-4B2D-8EDF-9F36CA9182A1";
metricLeft = "=H*.6";
shapes = (
{
closed = 1;
nodes = (
(438,-10,o),
(531,62,o),
(531,183,cs),
(531,323,o),
(407,357,o),
(292,388,cs),
(180,418,o),
(77,446,o),
(77,561,cs),
(77,662,o),
(157,720,o),
(297,720,cs),
(373,720,o),
(456,703,o),
(504,677,c),
(514,695,l),
(462,722,o),
(375,740,o),
(297,740,cs),
(147,740,o),
(57,674,o),
(57,561,cs),
(57,431,o),
(175,399,o),
(287,369,cs),
(402,338,o),
(511,308,o),
(511,183,cs),
(511,73,o),
(427,10,o),
(281,10,cs),
(205,10,o),
(118,27,o),
(62,53,c),
(54,35,l),
(112,8,o),
(202,-10,o),
(281,-10,cs)
);
}
);
width = 585;
},
{
anchors = (
{
name = bottom;
pos = (333,0);
},
{
name = cedi;
pos = (195,0);
},
{
name = top;
pos = (333,730);
}
);
layerId = "9E6B41AB-2970-4C41-8B35-4DBE0D296A43";
metricLeft = "=H*.6";
shapes = (
{
closed = 1;
nodes = (
(517,-10,o),
(630,69,o),
(630,210,cs),
(630,320,o),
(562,384,o),
(392,434,cs),
(273,469,o),
(246,488,o),
(246,526,cs),
(246,560,o),
(277,575,o),
(344,575,cs),
(420,575,o),
(502,556,o),
(574,522,c),
(616,692,l),
(545,722,o),
(444,740,o),
(347,740,cs),
(147,740,o),
(36,663,o),
(36,525,cs),
(36,413,o),
(107,340,o),
(264,297,cs),
(390,262,o),
(420,245,o),
(420,210,cs),
(420,174,o),
(389,155,o),
(330,155,cs),
(256,155,o),
(147,185,o),
(78,224,c),
(36,54,l),
(101,14,o),
(207,-10,o),
(317,-10,cs)
);
}
);
width = 666;
},
{
anchors = (
{
name = bottom;
pos = (310,0);
},
{
name = cedi;
pos = (182,0);
},
{
name = top;
pos = (310,730);
}
);
layerId = "9527F797-22C1-480E-A1FE-2CDBEBE1FD4C";
metricLeft = "=H*.6";
shapes = (
{
closed = 1;
nodes = (
(475,-10,o),
(578,66,o),
(578,197,cs),
(578,324,o),
(481,375,o),
(338,415,cs),
(224,447,o),
(159,468,o),
(159,542,cs),
(159,605,o),
(214,640,o),
(318,640,cs),
(393,640,o),
(474,622,o),
(534,594,c),
(562,694,l),
(501,722,o),
(407,740,o),
(319,740,cs),
(144,740,o),
(44,669,o),
(44,543,cs),
(44,420,o),
(137,365,o),
(271,329,cs),
(392,296,o),
(463,275,o),
(463,198,cs),
(463,129,o),
(405,90,o),
(303,90,cs),
(226,90,o),
(135,112,o),
(70,145,c),
(42,45,l),
(104,11,o),
(202,-10,o),
(296,-10,cs)
);
}
);
width = 620;
}
);
metricLeft = "=H*.6";
metricRight = "=|";
unicode = 83;
},
{
glyphname = Germandbls;
kernLeft = H;
kernRight = B;
lastChange = "2026-04-17 08:27:25 +0000";
layers = (
{
layerId = "D65C9A1E-0FCA-4B2D-8EDF-9F36CA9182A1";
shapes = (
{
closed = 1;
nodes = (
(90,0,l),
(110,0,l),
(110,485,ls),
(110,647,o),
(184,720,o),
(348,720,cs),
(416,720,o),
(490,706,o),
(550,658,c),
(567,672,l),
(501,724,o),
(422,740,o),
(348,740,cs),
(174,740,o),
(90,660,o),
(90,490,cs)
);
},
{
closed = 1;
nodes = (
(521,-10,o),
(610,58,o),
(610,180,cs),
(610,302,o),
(520,370,o),
(359,370,c),
(359,372,l),
(567,672,l),
(547,681,l),
(332,369,l),
(344,350,l),
(364,350,ls),
(511,350,o),
(590,290,o),
(590,180,cs),
(590,70,o),
(510,10,o),
(361,10,cs),
(317,10,o),
(279,15,o),
(242,26,c),
(236,7,l),
(277,-5,o),
(318,-10,o),
(361,-10,cs)
);
}
);
width = 642;
},
{
layerId = "9527F797-22C1-480E-A1FE-2CDBEBE1FD4C";
shapes = (
{
closed = 1;
nodes = (
(70,0,l),
(180,0,l),
(180,453,ls),
(180,576,o),
(244,640,o),
(367,640,cs),
(434,640,o),
(492,616,o),
(536,571,c),
(624,662,l),
(552,713,o),
(464,740,o),
(367,740,cs),
(172,740,o),
(70,645,o),
(70,463,cs)
);
},
{
closed = 1;
nodes = (
(558,-10,o),
(645,70,o),
(645,215,cs),
(645,339,o),
(582,412,o),
(464,423,c),
(464,425,l),
(624,661,l),
(494,659,l),
(320,400,l),
(345,340,l),
(345,340,l),
(474,340,o),
(533,301,o),
(533,215,cs),
(533,135,o),
(480,90,o),
(386,90,cs),
(352,90,o),
(323,95,o),
(283,111,c),
(268,11,l),
(311,-3,o),
(354,-10,o),
(401,-10,cs)
);
}
);
width = 670;
},
{
layerId = "9E6B41AB-2970-4C41-8B35-4DBE0D296A43";
shapes = (
{
closed = 1;
nodes = (
(60,0,l),
(260,0,l),
(260,460,l),
(260,539,o),
(292,570,o),
(375,570,cs),
(444,570,o),
(493,548,o),
(550,490,c),
(670,620,l),
(600,699,o),
(498,740,o),
(375,740,cs),
(165,740,o),
(60,647,o),
(60,460,c)
);
},
{
closed = 1;
nodes = (
(608,-10,o),
(690,65,o),
(690,210,cs),
(690,313,o),
(633,376,o),
(523,395,c),
(523,397,l),
(670,620,l),
(507,659,l),
(335,400,l),
(384,280,l),
(384,280,l),
(450,280,o),
(485,258,o),
(485,216,cs),
(485,179,o),
(463,160,o),
(420,160,cs),
(396,160,o),
(369,166,o),
(335,180,c),
(310,15,l),
(352,-1,o),
(400,-10,o),
(450,-10,cs)
);
}
);
width = 712;
}
);
metricLeft = "=B";
metricRight = "=B*.9";
unicode = 7838;
},
{
glyphname = T;
kernLeft = T;
kernRight = T;
lastChange = "2026-04-14 08:23:26 +0000";
layers = (
{
anchors = (
{
name = bottom;
pos = (327,0);
},
{
name = cedi;
pos = (317,0);
},
{
name = center;
pos = (327,365);
},
{
name = top;
pos = (327,730);
}
);
layerId = "D65C9A1E-0FCA-4B2D-8EDF-9F36CA9182A1";
metricLeft = "=H*.3";
shapes = (
{
closed = 1;
nodes = (
(337,0,l),
(337,710,l),
(627,710,l),
(627,730,l),
(27,730,l),
(27,710,l),
(317,710,l),
(317,0,l)
);
}
);
width = 654;
},
{
anchors = (
{
name = bottom;
pos = (330,0);
},
{
name = cedi;
pos = (273,0);
},
{
name = center;
pos = (330,365);
},
{
name = top;
pos = (330,730);
}
);
layerId = "9527F797-22C1-480E-A1FE-2CDBEBE1FD4C";
metricLeft = "=H*.35";
shapes = (
{
closed = 1;
nodes = (
(387,0,l),
(387,630,l),
(635,630,l),
(635,730,l),
(25,730,l),
(25,630,l),
(273,630,l),
(273,0,l)
);
}
);
width = 660;
},
{
anchors = (
{
name = bottom;
pos = (334,0);
},
{
name = cedi;
pos = (231,0);
},
{
name = center;
pos = (334,365);
},
{
name = top;
pos = (334,730);
}
);
layerId = "9E6B41AB-2970-4C41-8B35-4DBE0D296A43";
metricLeft = "=H*.4";
shapes = (
{
closed = 1;
nodes = (
(437,0,l),
(437,560,l),
(644,560,l),
(644,730,l),
(24,730,l),
(24,560,l),
(231,560,l),
(231,0,l)
);
}
);
width = 668;
}
);
metricLeft = "=H*0.4";
metricRight = "=|";
unicode = 84;
},
{
color = 10;
glyphname = Tbar;
kernLeft = W;
kernRight = W;
lastChange = "2026-04-02 03:47:39 +0000";
layers = (
{
layerId = "D65C9A1E-0FCA-4B2D-8EDF-9F36CA9182A1";
shapes = (
{
closed = 1;
nodes = (
(565,305,l),
(565,325,l),
(145,325,l),
(145,305,l)
);
},
{
pos = (27,0);
ref = T;
}
);
width = 708;
},
{
layerId = "9527F797-22C1-480E-A1FE-2CDBEBE1FD4C";
shapes = (
{
closed = 1;
nodes = (
(588,270,l),
(588,360,l),
(128,360,l),
(128,270,l)
);
},
{
alignment = -1;
pos = (25,0);
ref = T;
}
);
width = 710;
},
{
layerId = "9E6B41AB-2970-4C41-8B35-4DBE0D296A43";
shapes = (
{
closed = 1;
nodes = (
(610,245,l),
(610,385,l),
(110,385,l),
(110,245,l)
);
},
{
pos = (24,0);
ref = T;
}
);
width = 716;
}
);
metricLeft = "=T*2";
metricRight = "=|";
unicode = 358;
},
{
glyphname = U;
kernLeft = U;
kernRight = U;
lastChange = "2026-04-14 08:24:43 +0000";
layers = (
{
anchors = (
{
name = bottom;
pos = (351,0);
},
{
name = ogonek;
pos = (409,0);
},
{
name = top;
pos = (351,730);
},
{
name = top_ring;
pos = (351,700);
},
{
name = topright;
pos = (601,690);
}
);
layerId = "D65C9A1E-0FCA-4B2D-8EDF-9F36CA9182A1";
shapes = (
{
closed = 1;
nodes = (
(536,-10,o),
(621,81,o),
(621,280,cs),
(621,730,l),
(601,730,l),
(601,280,ls),
(601,92,o),
(525,10,o),
(351,10,cs),
(177,10,o),
(101,92,o),
(101,280,cs),
(101,730,l),
(81,730,l),
(81,280,ls),
(81,81,o),
(166,-10,o),
(351,-10,cs)
);
}
);
width = 702;
},
{
anchors = (
{
name = bottom;
pos = (353,0);
},
{
name = ogonek;
pos = (433,0);
},
{
name = top;
pos = (353,730);
},
{
name = top_ring;
pos = (353,710);
},
{
name = topright;
pos = (588,690);
}
);
layerId = "9527F797-22C1-480E-A1FE-2CDBEBE1FD4C";
shapes = (
{
closed = 1;
nodes = (
(550,-10,o),
(643,86,o),
(643,290,cs),
(643,730,l),
(533,730,l),
(533,310,ls),
(533,149,o),
(485,90,o),
(353,90,cs),
(221,90,o),
(173,149,o),
(173,310,cs),
(173,730,l),
(63,730,l),
(63,290,ls),
(63,86,o),
(156,-10,o),
(353,-10,cs)
);
}
);
width = 706;
},
{
anchors = (
{
name = bottom;
pos = (364,0);
},
{
name = ogonek;
pos = (447,0);
},
{
name = top;
pos = (364,730);
},
{
name = top_ring;
pos = (364,720);
},
{
name = topright;
pos = (594,690);
}
);
layerId = "9E6B41AB-2970-4C41-8B35-4DBE0D296A43";
shapes = (
{
closed = 1;
nodes = (
(573,-10,o),
(674,91,o),
(674,300,cs),
(674,730,l),
(474,730,l),
(474,340,ls),
(474,198,o),
(451,160,o),
(364,160,cs),
(277,160,o),
(254,198,o),
(254,340,cs),
(254,730,l),
(54,730,l),
(54,300,ls),
(54,91,o),
(155,-10,o),
(364,-10,cs)
);
}
);
width = 728;
}
);
metricLeft = "=H*.9";
metricRight = "=|";
unicode = 85;
},
{
color = 10;
glyphname = Uogonek;
kernLeft = U;
kernRight = U;
lastChange = "2025-03-17 02:52:50 +0000";
layers = (
{
layerId = "D65C9A1E-0FCA-4B2D-8EDF-9F36CA9182A1";
shapes = (
{
closed = 1;
nodes = (
(410,-220,o),
(432,-214,o),
(450,-203,c),
(442,-185,l),
(423,-195,o),
(404,-200,o),
(386,-200,cs),
(338,-200,o),
(313,-178,o),
(313,-135,cs),
(313,-90,o),
(349,-23,o),
(475,3,c),
(466.333,20.334,l),
(333.45,-9.713,o),
(293,-81.025,o),
(293,-135,cs),
(293,-191,o),
(325,-220,o),
(386,-220,cs)
);
},
{
ref = U;
}
);
width = 738;
},
{
layerId = "9527F797-22C1-480E-A1FE-2CDBEBE1FD4C";
shapes = (
{
closed = 1;
nodes = (
(408,-217,o),
(434,-213,o),
(457,-205,c),
(440,-120,l),
(427,-127,o),
(413,-130,o),
(398,-130,cs),
(373,-130,o),
(360,-117,o),
(360,-93,cs),
(360,-67,o),
(395,-19,o),
(455,-2,c),
(348.434,25.767,l),
(288.517,-9.633,o),
(258,-61.707,o),
(258,-107,cs),
(258,-177,o),
(302,-217,o),
(379,-217,cs)
);
},
{
ref = U;
}
);
width = 734;
},
{
layerId = "9E6B41AB-2970-4C41-8B35-4DBE0D296A43";
shapes = (
{
closed = 1;
nodes = (
(448,-220,o),
(472,-217,o),
(495,-210,c),
(480,-75,l),
(465,-81,o),
(446,-85,o),
(432,-85,cs),
(404,-85,o),
(391,-75,o),
(391,-53,cs),
(391,-32,o),
(407,-17,o),
(443,-4,c),
(306.357,46.129,l),
(242.847,0.673,o),
(215,-36.13,o),
(215,-82,cs),
(215,-170,o),
(288,-220,o),
(420,-220,cs)
);
},
{
ref = U;
}
);
width = 728;
}
);
unicode = 370;
},
{
glyphname = V;
kernLeft = V;
kernRight = V;
lastChange = "2026-04-14 08:25:37 +0000";
layers = (
{
layerId = "D65C9A1E-0FCA-4B2D-8EDF-9F36CA9182A1";
shapes = (
{
closed = 1;
nodes = (
(353,0,l),
(658,730,l),
(636,730,l),
(339,18,l),
(337,18,l),
(40,730,l),
(18,730,l),
(323,0,l)
);
}
);
width = 676;
},
{
layerId = "9527F797-22C1-480E-A1FE-2CDBEBE1FD4C";
shapes = (
{
closed = 1;
nodes = (
(417,0,l),
(680,730,l),
(559,730,l),
(346,110,l),
(344,110,l),
(131,730,l),
(10,730,l),
(273,0,l)
);
}
);
width = 690;
},
{
layerId = "9E6B41AB-2970-4C41-8B35-4DBE0D296A43";
shapes = (
{
closed = 1;
nodes = (
(486,0,l),
(706,730,l),
(486,730,l),
(357,200,l),
(355,200,l),
(226,730,l),
(6,730,l),
(226,0,l)
);
}
);
width = 712;
}
);
metricLeft = "=A";
metricRight = "=|";
unicode = 86;
},
{
glyphname = W;
kernLeft = W;
kernRight = W;
lastChange = "2026-04-14 08:26:57 +0000";
layers = (
{
layerId = "9527F797-22C1-480E-A1FE-2CDBEBE1FD4C";
metricLeft = "=V*2";
name = Medium;
shapes = (
{
closed = 1;
nodes = (
(360,0,l),
(378,171,o),
(438,350,o),
(532,514,c),
(430,565,l),
(358,418,o),
(310,279,o),
(278,126,c),
(276,126,l),
(140,730,l),
(20,730,l),
(202,0,l)
);
},
{
closed = 1;
nodes = (
(718,0,l),
(900,730,l),
(780,730,l),
(644,126,l),
(642,126,l),
(479,730,l),
(363,730,l),
(572,0,l)
);
}
);
width = 920;
},
{
background = {
shapes = (
{
closed = 0;
nodes = (
(259,17,l),
(257,17,l),
(39,730,l),
(18,730,l),
(241,0,l),
(275,0,l)
);
},
{
closed = 1;
nodes = (
(655,0,l),
(878,730,l),
(857,730,l),
(639,17,l),
(637,17,l),
(392,730,l),
(370,730,l),
(623,0,l)
);
},
{
attr = {
strokeWidth = 20;
};
closed = 0;
nodes = (
(266,2,l),
(303,186,o),
(363,356,o),
(452,530,c)
);
}
);
};
layerId = "D65C9A1E-0FCA-4B2D-8EDF-9F36CA9182A1";
metricLeft = "=V*1";
name = Thin;
shapes = (
{
closed = 1;
nodes = (
(276,0,l),
(313,184,o),
(372,351,o),
(461,525,c),
(443,535,l),
(356,365,o),
(296,195,o),
(259,17,c),
(257,17,l),
(39,730,l),
(18,730,l),
(241,0,l)
);
},
{
closed = 1;
nodes = (
(655,0,l),
(878,730,l),
(857,730,l),
(639,17,l),
(637,17,l),
(392,730,l),
(370,730,l),
(623,0,l)
);
}
);
width = 896;
},
{
layerId = "9E6B41AB-2970-4C41-8B35-4DBE0D296A43";
metricLeft = "=V*3";
name = Black;
shapes = (
{
closed = 1;
nodes = (
(408,0,l),
(408,155,o),
(474,350,o),
(578,502,c),
(405,571,l),
(346,445,o),
(313,347,o),
(284,210,c),
(282,210,l),
(232,730,l),
(18,730,l),
(158,0,l)
);
},
{
closed = 1;
nodes = (
(778,0,l),
(918,730,l),
(704,730,l),
(654,210,l),
(652,210,l),
(553,730,l),
(355,730,l),
(528,0,l)
);
}
);
width = 936;
}
);
metricLeft = "=V*3";
metricRight = "=|";
unicode = 87;
},
{
glyphname = X;
kernLeft = X;
kernRight = X;
lastChange = "2026-04-14 07:48:36 +0000";
layers = (
{
layerId = "D65C9A1E-0FCA-4B2D-8EDF-9F36CA9182A1";
shapes = (
{
closed = 1;
nodes = (
(43,0,l),
(307,351,l),
(309,351,l),
(573,0,l),
(598,0,l),
(320,369,l),
(592,730,l),
(567,730,l),
(309,387,l),
(307,387,l),
(49,730,l),
(24,730,l),
(296,369,l),
(18,0,l)
);
}
);
width = 616;
},
{
layerId = "9527F797-22C1-480E-A1FE-2CDBEBE1FD4C";
shapes = (
{
closed = 1;
nodes = (
(139,0,l),
(323,304,l),
(325,304,l),
(509,0,l),
(634,0,l),
(405,367,l),
(631,730,l),
(506,730,l),
(325,431,l),
(323,431,l),
(142,730,l),
(17,730,l),
(243,367,l),
(14,0,l)
);
}
);
width = 648;
},
{
layerId = "9E6B41AB-2970-4C41-8B35-4DBE0D296A43";
shapes = (
{
closed = 1;
nodes = (
(237,0,l),
(341,255,l),
(343,255,l),
(447,0,l),
(672,0,l),
(492,365,l),
(672,730,l),
(447,730,l),
(343,475,l),
(341,475,l),
(237,730,l),
(12,730,l),
(192,365,l),
(12,0,l)
);
}
);
width = 684;
},
{
associatedMasterId = "D65C9A1E-0FCA-4B2D-8EDF-9F36CA9182A1";
layerId = "D07213C9-AD3A-4046-B55D-9C0D3EF904FB";
name = "Apr 12, 25 at 10:22";
shapes = (
{
closed = 1;
nodes = (
(98,0,l),
(362,351,l),
(364,351,l),
(628,0,l),
(653,0,l),
(375,369,l),
(647,730,l),
(622,730,l),
(364,387,l),
(362,387,l),
(104,730,l),
(79,730,l),
(351,369,l),
(73,0,l)
);
}
);
width = 726;
}
);
metricLeft = "=|K*2";
metricRight = "=|";
unicode = 88;
},
{
glyphname = Y;
kernLeft = Y;
kernRight = Y;
lastChange = "2026-04-14 08:27:51 +0000";
layers = (
{
anchors = (
{
name = bottom;
pos = (331,0);
},
{
name = top;
pos = (331,730);
},
{
name = topleft;
pos = (39,730);
}
);
layerId = "D65C9A1E-0FCA-4B2D-8EDF-9F36CA9182A1";
shapes = (
{
closed = 1;
nodes = (
(341,0,l),
(341,297,l),
(651,730,l),
(626,730,l),
(332,318,l),
(330,318,l),
(36,730,l),
(11,730,l),
(321,297,l),
(321,0,l)
);
}
);
width = 662;
},
{
anchors = (
{
name = bottom;
pos = (341,0);
},
{
name = top;
pos = (341,730);
},
{
name = topleft;
pos = (28,730);
}
);
layerId = "9527F797-22C1-480E-A1FE-2CDBEBE1FD4C";
shapes = (
{
closed = 1;
nodes = (
(398,0,l),
(398,274,l),
(676,730,l),
(550,730,l),
(342,373,l),
(340,373,l),
(132,730,l),
(6,730,l),
(284,274,l),
(284,0,l)
);
}
);
width = 682;
},
{
anchors = (
{
name = bottom;
pos = (354,0);
},
{
name = top;
pos = (354,730);
},
{
name = topleft;
pos = (20,730);
}
);
layerId = "9E6B41AB-2970-4C41-8B35-4DBE0D296A43";
shapes = (
{
closed = 1;
nodes = (
(459,0,l),
(459,250,l),
(704,730,l),
(484,730,l),
(355,420,l),
(353,420,l),
(224,730,l),
(4,730,l),
(249,250,l),
(249,0,l)
);
}
);
width = 708;
}
);
metricLeft = "=V*.6";
metricRight = "=|";
unicode = 89;
},
{
glyphname = Z;
kernLeft = Z;
kernRight = Z;
lastChange = "2026-04-11 06:34:13 +0000";
layers = (
{
anchors = (
{
name = bottom;
pos = (322,0);
},
{
name = center;
pos = (322,365);
},
{
name = top;
pos = (322,730);
}
);
layerId = "D65C9A1E-0FCA-4B2D-8EDF-9F36CA9182A1";
shapes = (
{
closed = 1;
nodes = (
(572,0,l),
(572,20,l),
(97,20,l),
(97,22,l),
(572,710,l),
(572,730,l),
(72,730,l),
(72,710,l),
(547,710,l),
(547,708,l),
(72,20,l),
(72,0,l)
);
}
);
width = 644;
},
{
anchors = (
{
name = bottom;
pos = (316,0);
},
{
name = center;
pos = (316,365);
},
{
name = top;
pos = (316,730);
}
);
layerId = "9527F797-22C1-480E-A1FE-2CDBEBE1FD4C";
shapes = (
{
closed = 1;
nodes = (
(576,0,l),
(576,100,l),
(191,100,l),
(191,102,l),
(576,630,l),
(576,730,l),
(56,730,l),
(56,630,l),
(441,630,l),
(441,628,l),
(56,100,l),
(56,0,l)
);
}
);
width = 632;
},
{
anchors = (
{
name = bottom;
pos = (318,0);
},
{
name = center;
pos = (318,365);
},
{
name = top;
pos = (318,730);
}
);
layerId = "9E6B41AB-2970-4C41-8B35-4DBE0D296A43";
shapes = (
{
closed = 1;
nodes = (
(588,0,l),
(588,165,l),
(283,165,l),
(283,167,l),
(588,565,l),
(588,730,l),
(48,730,l),
(48,565,l),
(353,565,l),
(353,563,l),
(48,165,l),
(48,0,l)
);
}
);
width = 636;
}
);
metricLeft = "=H*.8";
metricRight = "=|";
unicode = 90;
},
{
glyphname = Q.002;
kernLeft = O;
kernRight = O;
lastChange = "2026-04-06 07:13:20 +0000";
layers = (
{
layerId = "D65C9A1E-0FCA-4B2D-8EDF-9F36CA9182A1";
metricRight = "=O-20";
shapes = (
{
closed = 1;
nodes = (
(543,-10,o),
(662,-56,o),
(735,-146,c),
(751,-132,l),
(690,-61,o),
(603,-17,o),
(493,1,c),
(493,3,l),
(642,42,o),
(725,169,o),
(725,365,cs),
(725,604,o),
(602,740,o),
(385,740,cs),
(168,740,o),
(45,604,o),
(45,365,cs),
(45,126,o),
(168,-10,o),
(385,-10,cs)
);
},
{
closed = 1;
nodes = (
(180,10,o),
(65,137,o),
(65,365,cs),
(65,593,o),
(180,720,o),
(385,720,cs),
(590,720,o),
(705,593,o),
(705,365,cs),
(705,137,o),
(590,10,o),
(385,10,cs)
);
}
);
width = 776;
},
{
layerId = "9E6B41AB-2970-4C41-8B35-4DBE0D296A43";
metricRight = "=O-14";
shapes = (
{
closed = 1;
nodes = (
(521,-10,o),
(572,-50,o),
(630,-190,c),
(790,-100,l),
(761,-30,o),
(709,36,o),
(657,69,c),
(657,71,l),
(731,134,o),
(770,234,o),
(770,365,cs),
(770,606,o),
(638,740,o),
(400,740,cs),
(162,740,o),
(30,606,o),
(30,365,cs),
(30,124,o),
(162,-10,o),
(400,-10,cs)
);
},
{
closed = 1;
nodes = (
(294,160,o),
(235,233,o),
(235,365,cs),
(235,497,o),
(294,570,o),
(400,570,cs),
(506,570,o),
(565,497,o),
(565,365,cs),
(565,233,o),
(506,160,o),
(400,160,cs)
);
}
);
width = 806;
},
{
layerId = "9527F797-22C1-480E-A1FE-2CDBEBE1FD4C";
metricRight = "=O-17";
shapes = (
{
closed = 1;
nodes = (
(523,-10,o),
(606,-56,o),
(675,-168,c),
(763,-116,l),
(720,-46,o),
(655,8,o),
(585,33,c),
(585,35,l),
(689,93,o),
(745,206,o),
(745,365,cs),
(745,605,o),
(617,740,o),
(390,740,cs),
(163,740,o),
(35,605,o),
(35,365,cs),
(35,125,o),
(163,-10,o),
(390,-10,cs)
);
},
{
closed = 1;
nodes = (
(235,90,o),
(148,189,o),
(148,365,cs),
(148,541,o),
(235,640,o),
(390,640,cs),
(545,640,o),
(632,541,o),
(632,365,cs),
(632,189,o),
(545,90,o),
(390,90,cs)
);
}
);
width = 781;
}
);
metricLeft = "=O";
metricRight = "=O-20";
},
{
color = 4;
export = 0;
glyphname = J.001;
kernLeft = J;
kernRight = U;
lastChange = "2026-04-05 06:50:34 +0000";
layers = (
{
anchors = (
{
name = bottom;
pos = (90,0);
},
{
name = top;
pos = (90,730);
}
);
background = {
anchors = (
{
name = bottom;
pos = (88,0);
},
{
name = top;
pos = (88,730);
}
);
};
layerId = "9527F797-22C1-480E-A1FE-2CDBEBE1FD4C";
metricLeft = "=-130";
shapes = (
{
closed = 1;
nodes = (
(178,-102,o),
(290,16,o),
(290,290,cs),
(290,730,l),
(177,730,l),
(177,311,ls),
(177,70,o),
(109,-7,o),
(-130,-39,c),
(-113,-133,l)
);
}
);
width = 353;
},
{
anchors = (
{
name = bottom;
pos = (51,0);
},
{
name = top;
pos = (51,730);
}
);
layerId = "9E6B41AB-2970-4C41-8B35-4DBE0D296A43";
metricLeft = "=-120";
shapes = (
{
closed = 1;
nodes = (
(221,-118,o),
(340,8,o),
(340,300,cs),
(340,730,l),
(135,730,l),
(135,341,ls),
(135,105,o),
(95,54,o),
(-120,18,c),
(-87,-150,l)
);
}
);
width = 394;
},
{
anchors = (
{
name = bottom;
pos = (129,0);
},
{
name = top;
pos = (129,730);
}
);
layerId = "D65C9A1E-0FCA-4B2D-8EDF-9F36CA9182A1";
metricLeft = "=-140";
shapes = (
{
closed = 1;
nodes = (
(134,-87,o),
(240,24,o),
(240,280,cs),
(240,730,l),
(220,730,l),
(220,280,ls),
(220,35,o),
(123,-68,o),
(-140,-96,c),
(-138,-116,l)
);
}
);
width = 321;
}
);
metricLeft = "=H*10.01";
metricRight = "=U";
},
{
color = 4;
export = 0;
glyphname = J.002;
kernLeft = J;
kernRight = U;
lastChange = "2026-04-16 04:29:33 +0000";
layers = (
{
anchors = (
{
name = bottom;
pos = (203,0);
},
{
name = top;
pos = (203,730);
}
);
layerId = "9527F797-22C1-480E-A1FE-2CDBEBE1FD4C";
shapes = (
{
closed = 1;
nodes = (
(179,-92,o),
(270,22,o),
(270,290,cs),
(270,730,l),
(158,730,l),
(158,311,ls),
(158,75,o),
(100,-4,o),
(-100,-37,c),
(-70,-133,l)
);
}
);
width = 333;
},
{
anchors = (
{
name = bottom;
pos = (190,0);
},
{
name = top;
pos = (190,730);
}
);
layerId = "D65C9A1E-0FCA-4B2D-8EDF-9F36CA9182A1";
shapes = (
{
closed = 1;
nodes = (
(124,-87,o),
(210,25,o),
(210,280,cs),
(210,730,l),
(190,730,l),
(190,280,ls),
(190,34,o),
(111,-68,o),
(-100,-96,c),
(-97,-116,l)
);
}
);
width = 291;
},
{
anchors = (
{
name = bottom;
pos = (241,0);
},
{
name = top;
pos = (215,730);
}
);
layerId = "9E6B41AB-2970-4C41-8B35-4DBE0D296A43";
name = Black;
shapes = (
{
closed = 1;
nodes = (
(236,-96,o),
(330,18,o),
(330,300,cs),
(330,730,l),
(125,730,l),
(125,341,ls),
(125,109,o),
(87,54,o),
(-100,16,c),
(-42,-150,l)
);
}
);
width = 384;
}
);
metricLeft = "=-100";
metricRight = "=U";
},
{
color = 4;
export = 0;
glyphname = K.001;
kernLeft = H;
kernRight = K;
lastChange = "2026-04-02 03:47:39 +0000";
layers = (
{
associatedMasterId = "9E6B41AB-2970-4C41-8B35-4DBE0D296A43";
background = {
anchors = (
{
name = bottom;
pos = (346,0);
},
{
name = top;
pos = (346,730);
}
);
shapes = (
{
closed = 1;
nodes = (
(256,0,l),
(256,335,l),
(258,335,l),
(486,0,l),
(716,0,l),
(461,375,l),
(706,730,l),
(476,730,l),
(258,415,l),
(256,415,l),
(256,730,l),
(56,730,l),
(56,0,l)
);
}
);
};
layerId = "74B16B26-FC8B-40CD-A839-9E9509486C55";
metricRight = "=H*.2";
name = "Apr 11, 25 at 16:40";
shapes = (
{
closed = 1;
nodes = (
(361,231,l),
(706,730,l),
(476,730,l),
(189,315,l),
(183,79,l),
(361,400,l)
);
},
{
closed = 1;
nodes = (
(256,730,l),
(56,730,l),
(56,0,l),
(256,0,l)
);
},
{
closed = 1;
nodes = (
(208,408,l),
(486,0,l),
(716,0,l),
(438,408,l)
);
}
);
width = 727;
},
{
anchors = (
{
name = bottom;
pos = (291,0);
},
{
name = top;
pos = (291,730);
}
);
associatedMasterId = "9E6B41AB-2970-4C41-8B35-4DBE0D296A43";
background = {
shapes = (
{
closed = 1;
nodes = (
(361,281,l),
(706,730,l),
(476,730,l),
(189,365,l),
(183,109,l),
(329,299,l)
);
},
{
closed = 1;
nodes = (
(256,730,l),
(56,730,l),
(56,0,l),
(256,0,l)
);
},
{
closed = 1;
nodes = (
(208,408,l),
(486,0,l),
(716,0,l),
(438,408,l)
);
}
);
};
layerId = "36A3F5DB-30D6-49CE-BB2A-D45D13774B71";
metricRight = "=H*.2";
name = "Apr 11, 25 at 17:04";
shapes = (
{
closed = 1;
nodes = (
(256,0,l),
(256,204,l),
(304,267,l),
(306,267,l),
(486,0,l),
(716,0,l),
(448,394,l),
(706,730,l),
(476,730,l),
(258,450,l),
(256,450,l),
(256,730,l),
(56,730,l),
(56,0,l)
);
}
);
width = 727;
},
{
anchors = (
{
name = bottom;
pos = (350,0);
},
{
name = top;
pos = (350,730);
}
);
layerId = "9E6B41AB-2970-4C41-8B35-4DBE0D296A43";
metricRight = "=H*.2";
name = Black;
shapes = (
{
closed = 1;
nodes = (
(260,0,l),
(260,335,l),
(262,335,l),
(490,0,l),
(720,0,l),
(465,375,l),
(710,730,l),
(480,730,l),
(262,415,l),
(260,415,l),
(260,730,l),
(60,730,l),
(60,0,l)
);
}
);
width = 732;
},
{
anchors = (
{
name = bottom;
pos = (291,0);
},
{
name = top;
pos = (291,730);
}
);
associatedMasterId = "9527F797-22C1-480E-A1FE-2CDBEBE1FD4C";
layerId = "1202AA95-D1E0-4ECB-83CF-293744AB635B";
metricRight = "=H*.25";
name = "Apr 11, 25 at 17:04";
shapes = (
{
closed = 1;
nodes = (
(176,0,l),
(176,267,l),
(227,319,l),
(227,319,l),
(530,0,l),
(666,0,l),
(310,392,l),
(656,730,l),
(520,730,l),
(178,408,l),
(176,408,l),
(176,730,l),
(66,730,l),
(66,0,l)
);
}
);
width = 683;
},
{
anchors = (
{
name = bottom;
pos = (323,0);
},
{
name = top;
pos = (323,730);
}
);
layerId = "9527F797-22C1-480E-A1FE-2CDBEBE1FD4C";
metricRight = "=H*.25";
name = Medium;
shapes = (
{
closed = 1;
nodes = (
(180,0,l),
(180,351,l),
(182,351,l),
(530,0,l),
(670,0,l),
(291,382,l),
(660,730,l),
(520,730,l),
(182,413,l),
(180,413,l),
(180,730,l),
(70,730,l),
(70,0,l)
);
}
);
width = 687;
},
{
anchors = (
{
name = bottom;
pos = (291,0);
},
{
name = top;
pos = (291,730);
}
);
associatedMasterId = "D65C9A1E-0FCA-4B2D-8EDF-9F36CA9182A1";
background = {
shapes = (
{
closed = 1;
nodes = (
(89,324,l),
(606,730,l),
(574,730,l),
(78,341,l)
);
},
{
closed = 1;
nodes = (
(96,0,l),
(96,730,l),
(76,730,l),
(76,0,l)
);
},
{
closed = 1;
nodes = (
(616,0,l),
(159,400,l),
(147,384,l),
(586,0,l)
);
}
);
};
layerId = "0A857586-0A11-411C-87CA-5A5FE0AC6186";
metricRight = "=H*.3";
name = "Apr 11, 25 at 17:05";
shapes = (
{
closed = 1;
nodes = (
(96,0,l),
(96,329,l),
(156,376,l),
(156,376,l),
(586,0,l),
(616,0,l),
(172,389,l),
(606,730,l),
(574,730,l),
(98,356,l),
(96,356,l),
(96,730,l),
(76,730,l),
(76,0,l)
);
}
);
width = 639;
},
{
anchors = (
{
name = bottom;
pos = (305,0);
},
{
name = top;
pos = (305,730);
}
);
layerId = "D65C9A1E-0FCA-4B2D-8EDF-9F36CA9182A1";
metricRight = "=H*.3";
name = Thin;
shapes = (
{
closed = 1;
nodes = (
(110,0,l),
(110,376,l),
(112,376,l),
(598,0,l),
(630,0,l),
(126,390,l),
(620,730,l),
(586,730,l),
(112,404,l),
(110,404,l),
(110,730,l),
(90,730,l),
(90,0,l)
);
}
);
width = 657;
}
);
metricLeft = "=H";
metricRight = "=H*.2";
},
{
color = 4;
export = 0;
glyphname = M.001;
kernLeft = M;
kernRight = M;
lastChange = "2026-04-02 09:08:31 +0000";
layers = (
{
layerId = "9527F797-22C1-480E-A1FE-2CDBEBE1FD4C";
metricLeft = "=A*3.5";
shapes = (
{
closed = 1;
nodes = (
(147,0,l),
(191,587,l),
(193,587,l),
(236,386,o),
(294,220,o),
(386,35,c),
(465,100,l),
(360,336,o),
(295,544,o),
(268,730,c),
(103,730,l),
(35,0,l)
);
},
{
closed = 1;
nodes = (
(453,0,l),
(647,587,l),
(649,587,l),
(693,0,l),
(805,0,l),
(737,730,l),
(592,730,l),
(341,0,l)
);
}
);
width = 840;
},
{
layerId = "9E6B41AB-2970-4C41-8B35-4DBE0D296A43";
metricLeft = "=A*4.0";
shapes = (
{
closed = 1;
nodes = (
(224,0,l),
(252,471,l),
(254,471,l),
(290,292,o),
(324,178,o),
(387,24,c),
(516,102,l),
(415,370,o),
(361,577,o),
(352,730,c),
(92,730,l),
(24,0,l)
);
},
{
closed = 1;
nodes = (
(519,0,l),
(613,471,l),
(615,471,l),
(644,0,l),
(844,0,l),
(776,730,l),
(516,730,l),
(331,0,l)
);
}
);
width = 868;
},
{
background = {
shapes = (
{
closed = 1;
nodes = (
(152,730,l),
(122,730,l),
(54,0,l),
(74,0,l),
(139,707,l),
(141,707,l)
);
},
{
closed = 1;
nodes = (
(388,0,l),
(687,707,l),
(689,707,l),
(754,0,l),
(774,0,l),
(706,730,l),
(676,730,l),
(366,0,l)
);
},
{
attr = {
strokeWidth = 20;
};
closed = 0;
nodes = (
(403,54,l),
(280,276,o),
(196,497,o),
(147,728,c)
);
}
);
};
layerId = "D65C9A1E-0FCA-4B2D-8EDF-9F36CA9182A1";
metricLeft = "=A*3.0";
name = Thin;
shapes = (
{
closed = 1;
nodes = (
(74,0,l),
(139,707,l),
(141,707,l),
(190,484,o),
(275,264,o),
(394,49,c),
(412,59,l),
(289,281,o),
(206,499,o),
(157,730,c),
(122,730,l),
(54,0,l)
);
},
{
closed = 1;
nodes = (
(388,0,l),
(687,707,l),
(689,707,l),
(754,0,l),
(774,0,l),
(706,730,l),
(676,730,l),
(366,0,l)
);
}
);
width = 828;
}
);
metricLeft = "=H";
metricRight = "=|";
},
{
color = 4;
export = 0;
glyphname = M.002;
kernLeft = M;
kernRight = M;
lastChange = "2026-04-02 09:28:01 +0000";
layers = (
{
background = {
shapes = (
{
closed = 1;
nodes = (
(152,730,l),
(122,730,l),
(54,0,l),
(74,0,l),
(139,707,l),
(141,707,l)
);
},
{
closed = 1;
nodes = (
(388,0,l),
(687,707,l),
(689,707,l),
(754,0,l),
(774,0,l),
(706,730,l),
(676,730,l),
(366,0,l)
);
},
{
attr = {
strokeWidth = 20;
};
closed = 0;
nodes = (
(403,54,l),
(280,276,o),
(196,497,o),
(147,728,c)
);
}
);
};
layerId = "D65C9A1E-0FCA-4B2D-8EDF-9F36CA9182A1";
metricLeft = "=A*3.0";
shapes = (
{
closed = 1;
nodes = (
(74,0,l),
(139,707,l),
(141,707,l),
(410,71,l),
(417,106,l),
(152,730,l),
(122,730,l),
(54,0,l)
);
},
{
closed = 1;
nodes = (
(388,0,l),
(687,707,l),
(689,707,l),
(754,0,l),
(774,0,l),
(706,730,l),
(676,730,l),
(366,0,l)
);
}
);
width = 828;
},
{
layerId = "9527F797-22C1-480E-A1FE-2CDBEBE1FD4C";
metricLeft = "=A*3.5";
shapes = (
{
closed = 1;
nodes = (
(147,0,l),
(191,587,l),
(193,587,l),
(388,27,l),
(467,83,l),
(248,730,l),
(103,730,l),
(35,0,l)
);
},
{
closed = 1;
nodes = (
(453,0,l),
(647,587,l),
(649,587,l),
(693,0,l),
(805,0,l),
(737,730,l),
(592,730,l),
(341,0,l)
);
}
);
width = 840;
},
{
layerId = "9E6B41AB-2970-4C41-8B35-4DBE0D296A43";
metricLeft = "=A*4.0";
name = Black;
shapes = (
{
closed = 1;
nodes = (
(224,0,l),
(253,471,l),
(255,471,l),
(383,25,l),
(510,112,l),
(352,730,l),
(92,730,l),
(24,0,l)
);
},
{
closed = 1;
nodes = (
(499,0,l),
(613,471,l),
(615,471,l),
(644,0,l),
(844,0,l),
(776,730,l),
(516,730,l),
(311,0,l)
);
}
);
width = 868;
}
);
metricLeft = "=H";
metricRight = "=|";
},
{
color = 4;
export = 0;
glyphname = Q.001;
kernLeft = O;
kernRight = O;
lastChange = "2026-04-02 03:47:39 +0000";
layers = (
{
layerId = "D65C9A1E-0FCA-4B2D-8EDF-9F36CA9182A1";
metricRight = "=O";
shapes = (
{
closed = 1;
nodes = (
(781,-102,l),
(720,-46,o),
(631,-11,o),
(518,2,c),
(518,4,l),
(681,47,o),
(785,187,o),
(785,365,cs),
(785,583,o),
(630,740,o),
(415,740,cs),
(200,740,o),
(45,583,o),
(45,365,cs),
(45,147,o),
(200,-10,o),
(415,-10,cs),
(573,-10,o),
(692,-46,o),
(765,-116,c)
);
},
{
closed = 1;
nodes = (
(211,10,o),
(65,158,o),
(65,365,cs),
(65,572,o),
(211,720,o),
(415,720,cs),
(619,720,o),
(765,572,o),
(765,365,cs),
(765,158,o),
(619,10,o),
(415,10,cs)
);
}
);
width = 830;
},
{
layerId = "9E6B41AB-2970-4C41-8B35-4DBE0D296A43";
metricRight = "=O-12";
shapes = (
{
closed = 1;
nodes = (
(800,-40,l),
(769,9,o),
(711,55,o),
(656,74,c),
(656,76,l),
(745,145,o),
(790,242,o),
(790,365,cs),
(790,591,o),
(639,740,o),
(410,740,cs),
(181,740,o),
(30,591,o),
(30,365,cs),
(30,139,o),
(181,-10,o),
(410,-10,cs),
(521,-10,o),
(572,-41,o),
(640,-150,c)
);
},
{
closed = 1;
nodes = (
(304,160,o),
(235,241,o),
(235,365,cs),
(235,489,o),
(304,570,o),
(410,570,cs),
(516,570,o),
(585,489,o),
(585,365,cs),
(585,241,o),
(516,160,o),
(410,160,cs)
);
}
);
width = 818;
},
{
layerId = "9527F797-22C1-480E-A1FE-2CDBEBE1FD4C";
metricRight = "=O-11";
shapes = (
{
closed = 1;
nodes = (
(788,-71,l),
(742,-19,o),
(668,22,o),
(584,38,c),
(584,40,l),
(714,97,o),
(785,214,o),
(785,365,cs),
(785,587,o),
(632,740,o),
(410,740,cs),
(188,740,o),
(35,587,o),
(35,365,cs),
(35,143,o),
(188,-10,o),
(410,-10,cs),
(544,-10,o),
(629,-44,o),
(700,-133,c)
);
},
{
closed = 1;
nodes = (
(255,90,o),
(148,202,o),
(148,365,cs),
(148,528,o),
(255,640,o),
(410,640,cs),
(565,640,o),
(672,528,o),
(672,365,cs),
(672,202,o),
(565,90,o),
(410,90,cs)
);
}
);
width = 812;
}
);
metricLeft = "=O";
metricRight = "=O-12";
},
{
color = 4;
export = 0;
glyphname = R.001;
kernLeft = H;
kernRight = R;
lastChange = "2026-04-02 03:47:39 +0000";
layers = (
{
anchors = (
{
name = bottom;
pos = (330,0);
},
{
name = top;
pos = (330,730);
}
);
layerId = "9527F797-22C1-480E-A1FE-2CDBEBE1FD4C";
shapes = (
{
closed = 1;
nodes = (
(70,0,l),
(180,0,l),
(180,688,l),
(127,627,l),
(201,636,o),
(251,640,o),
(295,640,cs),
(431,640,o),
(488,602,o),
(488,512,cs),
(488,422,o),
(431,384,o),
(295,384,cs),
(251,384,o),
(201,388,o),
(127,397,c),
(108,298,l),
(169,292,o),
(238,288,o),
(290,288,cs),
(505,288,o),
(600,357,o),
(600,514,cs),
(600,671,o),
(505,740,o),
(290,740,cs),
(227,740,o),
(139,734,o),
(70,726,c)
);
},
{
closed = 1;
nodes = (
(640,0,l),
(264,345,l),
(125,345,l),
(496,0,l)
);
}
);
width = 668;
},
{
anchors = (
{
name = bottom;
pos = (357,0);
},
{
name = top;
pos = (347,730);
}
);
layerId = "9E6B41AB-2970-4C41-8B35-4DBE0D296A43";
shapes = (
{
closed = 1;
nodes = (
(60,0,l),
(260,0,l),
(260,660,l),
(170,566,l),
(219,574,o),
(286,580,o),
(322,580,cs),
(400,580,o),
(435,552,o),
(435,489,cs),
(435,426,o),
(400,398,o),
(322,398,cs),
(286,398,o),
(219,404,o),
(170,412,c),
(162,258,l),
(207,255,o),
(268,252,o),
(312,252,cs),
(537,252,o),
(640,329,o),
(640,496,cs),
(640,663,o),
(537,740,o),
(312,740,cs),
(251,740,o),
(145,734,o),
(60,726,c)
);
},
{
closed = 1;
nodes = (
(690,0,l),
(421,327,l),
(203,327,l),
(462,0,l)
);
}
);
width = 714;
},
{
anchors = (
{
name = bottom;
pos = (312,0);
},
{
name = top;
pos = (302,730);
}
);
layerId = "D65C9A1E-0FCA-4B2D-8EDF-9F36CA9182A1";
shapes = (
{
closed = 1;
nodes = (
(90,0,l),
(110,0,l),
(110,716,l),
(93,706,l),
(170,716,o),
(223,720,o),
(277,720,cs),
(472,720,o),
(550,667,o),
(550,540,cs),
(550,413,o),
(472,360,o),
(277,360,cs),
(223,360,o),
(174,364,o),
(101,373,c),
(98,353,l),
(172,344,o),
(224,340,o),
(277,340,cs),
(482,340,o),
(570,400,o),
(570,540,cs),
(570,680,o),
(482,740,o),
(277,740,cs),
(218,740,o),
(161,735,o),
(90,726,c)
);
},
{
closed = 1;
nodes = (
(600,0,l),
(130,363,l),
(97,363,l),
(567,0,l)
);
}
);
width = 636;
}
);
metricLeft = "=H";
metricRight = "=H*.4";
},
{
glyphname = a;
kernLeft = a;
kernRight = a;
lastChange = "2026-04-08 07:59:08 +0000";
layers = (
{
anchors = (
{
name = bottom;
pos = (265,0);
},
{
name = ogonek;
pos = (485,0);
},
{
name = top;
pos = (255,520);
}
);
layerId = "D65C9A1E-0FCA-4B2D-8EDF-9F36CA9182A1";
shapes = (
{
closed = 1;
nodes = (
(311,-10,o),
(386,45,o),
(418,128,c),
(420,128,l),
(425,82,o),
(439,43,o),
(468,-10,c),
(485,0,l),
(446,69,o),
(435,112,o),
(435,200,cs),
(435,325,ls),
(435,470,o),
(385,530,o),
(264,530,cs),
(192,530,o),
(114,512,o),
(57,481,c),
(67,463,l),
(120,492,o),
(194,510,o),
(264,510,cs),
(373,510,o),
(415,460,o),
(415,325,c),
(172,325,o),
(45,263,o),
(45,138,cs),
(45,49,o),
(113,-10,o),
(214,-10,cs)
);
},
{
closed = 1;
nodes = (
(123,10,o),
(65,61,o),
(65,138,cs),
(65,247,o),
(180,305,o),
(415,305,c),
(415,220,ls),
(415,97,o),
(330,10,o),
(214,10,cs)
);
}
);
width = 512;
},
{
anchors = (
{
name = bottom;
pos = (280,0);
},
{
name = ogonek;
pos = (525,1);
},
{
name = top;
pos = (270,520);
}
);
background = {
shapes = (
{
closed = 1;
nodes = (
(283,-10,o),
(337,15,o),
(383,69,c),
(385,69,l),
(392,42,o),
(402,19,o),
(420,-14,c),
(525,29,l),
(487,95,o),
(475,148,o),
(475,250,cs),
(474,328,ls),
(474,476,o),
(422,530,o),
(279,530,cs),
(196,530,o),
(111,512,o),
(48,481,c),
(67,394,l),
(125,423,o),
(193,440,o),
(257,440,cs),
(338,440,o),
(367,413,o),
(367,337,c),
(150,337,o),
(35,270,o),
(35,144,cs),
(35,48,o),
(101,-10,o),
(211,-10,cs)
);
},
{
closed = 1;
nodes = (
(177,78,o),
(143,108,o),
(143,156,cs),
(143,222,o),
(218,255,o),
(367,255,c),
(367,204,ls),
(367,132,o),
(309,78,o),
(232,78,cs)
);
}
);
};
layerId = "9527F797-22C1-480E-A1FE-2CDBEBE1FD4C";
shapes = (
{
closed = 1;
nodes = (
(283,-10,o),
(335,15,o),
(383,72,c),
(385,72,l),
(395,38,o),
(404,15,o),
(420,-14,c),
(525,29,l),
(487,95,o),
(475,148,o),
(475,250,cs),
(474,328,ls),
(474,476,o),
(422,530,o),
(279,530,cs),
(196,530,o),
(111,512,o),
(48,481,c),
(67,394,l),
(125,423,o),
(193,440,o),
(257,440,cs),
(338,440,o),
(367,413,o),
(367,337,c),
(150,337,o),
(35,270,o),
(35,144,cs),
(35,48,o),
(101,-10,o),
(211,-10,cs)
);
},
{
closed = 1;
nodes = (
(177,78,o),
(143,109,o),
(143,158,cs),
(143,224,o),
(218,257,o),
(367,257,c),
(367,204,ls),
(367,129,o),
(312,78,o),
(232,78,cs)
);
}
);
width = 542;
},
{
anchors = (
{
name = bottom;
pos = (300,0);
},
{
name = ogonek;
pos = (570,2);
},
{
name = top;
pos = (290,520);
}
);
layerId = "9E6B41AB-2970-4C41-8B35-4DBE0D296A43";
shapes = (
{
closed = 1;
nodes = (
(242,-10,o),
(304,19,o),
(342,65,c),
(344,65,l),
(353,32,o),
(364,5,o),
(378,-18,c),
(570,58,l),
(534,120,o),
(520,188,o),
(520,300,cs),
(520,330,ls),
(520,477,o),
(460,530,o),
(294,530,cs),
(200,530,o),
(114,513,o),
(42,480,c),
(72,344,l),
(132,374,o),
(196,390,o),
(255,390,cs),
(308,390,o),
(324,376,o),
(324,330,c),
(134,330,o),
(30,265,o),
(30,147,cs),
(30,55,o),
(93,-10,o),
(182,-10,cs)
);
},
{
closed = 1;
nodes = (
(226,125,o),
(206,143,o),
(206,170,cs),
(206,206,o),
(246,224,o),
(324,224,c),
(324,195,ls),
(324,152,o),
(298,125,o),
(256,125,cs)
);
}
);
width = 584;
},
{
anchors = (
{
name = bottom;
pos = (270,0);
},
{
name = ogonek;
pos = (499,0);
},
{
name = top;
pos = (260,520);
}
);
associatedMasterId = "D65C9A1E-0FCA-4B2D-8EDF-9F36CA9182A1";
attr = {
coordinates = (
232
);
};
background = {
anchors = (
{
name = bottom;
pos = (270,0);
},
{
name = ogonek;
pos = (499,0);
},
{
name = top;
pos = (260,520);
}
);
};
layerId = "51904E7D-07A9-4B4F-8153-155B1F9B55E2";
name = "Feb 27, 25 at 21:12";
shapes = (
{
closed = 1;
nodes = (
(298,-10,o),
(370,28,o),
(410,93,c),
(412,93,l),
(419,59,o),
(431,29,o),
(453,-11,c),
(499,10,l),
(460,78,o),
(449,125,o),
(449,217,cs),
(449,326,ls),
(449,472,o),
(398,530,o),
(269,530,cs),
(193,530,o),
(114,513,o),
(54,481,c),
(67,440,l),
(122,469,o),
(194,487,o),
(262,487,cs),
(362,487,o),
(400,444,o),
(400,329,c),
(165,329,o),
(42,266,o),
(42,140,cs),
(42,49,o),
(109,-10,o),
(214,-10,cs)
);
},
{
closed = 1;
nodes = (
(142,32,o),
(91,77,o),
(91,144,cs),
(91,239,o),
(193,289,o),
(400,289,c),
(400,214,ls),
(400,108,o),
(324,32,o),
(220,32,cs)
);
}
);
width = 520;
}
);
metricLeft = "=o";
metricRight = "=d*.6";
unicode = 97;
},
{
color = 10;
glyphname = ae;
kernLeft = a;
kernRight = o;
lastChange = "2026-04-09 09:05:23 +0000";
layers = (
{
anchors = (
{
name = bottom;
pos = (469,0);
},
{
name = top;
pos = (469,520);
}
);
layerId = "D65C9A1E-0FCA-4B2D-8EDF-9F36CA9182A1";
shapes = (
{
closed = 1;
nodes = (
(123,10,o),
(65,62,o),
(65,145,cs),
(65,249,o),
(159,305,o),
(339,305,cs),
(435,305,l),
(435,190,ls),
(435,89,o),
(341,10,o),
(221,10,cs)
);
},
{
closed = 1;
nodes = (
(352,-10,o),
(455,78,o),
(455,190,cs),
(455,325,ls),
(455,471,o),
(399,530,o),
(262,530,cs),
(195,530,o),
(138,517,o),
(88,490,c),
(99,474,l),
(145,498,o),
(198,510,o),
(262,510,cs),
(388,510,o),
(435,460,o),
(435,325,c),
(339,325,ls),
(148,325,o),
(45,262,o),
(45,145,cs),
(45,50,o),
(113,-10,o),
(221,-10,cs)
);
},
{
closed = 1;
nodes = (
(749,-13,o),
(815,8,o),
(865,47,c),
(853,63,l),
(806,26,o),
(745,7,o),
(677,7,cs),
(534,7,o),
(455,94,o),
(455,257,c),
(455,257,l),
(455,415,o),
(535,507,o),
(670,507,cs),
(798,507,o),
(865,425,o),
(865,265,c),
(875,275,l),
(445,275,l),
(445,255,l),
(885,255,l),
(885,260,o),
(885,260,o),
(885,265,cs),
(885,435,o),
(810,527,o),
(670,527,cs),
(523,527,o),
(435,425,o),
(435,257,cs),
(435,84,o),
(522,-13,o),
(677,-13,cs)
);
}
);
width = 930;
},
{
anchors = (
{
name = bottom;
pos = (460,0);
},
{
name = top;
pos = (460,520);
}
);
layerId = "9527F797-22C1-480E-A1FE-2CDBEBE1FD4C";
shapes = (
{
closed = 1;
nodes = (
(178,78,o),
(143,108,o),
(143,158,cs),
(143,223,o),
(204,256,o),
(327,256,cs),
(387,256,l),
(387,188,ls),
(387,127,o),
(322,78,o),
(241,78,cs)
);
},
{
closed = 1;
nodes = (
(384,-10,o),
(493,95,o),
(493,250,cs),
(493,328,ls),
(493,474,o),
(433,530,o),
(274,530,cs),
(199,530,o),
(137,519,o),
(79,496,c),
(99,406,l),
(152,430,o),
(203,440,o),
(261,440,cs),
(353,440,o),
(387,412,o),
(387,338,c),
(312,338,ls),
(135,338,o),
(35,269,o),
(35,148,cs),
(35,48,o),
(104,-10,o),
(223,-10,cs)
);
},
{
closed = 1;
nodes = (
(733,-10,o),
(801,8,o),
(852,39,c),
(833,126,l),
(783,97,o),
(721,80,o),
(659,80,cs),
(549,80,o),
(493,134,o),
(493,240,cs),
(493,270,l),
(493,382,o),
(544,442,o),
(640,442,cs),
(731,442,o),
(776,387,o),
(776,274,c),
(793,300,l),
(447,300,l),
(447,215,l),
(875,215,l),
(876,227,o),
(877,251,o),
(877,269,cs),
(877,436,o),
(792,530,o),
(640,530,cs),
(482,530,o),
(387,428,o),
(387,260,cs),
(387,87,o),
(484,-10,o),
(658,-10,cs)
);
}
);
width = 912;
},
{
anchors = (
{
name = bottom;
pos = (452,0);
},
{
name = top;
pos = (452,520);
}
);
layerId = "9E6B41AB-2970-4C41-8B35-4DBE0D296A43";
shapes = (
{
closed = 1;
nodes = (
(227,125,o),
(206,141,o),
(206,170,cs),
(206,208,o),
(241,225,o),
(320,225,cs),
(344,225,l),
(344,185,ls),
(344,148,o),
(313,125,o),
(266,125,cs)
);
},
{
closed = 1;
nodes = (
(417,-10,o),
(535,114,o),
(535,310,cs),
(535,330,ls),
(535,476,o),
(470,530,o),
(291,530,cs),
(207,530,o),
(141,521,o),
(75,501,c),
(95,361,l),
(151,380,o),
(210,390,o),
(264,390,cs),
(324,390,o),
(344,375,o),
(344,330,c),
(290,330,ls),
(124,330,o),
(30,265,o),
(30,150,cs),
(30,49,o),
(104,-10,o),
(230,-10,cs)
);
},
{
closed = 1;
nodes = (
(719,-10,o),
(794,5,o),
(843,28,c),
(823,168,l),
(776,146,o),
(704,130,o),
(645,130,cs),
(568,130,o),
(535,157,o),
(535,220,cs),
(535,280,ls),
(535,367,o),
(559,405,o),
(613,405,cs),
(667,405,o),
(691,367,o),
(691,280,c),
(714,315,l),
(453,315,l),
(453,200,l),
(869,200,l),
(871,211,o),
(873,246,o),
(873,270,cs),
(873,434,o),
(777,530,o),
(613,530,cs),
(445,530,o),
(343,428,o),
(343,260,cs),
(343,87,o),
(451,-10,o),
(643,-10,cs)
);
}
);
width = 903;
}
);
metricLeft = "=a";
metricRight = "=e";
unicode = 230;
},
{
glyphname = b;
kernLeft = h;
kernRight = o;
lastChange = "2026-04-02 05:55:03 +0000";
layers = (
{
layerId = "D65C9A1E-0FCA-4B2D-8EDF-9F36CA9182A1";
shapes = (
{
closed = 1;
nodes = (
(110,0,l),
(110,82,l),
(112,82,l),
(151,26,o),
(227,-10,o),
(306,-10,cs),
(436,-10,o),
(510,88,o),
(510,260,cs),
(510,432,o),
(436,530,o),
(306,530,cs),
(227,530,o),
(151,494,o),
(112,438,c),
(110,438,l),
(110,730,l),
(90,730,l),
(90,0,l)
);
},
{
closed = 1;
nodes = (
(213,10,o),
(110,67,o),
(110,152,cs),
(110,368,ls),
(110,453,o),
(213,510,o),
(306,510,cs),
(423,510,o),
(490,422,o),
(490,260,cs),
(490,98,o),
(423,10,o),
(306,10,cs)
);
}
);
width = 555;
},
{
layerId = "9527F797-22C1-480E-A1FE-2CDBEBE1FD4C";
name = Medium;
shapes = (
{
closed = 1;
nodes = (
(177,0,l),
(178,70,l),
(180,70,l),
(226,15,o),
(278,-10,o),
(345,-10,cs),
(477,-10,o),
(550,87,o),
(550,260,cs),
(550,433,o),
(477,530,o),
(345,530,cs),
(279,530,o),
(227,505,o),
(180,450,c),
(178,450,l),
(178,730,l),
(70,730,l),
(70,0,l)
);
},
{
closed = 1;
nodes = (
(245,84,o),
(178,145,o),
(178,217,cs),
(178,303,ls),
(178,375,o),
(245,436,o),
(325,436,cs),
(400,436,o),
(444,371,o),
(444,260,cs),
(444,149,o),
(400,84,o),
(325,84,cs)
);
}
);
width = 585;
},
{
associatedMasterId = "D65C9A1E-0FCA-4B2D-8EDF-9F36CA9182A1";
attr = {
coordinates = (
232
);
};
layerId = "224B9E35-8107-461C-9404-30749D2F6E5F";
name = "Mar 19, 25 at 16:45";
shapes = (
{
closed = 1;
nodes = (
(131,0,l),
(132,70,l),
(134,70,l),
(175,20,o),
(244,-10,o),
(318,-10,cs),
(450,-10,o),
(523,86,o),
(523,260,cs),
(523,434,o),
(450,530,o),
(318,530,cs),
(244,530,o),
(175,500,o),
(134,450,c),
(132,450,l),
(132,730,l),
(83,730,l),
(83,0,l)
);
},
{
closed = 1;
nodes = (
(216,37,o),
(132,99,o),
(132,170,cs),
(132,350,ls),
(132,421,o),
(216,483,o),
(310,483,cs),
(415,483,o),
(474,403,o),
(474,260,cs),
(474,117,o),
(415,37,o),
(310,37,cs)
);
}
);
width = 565;
},
{
layerId = "9E6B41AB-2970-4C41-8B35-4DBE0D296A43";
name = Black;
shapes = (
{
closed = 1;
nodes = (
(254,0,l),
(256,70,l),
(258,70,l),
(292,15,o),
(337,-10,o),
(403,-10,cs),
(531,-10,o),
(600,84,o),
(600,260,cs),
(600,436,o),
(531,530,o),
(403,530,cs),
(337,530,o),
(292,505,o),
(258,450,c),
(256,450,l),
(256,730,l),
(60,730,l),
(60,0,l)
);
},
{
closed = 1;
nodes = (
(291,135,o),
(256,171,o),
(256,217,cs),
(256,303,ls),
(256,349,o),
(291,385,o),
(336,385,cs),
(384,385,o),
(408,343,o),
(408,260,cs),
(408,177,o),
(384,135,o),
(336,135,cs)
);
}
);
width = 630;
}
);
metricLeft = "=h";
metricRight = "=o";
unicode = 98;
},
{
glyphname = c;
kernLeft = o;
kernRight = c;
lastChange = "2026-04-10 06:34:06 +0000";
layers = (
{
anchors = (
{
name = bottom;
pos = (275,0);
},
{
name = cedi;
pos = (216,0);
},
{
name = top;
pos = (275,520);
}
);
layerId = "9527F797-22C1-480E-A1FE-2CDBEBE1FD4C";
shapes = (
{
closed = 1;
nodes = (
(370,-10,o),
(425,1,o),
(475,23,c),
(456,110,l),
(414,90,o),
(369,80,o),
(322,80,cs),
(205,80,o),
(145,141,o),
(145,260,cs),
(145,379,o),
(205,440,o),
(322,440,cs),
(369,440,o),
(414,430,o),
(456,410,c),
(475,497,l),
(425,519,o),
(370,530,o),
(309,530,cs),
(131,530,o),
(35,435,o),
(35,260,cs),
(35,85,o),
(131,-10,o),
(309,-10,cs)
);
}
);
width = 525;
},
{
anchors = (
{
name = bottom;
pos = (265,0);
},
{
name = cedi;
pos = (221,0);
},
{
name = top;
pos = (265,520);
}
);
layerId = "D65C9A1E-0FCA-4B2D-8EDF-9F36CA9182A1";
shapes = (
{
closed = 1;
nodes = (
(351,-10,o),
(399,0,o),
(445,20,c),
(437,38,l),
(393,19,o),
(349,10,o),
(299,10,cs),
(148,10,o),
(65,99,o),
(65,260,cs),
(65,421,o),
(148,510,o),
(299,510,cs),
(349,510,o),
(393,501,o),
(437,482,c),
(445,500,l),
(399,520,o),
(351,530,o),
(299,530,cs),
(137,530,o),
(45,432,o),
(45,260,cs),
(45,88,o),
(137,-10,o),
(299,-10,cs)
);
}
);
width = 510;
},
{
anchors = (
{
name = bottom;
pos = (290,0);
},
{
name = cedi;
pos = (216,0);
},
{
name = top;
pos = (290,520);
}
);
layerId = "9E6B41AB-2970-4C41-8B35-4DBE0D296A43";
name = Black;
shapes = (
{
closed = 1;
nodes = (
(385,-10,o),
(456,3,o),
(510,26,c),
(480,162,l),
(433,141,o),
(388,130,o),
(348,130,cs),
(268,130,o),
(230,172,o),
(230,260,cs),
(230,348,o),
(268,390,o),
(348,390,cs),
(388,390,o),
(433,379,o),
(480,358,c),
(510,494,l),
(456,517,o),
(385,530,o),
(315,530,cs),
(128,530,o),
(30,437,o),
(30,260,cs),
(30,83,o),
(128,-10,o),
(315,-10,cs)
);
}
);
width = 553;
}
);
metricLeft = "=o";
metricRight = "=h*.9";
unicode = 99;
},
{
glyphname = d;
kernLeft = o;
kernRight = d;
lastChange = "2026-04-09 09:01:00 +0000";
layers = (
{
layerId = "D65C9A1E-0FCA-4B2D-8EDF-9F36CA9182A1";
metricRight = "=|h*.5";
shapes = (
{
closed = 1;
nodes = (
(344,-10,o),
(422,36,o),
(452,98,c),
(454,98,l),
(461,64,o),
(474,31,o),
(497,-10,c),
(515,0,l),
(476,68,o),
(465,112,o),
(465,199,cs),
(465,730,l),
(445,730,l),
(445,438,l),
(443,438,l),
(406,494,o),
(334,530,o),
(259,530,cs),
(123,530,o),
(45,432,o),
(45,260,cs),
(45,88,o),
(123,-10,o),
(259,-10,cs)
);
},
{
closed = 1;
nodes = (
(135,10,o),
(65,98,o),
(65,260,cs),
(65,422,o),
(135,510,o),
(259,510,cs),
(357,510,o),
(445,442,o),
(445,368,cs),
(445,152,ls),
(445,78,o),
(357,10,o),
(259,10,cs)
);
}
);
width = 560;
},
{
layerId = "9E6B41AB-2970-4C41-8B35-4DBE0D296A43";
metricRight = "=|h*.4";
shapes = (
{
closed = 1;
nodes = (
(292,-10,o),
(345,14,o),
(392,65,c),
(394,65,l),
(403,32,o),
(414,6,o),
(428,-18,c),
(620,58,l),
(584,120,o),
(570,188,o),
(570,300,cs),
(570,730,l),
(374,730,l),
(374,450,l),
(372,450,l),
(338,505,o),
(293,530,o),
(227,530,cs),
(99,530,o),
(30,436,o),
(30,260,cs),
(30,84,o),
(99,-10,o),
(227,-10,cs)
);
},
{
closed = 1;
nodes = (
(246,135,o),
(222,177,o),
(222,260,cs),
(222,343,o),
(246,385,o),
(294,385,cs),
(339,385,o),
(374,349,o),
(374,303,cs),
(374,217,ls),
(374,171,o),
(339,135,o),
(294,135,cs)
);
}
);
width = 644;
},
{
associatedMasterId = "D65C9A1E-0FCA-4B2D-8EDF-9F36CA9182A1";
attr = {
coordinates = (
232
);
};
layerId = "B4AAD0EF-2F8B-401C-AEC0-E53A33AE0A71";
name = "Feb 28, 25 at 16:12";
shapes = (
{
closed = 1;
nodes = (
(330,-10,o),
(408,28,o),
(444,85,c),
(446,85,l),
(452,54,o),
(465,22,o),
(485,-11,c),
(532,10,l),
(493,79,o),
(482,125,o),
(482,216,cs),
(482,730,l),
(433,730,l),
(433,450,l),
(431,450,l),
(390,500,o),
(321,530,o),
(247,530,cs),
(115,530,o),
(42,434,o),
(42,260,cs),
(42,86,o),
(115,-10,o),
(247,-10,cs)
);
},
{
closed = 1;
nodes = (
(150,37,o),
(91,117,o),
(91,260,cs),
(91,403,o),
(150,483,o),
(255,483,cs),
(349,483,o),
(433,421,o),
(433,350,cs),
(433,170,ls),
(433,99,o),
(349,37,o),
(255,37,cs)
);
}
);
width = 567;
},
{
layerId = "9527F797-22C1-480E-A1FE-2CDBEBE1FD4C";
name = Medium;
shapes = (
{
closed = 1;
nodes = (
(315,-10,o),
(376,21,o),
(421,82,c),
(423,82,l),
(427,52,o),
(439,21,o),
(460,-14,c),
(565,29,l),
(527,98,o),
(515,151,o),
(515,250,cs),
(515,730,l),
(407,730,l),
(407,450,l),
(405,450,l),
(358,505,o),
(306,530,o),
(240,530,cs),
(108,530,o),
(35,433,o),
(35,260,cs),
(35,87,o),
(108,-10,o),
(240,-10,cs)
);
},
{
closed = 1;
nodes = (
(185,84,o),
(141,149,o),
(141,260,cs),
(141,371,o),
(185,436,o),
(260,436,cs),
(340,436,o),
(407,375,o),
(407,303,cs),
(407,217,ls),
(407,145,o),
(340,84,o),
(260,84,cs)
);
}
);
width = 594;
}
);
metricLeft = "=|b";
metricRight = "=|h*.42";
unicode = 100;
},
{
color = 10;
glyphname = dcroat;
kernLeft = o;
kernRight = W;
lastChange = "2026-04-05 07:56:50 +0000";
layers = (
{
layerId = "D65C9A1E-0FCA-4B2D-8EDF-9F36CA9182A1";
shapes = (
{
closed = 1;
nodes = (
(587,605,l),
(587,625,l),
(167,625,l),
(167,605,l)
);
},
{
ref = d;
}
);
width = 605;
},
{
layerId = "9527F797-22C1-480E-A1FE-2CDBEBE1FD4C";
shapes = (
{
closed = 1;
nodes = (
(633,570,l),
(633,660,l),
(213,660,l),
(213,570,l)
);
},
{
alignment = -1;
ref = d;
}
);
width = 653;
},
{
layerId = "9E6B41AB-2970-4C41-8B35-4DBE0D296A43";
shapes = (
{
closed = 1;
nodes = (
(679,545,l),
(679,685,l),
(259,685,l),
(259,545,l)
);
},
{
ref = d;
}
);
width = 697;
}
);
metricLeft = "=d";
metricRight = "=W";
unicode = 273;
},
{
color = 10;
glyphname = eth;
kernLeft = o;
kernRight = o;
lastChange = "2026-04-02 07:49:44 +0000";
layers = (
{
layerId = "D65C9A1E-0FCA-4B2D-8EDF-9F36CA9182A1";
metricRight = "=d*.3";
shapes = (
{
closed = 1;
nodes = (
(425,-10,o),
(515,84,o),
(515,235,cs),
(515,445,o),
(336,735,o),
(172,790,c),
(165,772,l),
(281,733,o),
(409,566,o),
(466,399,c),
(464,398,l),
(423,451,o),
(360,480,o),
(280,480,cs),
(135,480,o),
(45,386,o),
(45,235,cs),
(45,84,o),
(135,-10,o),
(280,-10,cs)
);
},
{
closed = 1;
nodes = (
(146,10,o),
(65,95,o),
(65,235,cs),
(65,375,o),
(146,460,o),
(280,460,cs),
(414,460,o),
(495,375,o),
(495,235,cs),
(495,95,o),
(414,10,o),
(280,10,cs)
);
},
{
closed = 1;
nodes = (
(546,697,l),
(538,715,l),
(98,540,l),
(106,522,l)
);
}
);
width = 560;
},
{
layerId = "9527F797-22C1-480E-A1FE-2CDBEBE1FD4C";
metricRight = "=d*.5";
shapes = (
{
closed = 1;
nodes = (
(454,-10,o),
(545,88,o),
(545,263,cs),
(545,544,o),
(380,758,o),
(140,790,c),
(120,700,l),
(258,681,o),
(371,579,o),
(414,435,c),
(412,434,l),
(379,465,o),
(334,480,o),
(275,480,cs),
(126,480,o),
(35,391,o),
(35,243,cs),
(35,84,o),
(130,-10,o),
(290,-10,cs)
);
},
{
closed = 1;
nodes = (
(197,80,o),
(143,140,o),
(143,243,cs),
(143,341,o),
(192,390,o),
(290,390,cs),
(388,390,o),
(437,341,o),
(437,243,cs),
(437,140,o),
(383,80,o),
(290,80,cs)
);
},
{
closed = 1;
nodes = (
(555,665,l),
(519,749,l),
(79,574,l),
(115,490,l)
);
}
);
width = 570;
},
{
layerId = "9E6B41AB-2970-4C41-8B35-4DBE0D296A43";
metricRight = "=d*.7";
shapes = (
{
closed = 1;
nodes = (
(491,-10,o),
(580,84,o),
(580,280,cs),
(580,601,o),
(422,776,o),
(120,790,c),
(80,660,l),
(244,652,o),
(361,575,o),
(367,471,c),
(365,470,l),
(341,476,o),
(309,480,o),
(275,480,cs),
(119,480,o),
(30,397,o),
(30,250,cs),
(30,89,o),
(134,-10,o),
(305,-10,cs)
);
},
{
closed = 1;
nodes = (
(249,125,o),
(224,163,o),
(224,250,cs),
(224,337,o),
(249,375,o),
(305,375,cs),
(361,375,o),
(386,337,o),
(386,250,cs),
(386,163,o),
(361,125,o),
(305,125,cs)
);
},
{
closed = 1;
nodes = (
(565,643,l),
(510,773,l),
(70,598,l),
(125,468,l)
);
}
);
width = 597;
},
{
associatedMasterId = "D65C9A1E-0FCA-4B2D-8EDF-9F36CA9182A1";
attr = {
coordinates = (
232
);
};
layerId = "7EB7DD1D-0E67-4B53-AED1-36A39ED50BF4";
metricRight = "=d*.3";
name = "{232}";
shapes = (
{
closed = 1;
nodes = (
(435,-10,o),
(525,85,o),
(525,244,cs),
(525,478,o),
(351,743,o),
(161,790,c),
(146,749,l),
(268,720,o),
(391,578,o),
(446,423,c),
(444,422,l),
(405,459,o),
(349,480,o),
(278,480,cs),
(132,480,o),
(42,388,o),
(42,238,cs),
(42,84,o),
(133,-10,o),
(283,-10,cs)
);
},
{
closed = 1;
nodes = (
(163,33,o),
(91,110,o),
(91,238,cs),
(91,364,o),
(161,437,o),
(283,437,cs),
(405,437,o),
(476,364,o),
(476,238,cs),
(476,110,o),
(404,33,o),
(283,33,cs)
);
},
{
closed = 1;
nodes = (
(549,686,l),
(532,726,l),
(92,551,l),
(109,511,l)
);
}
);
width = 560;
}
);
metricLeft = "=o";
metricRight = "=d*.6";
unicode = 240;
},
{
glyphname = e;
kernLeft = o;
kernRight = o;
lastChange = "2026-04-09 09:08:17 +0000";
layers = (
{
anchors = (
{
name = bottom;
pos = (276,0);
},
{
name = ogonek;
pos = (483,31);
},
{
name = top;
pos = (276,520);
}
);
layerId = "9527F797-22C1-480E-A1FE-2CDBEBE1FD4C";
shapes = (
{
closed = 1;
nodes = (
(371,-10,o),
(436,4,o),
(482,29,c),
(463,116,l),
(418,93,o),
(357,80,o),
(302,80,cs),
(193,80,o),
(141,131,o),
(141,235,c),
(141,270,l),
(141,386,o),
(189,446,o),
(278,446,cs),
(362,446,o),
(404,390,o),
(404,274,c),
(427,304,l),
(94,304,l),
(94,222,l),
(503,222,l),
(504,233,o),
(505,256,o),
(505,269,cs),
(505,437,o),
(424,530,o),
(278,530,cs),
(126,530,o),
(35,429,o),
(35,260,cs),
(35,85,o),
(129,-10,o),
(303,-10,cs)
);
}
);
width = 540;
},
{
anchors = (
{
name = bottom;
pos = (261,0);
},
{
name = ogonek;
pos = (440,33);
},
{
name = top;
pos = (261,520);
}
);
layerId = "D65C9A1E-0FCA-4B2D-8EDF-9F36CA9182A1";
shapes = (
{
closed = 1;
nodes = (
(351,-10,o),
(412,5,o),
(455,30,c),
(445,47,l),
(405,24,o),
(348,10,o),
(287,10,cs),
(140,10,o),
(65,92,o),
(65,260,c),
(65,260,l),
(65,419,o),
(141,510,o),
(270,510,cs),
(391,510,o),
(455,429,o),
(455,268,c),
(465,278,l),
(55,278,l),
(55,258,l),
(475,258,l),
(475,263,o),
(475,263,o),
(475,268,cs),
(475,439,o),
(404,530,o),
(270,530,cs),
(129,530,o),
(45,429,o),
(45,260,cs),
(45,82,o),
(128,-10,o),
(287,-10,cs)
);
}
);
width = 520;
},
{
anchors = (
{
name = bottom;
pos = (295,0);
},
{
name = ogonek;
pos = (530,28);
},
{
name = top;
pos = (295,520);
}
);
layerId = "9E6B41AB-2970-4C41-8B35-4DBE0D296A43";
name = Black;
shapes = (
{
closed = 1;
nodes = (
(396,-10,o),
(466,4,o),
(513,28,c),
(483,164,l),
(440,144,o),
(374,130,o),
(322,130,cs),
(251,130,o),
(222,156,o),
(222,220,cs),
(222,280,ls),
(222,368,o),
(242,405,o),
(290,405,cs),
(337,405,o),
(358,366,o),
(358,280,c),
(394,315,l),
(138,315,l),
(138,200,l),
(536,200,l),
(538,211,o),
(540,246,o),
(540,270,cs),
(540,434,o),
(447,530,o),
(290,530,cs),
(128,530,o),
(30,428,o),
(30,260,cs),
(30,87,o),
(135,-10,o),
(324,-10,cs)
);
}
);
width = 570;
}
);
metricLeft = "=o";
metricRight = "=|";
unicode = 101;
},
{
glyphname = f;
kernLeft = f;
kernRight = f;
lastChange = "2026-04-14 08:29:14 +0000";
layers = (
{
layerId = "9527F797-22C1-480E-A1FE-2CDBEBE1FD4C";
shapes = (
{
closed = 1;
nodes = (
(276,0,l),
(276,400,l),
(486,400,l),
(486,490,l),
(276,490,l),
(276,585,ls),
(276,653,o),
(309,680,o),
(393,680,cs),
(421,680,o),
(442,677,o),
(472,668,c),
(491,755,l),
(453,765,o),
(412,770,o),
(373,770,cs),
(236,770,o),
(167,708,o),
(167,585,cs),
(167,490,l),
(21,490,l),
(21,400,l),
(167,400,l),
(167,0,l)
);
}
);
width = 508;
},
{
layerId = "D65C9A1E-0FCA-4B2D-8EDF-9F36CA9182A1";
shapes = (
{
closed = 1;
nodes = (
(227,0,l),
(227,460,l),
(472,460,l),
(472,480,l),
(227,480,l),
(227,620,ls),
(227,710,o),
(273,750,o),
(383,750,cs),
(416,750,o),
(438,747,o),
(471,736,c),
(477,755,l),
(443,766,o),
(418,770,o),
(383,770,cs),
(263,770,o),
(207,722,o),
(207,620,cs),
(207,480,l),
(27,480,l),
(27,460,l),
(207,460,l),
(207,0,l)
);
}
);
width = 499;
},
{
layerId = "9E6B41AB-2970-4C41-8B35-4DBE0D296A43";
name = Black;
shapes = (
{
closed = 1;
nodes = (
(327,0,l),
(327,360,l),
(503,360,l),
(503,500,l),
(327,500,l),
(327,550,ls),
(327,611,o),
(345,630,o),
(403,630,cs),
(426,630,o),
(448,627,o),
(478,620,c),
(508,755,l),
(466,764,o),
(409,770,o),
(366,770,cs),
(212,770,o),
(129,693,o),
(129,550,cs),
(129,500,l),
(18,500,l),
(18,360,l),
(129,360,l),
(129,0,l)
);
}
);
width = 522;
}
);
metricLeft = "=h*.3";
metricRight = "=|*.8";
unicode = 102;
},
{
glyphname = g;
kernLeft = o;
kernRight = g;
lastChange = "2026-04-10 06:34:28 +0000";
layers = (
{
layerId = "D65C9A1E-0FCA-4B2D-8EDF-9F36CA9182A1";
name = Thin;
shapes = (
{
closed = 1;
nodes = (
(406,160,o),
(485,228,o),
(485,345,cs),
(485,520,l),
(465,520,l),
(465,438,l),
(463,438,l),
(431,498,o),
(365,530,o),
(275,530,cs),
(144,530,o),
(65,462,o),
(65,345,cs),
(65,228,o),
(144,160,o),
(275,160,cs)
);
},
{
closed = 1;
nodes = (
(154,180,o),
(85,240,o),
(85,345,cs),
(85,450,o),
(154,510,o),
(275,510,cs),
(396,510,o),
(465,450,o),
(465,345,cs),
(465,240,o),
(396,180,o),
(275,180,cs)
);
},
{
closed = 1;
nodes = (
(403,-230,o),
(495,-169,o),
(495,-63,cs),
(495,156,o),
(90,2,o),
(90,135,cs),
(90,162,o),
(107,188,o),
(133,201,c),
(124,219,l),
(92,203,o),
(70,170,o),
(70,135,cs),
(70,-28,o),
(475,135,o),
(475,-63,cs),
(475,-155,o),
(394,-210,o),
(242,-210,cs),
(175,-210,o),
(130,-200,o),
(53,-168,c),
(45,-187,l),
(123,-219,o),
(173,-230,o),
(242,-230,cs)
);
}
);
width = 553;
},
{
layerId = "9527F797-22C1-480E-A1FE-2CDBEBE1FD4C";
name = Medium;
shapes = (
{
closed = 1;
nodes = (
(430,130,o),
(510,199,o),
(510,323,cs),
(510,520,l),
(403,520,l),
(402,460,l),
(400,460,l),
(370,504,o),
(310,530,o),
(239,530,cs),
(118,530,o),
(40,455,o),
(40,340,cs),
(40,211,o),
(135,130,o),
(288,130,cs)
);
},
{
closed = 1;
nodes = (
(195,211,o),
(148,253,o),
(148,325,cs),
(148,397,o),
(191,439,o),
(265,439,cs),
(351,439,o),
(402,397,o),
(402,325,cs),
(402,253,o),
(355,211,o),
(275,211,cs)
);
},
{
closed = 1;
nodes = (
(427,-230,o),
(515,-171,o),
(515,-62,cs),
(515,158,o),
(158,33,o),
(158,129,cs),
(158,147,o),
(170,157,o),
(207,169,c),
(136,233,l),
(79,199,o),
(55,165,o),
(55,118,cs),
(55,-64,o),
(407,65,o),
(407,-67,cs),
(407,-115,o),
(351,-142,o),
(252,-142,cs),
(186,-142,o),
(126,-130,o),
(48,-101,c),
(35,-188,l),
(108,-216,o),
(185,-230,o),
(265,-230,cs)
);
}
);
width = 560;
},
{
background = {
anchors = (
{
name = bottom;
pos = (364,-140);
},
{
name = top;
pos = (364,520);
}
);
};
layerId = "9E6B41AB-2970-4C41-8B35-4DBE0D296A43";
name = Black;
shapes = (
{
closed = 1;
nodes = (
(472,140,o),
(551,201,o),
(551,321,cs),
(551,520,l),
(357,520,l),
(355,460,l),
(353,460,l),
(323,505,o),
(271,530,o),
(207,530,cs),
(99,530,o),
(30,462,o),
(30,355,cs),
(30,222,o),
(139,140,o),
(317,140,cs)
);
},
{
closed = 1;
nodes = (
(246,241,o),
(225,266,o),
(225,319,cs),
(225,372,o),
(246,397,o),
(290,397,cs),
(334,397,o),
(355,372,o),
(355,319,cs),
(355,266,o),
(334,241,o),
(290,241,cs)
);
},
{
closed = 1;
nodes = (
(471,-230,o),
(550,-174,o),
(550,-61,cs),
(550,169,o),
(215,67,o),
(215,130,cs),
(215,146,o),
(240,170,o),
(271,184,c),
(163,247,l),
(90,200,o),
(55,152,o),
(55,99,cs),
(55,-59,o),
(354,34,o),
(354,-51,cs),
(354,-78,o),
(330,-90,o),
(276,-90,cs),
(216,-90,o),
(139,-76,o),
(57,-50,c),
(40,-190,l),
(114,-214,o),
(221,-230,o),
(309,-230,cs)
);
}
);
width = 589;
},
{
associatedMasterId = "D65C9A1E-0FCA-4B2D-8EDF-9F36CA9182A1";
attr = {
coordinates = (
232
);
};
background = {
shapes = (
{
closed = 1;
nodes = (
(414,150,o),
(493,218,o),
(493,338,cs),
(493,520,l),
(445,520,l),
(444,450,l),
(442,450,l),
(410,502,o),
(347,530,o),
(262,530,cs),
(135,530,o),
(57,460,o),
(57,343,cs),
(57,222,o),
(141,150,o),
(279,150,cs)
);
},
{
closed = 1;
nodes = (
(168,190,o),
(106,244,o),
(106,338,cs),
(106,433,o),
(168,487,o),
(275,487,cs),
(382,487,o),
(444,433,o),
(444,338,cs),
(444,244,o),
(382,190,o),
(275,190,cs)
);
},
{
closed = 1;
nodes = (
(411,-230,o),
(502,-170,o),
(502,-63,cs),
(502,157,o),
(113,12,o),
(113,133,cs),
(113,157,o),
(127,177,o),
(158,190,c),
(128,224,l),
(88,202,o),
(65,168,o),
(65,129,cs),
(65,-40,o),
(453,112,o),
(453,-64,cs),
(453,-142,o),
(380,-188,o),
(246,-188,cs),
(179,-188,o),
(129,-177,o),
(52,-146,c),
(42,-187,l),
(119,-218,o),
(177,-230,o),
(250,-230,cs)
);
}
);
};
layerId = "0C3AA9F7-8415-4249-8F87-F1C6784A009D";
metricRight = "=h*.5";
name = "{232} Apr 2, 26 at 15:14";
shapes = (
{
closed = 1;
nodes = (
(414,150,o),
(493,218,o),
(493,338,cs),
(493,520,l),
(445,520,l),
(444,450,l),
(442,450,l),
(411,501,o),
(347,530,o),
(263,530,cs),
(135,530,o),
(57,460,o),
(57,343,cs),
(57,222,o),
(141,150,o),
(279,150,cs)
);
},
{
closed = 1;
nodes = (
(168,190,o),
(106,244,o),
(106,338,cs),
(106,433,o),
(166,487,o),
(272,487,cs),
(381,487,o),
(444,433,o),
(444,338,cs),
(444,244,o),
(382,190,o),
(275,190,cs)
);
},
{
closed = 1;
nodes = (
(411,-230,o),
(502,-170,o),
(502,-63,cs),
(502,157,o),
(112,12,o),
(112,133,cs),
(112,157,o),
(129,178,o),
(157,190,c),
(128,224,l),
(88,202,o),
(65,168,o),
(65,129,cs),
(65,-40,o),
(453,112,o),
(453,-64,cs),
(453,-142,o),
(380,-188,o),
(245,-188,cs),
(179,-188,o),
(128,-177,o),
(51,-146,c),
(42,-187,l),
(119,-218,o),
(177,-230,o),
(250,-230,cs)
);
}
);
width = 536;
}
);
metricLeft = "=d";
metricRight = "=h*.8";
unicode = 103;
},
{
glyphname = h;
kernLeft = h;
kernRight = h;
lastChange = "2026-04-10 06:33:48 +0000";
layers = (
{
anchors = (
{
name = bottom;
pos = (290,0);
},
{
name = center;
pos = (290,430);
},
{
name = top;
pos = (290,520);
}
);
layerId = "D65C9A1E-0FCA-4B2D-8EDF-9F36CA9182A1";
shapes = (
{
closed = 1;
nodes = (
(110,0,l),
(110,360,ls),
(110,384,o),
(200,510,o),
(324,510,cs),
(413,510,o),
(470,438,o),
(470,320,cs),
(470,0,l),
(490,0,l),
(490,320,ls),
(490,448,o),
(425,530,o),
(324,530,cs),
(247,530,o),
(164,482,o),
(112,407,c),
(110,407,l),
(110,730,l),
(90,730,l),
(90,0,l)
);
}
);
width = 562;
},
{
anchors = (
{
name = bottom;
pos = (295,0);
},
{
name = center;
pos = (295,430);
},
{
name = top;
pos = (295,520);
}
);
layerId = "9527F797-22C1-480E-A1FE-2CDBEBE1FD4C";
shapes = (
{
closed = 1;
nodes = (
(178,0,l),
(178,294,ls),
(178,356,o),
(251,434,o),
(329,434,cs),
(386,434,o),
(413,392,o),
(413,305,cs),
(413,0,l),
(520,0,l),
(520,305,ls),
(520,456,o),
(468,530,o),
(363,530,cs),
(296,530,o),
(230,500,o),
(180,450,c),
(178,450,l),
(178,730,l),
(70,730,l),
(70,0,l)
);
}
);
width = 576;
},
{
anchors = (
{
name = bottom;
pos = (310,0);
},
{
name = center;
pos = (310,430);
},
{
name = top;
pos = (310,520);
}
);
layerId = "9E6B41AB-2970-4C41-8B35-4DBE0D296A43";
name = Black;
shapes = (
{
closed = 1;
nodes = (
(256,0,l),
(256,320,ls),
(256,343,o),
(296,370,o),
(330,370,cs),
(358,370,o),
(366,352,o),
(366,290,cs),
(366,0,l),
(560,0,l),
(560,290,ls),
(560,457,o),
(515,530,o),
(413,530,cs),
(353,530,o),
(305,505,o),
(258,450,c),
(256,450,l),
(256,730,l),
(60,730,l),
(60,0,l)
);
}
);
width = 608;
}
);
metricLeft = "=H";
metricRight = "=|*.8";
unicode = 104;
},
{
color = 10;
glyphname = hbar;
kernLeft = W;
kernRight = h;
lastChange = "2026-04-10 06:34:06 +0000";
layers = (
{
anchors = (
{
name = bottom;
pos = (323,0);
},
{
name = center;
pos = (323,430);
},
{
name = top;
pos = (323,750);
}
);
layerId = "D65C9A1E-0FCA-4B2D-8EDF-9F36CA9182A1";
shapes = (
{
closed = 1;
nodes = (
(438,625,l),
(18,625,l),
(18,605,l),
(438,605,l)
);
},
{
pos = (53,0);
ref = h;
}
);
width = 615;
},
{
anchors = (
{
name = bottom;
pos = (348,0);
},
{
name = center;
pos = (348,430);
},
{
name = top;
pos = (348,750);
}
);
layerId = "9527F797-22C1-480E-A1FE-2CDBEBE1FD4C";
shapes = (
{
closed = 1;
nodes = (
(440,660,l),
(20,660,l),
(20,570,l),
(440,570,l)
);
},
{
alignment = -1;
pos = (58,0);
ref = h;
}
);
width = 634;
},
{
anchors = (
{
name = bottom;
pos = (369,0);
},
{
name = center;
pos = (369,430);
},
{
name = top;
pos = (369,750);
}
);
layerId = "9E6B41AB-2970-4C41-8B35-4DBE0D296A43";
shapes = (
{
closed = 1;
nodes = (
(438,685,l),
(18,685,l),
(18,545,l),
(438,545,l)
);
},
{
pos = (59,0);
ref = h;
}
);
width = 667;
}
);
metricLeft = "=W";
metricRight = "=h";
unicode = 295;
},
{
glyphname = i;
kernLeft = i;
kernRight = i;
lastChange = "2026-04-10 06:42:38 +0000";
layers = (
{
anchors = (
{
name = bottom;
pos = (150,0);
}
);
background = {
anchors = (
{
name = bottom;
pos = (149,0);
}
);
};
layerId = "9527F797-22C1-480E-A1FE-2CDBEBE1FD4C";
shapes = (
{
closed = 1;
nodes = (
(205,0,l),
(205,520,l),
(95,520,l),
(95,0,l)
);
},
{
closed = 1;
nodes = (
(197,584,o),
(231,617,o),
(231,662,cs),
(231,707,o),
(197,740,o),
(150,740,cs),
(103,740,o),
(69,707,o),
(69,662,cs),
(69,617,o),
(103,584,o),
(150,584,cs)
);
}
);
width = 300;
},
{
anchors = (
{
name = bottom;
pos = (169,0);
}
);
layerId = "9E6B41AB-2970-4C41-8B35-4DBE0D296A43";
shapes = (
{
closed = 1;
nodes = (
(269,0,l),
(269,480,l),
(69,480,l),
(69,0,l)
);
},
{
closed = 1;
nodes = (
(233,530,o),
(279,574,o),
(279,635,cs),
(279,696,o),
(233,740,o),
(169,740,cs),
(105,740,o),
(59,696,o),
(59,635,cs),
(59,574,o),
(105,530,o),
(169,530,cs)
);
}
);
width = 338;
},
{
anchors = (
{
name = bottom;
pos = (130,0);
}
);
layerId = "D65C9A1E-0FCA-4B2D-8EDF-9F36CA9182A1";
name = Thin;
shapes = (
{
closed = 1;
nodes = (
(140,0,l),
(140,520,l),
(120,520,l),
(120,0,l)
);
},
{
closed = 1;
nodes = (
(153,660,o),
(171,678,o),
(171,700,cs),
(171,722,o),
(153,740,o),
(130,740,cs),
(107,740,o),
(89,722,o),
(89,700,cs),
(89,678,o),
(107,660,o),
(130,660,cs)
);
}
);
width = 260;
}
);
metricLeft = "=l*.9";
metricRight = "=|";
unicode = 105;
},
{
color = 10;
glyphname = idotless;
kernLeft = l;
kernRight = l;
lastChange = "2026-04-02 03:47:39 +0000";
layers = (
{
anchors = (
{
name = bottom;
pos = (109,0);
},
{
name = ogonek;
pos = (119,0);
},
{
name = top;
pos = (109,520);
}
);
layerId = "D65C9A1E-0FCA-4B2D-8EDF-9F36CA9182A1";
shapes = (
{
closed = 1;
nodes = (
(119,0,l),
(119,520,l),
(99,520,l),
(99,0,l)
);
}
);
width = 218;
},
{
anchors = (
{
name = bottom;
pos = (132,0);
},
{
name = ogonek;
pos = (187,0);
},
{
name = top;
pos = (132,520);
}
);
layerId = "9527F797-22C1-480E-A1FE-2CDBEBE1FD4C";
shapes = (
{
closed = 1;
nodes = (
(187,0,l),
(187,520,l),
(77,520,l),
(77,0,l)
);
}
);
width = 264;
},
{
anchors = (
{
name = bottom;
pos = (166,0);
},
{
name = ogonek;
pos = (266,0);
},
{
name = top;
pos = (166,520);
}
);
layerId = "9E6B41AB-2970-4C41-8B35-4DBE0D296A43";
shapes = (
{
closed = 1;
nodes = (
(266,0,l),
(266,520,l),
(66,520,l),
(66,0,l)
);
}
);
width = 332;
}
);
metricLeft = "=l";
metricRight = "=|";
unicode = 305;
},
{
glyphname = j;
kernLeft = j;
kernRight = i;
lastChange = "2026-04-11 06:24:22 +0000";
layers = (
{
background = {
shapes = (
{
closed = 0;
nodes = (
(-35,-131,l),
(-16,-218,l)
);
}
);
};
layerId = "9527F797-22C1-480E-A1FE-2CDBEBE1FD4C";
metricLeft = "=-35";
shapes = (
{
closed = 1;
nodes = (
(227,584,o),
(261,617,o),
(261,662,cs),
(261,707,o),
(227,740,o),
(180,740,cs),
(133,740,o),
(99,707,o),
(99,662,cs),
(99,617,o),
(133,584,o),
(180,584,cs)
);
},
{
closed = 1;
nodes = (
(148,-197,o),
(235,-76,o),
(235,130,cs),
(235,520,l),
(125,520,l),
(125,130,ls),
(125,-34,o),
(78,-111,o),
(-35,-131,c),
(-16,-218,l)
);
}
);
width = 330;
},
{
layerId = "D65C9A1E-0FCA-4B2D-8EDF-9F36CA9182A1";
metricLeft = "=-30";
shapes = (
{
closed = 1;
nodes = (
(183,660,o),
(201,678,o),
(201,700,cs),
(201,722,o),
(183,740,o),
(160,740,cs),
(137,740,o),
(119,722,o),
(119,700,cs),
(119,678,o),
(137,660,o),
(160,660,cs)
);
},
{
closed = 1;
nodes = (
(102,-197,o),
(170,-76,o),
(170,130,cs),
(170,520,l),
(150,520,l),
(150,130,ls),
(150,-68,o),
(86,-179,o),
(-30,-198,c),
(-27,-218,l)
);
}
);
width = 290;
},
{
layerId = "9E6B41AB-2970-4C41-8B35-4DBE0D296A43";
metricLeft = "=-40";
name = Black;
shapes = (
{
closed = 1;
nodes = (
(264,530,o),
(310,574,o),
(310,635,cs),
(310,696,o),
(264,740,o),
(200,740,cs),
(136,740,o),
(90,696,o),
(90,635,cs),
(90,574,o),
(136,530,o),
(200,530,cs)
);
},
{
closed = 1;
nodes = (
(193,-197,o),
(300,-77,o),
(300,130,cs),
(300,480,l),
(100,480,l),
(100,130,ls),
(100,-11,o),
(71,-54,o),
(-40,-78,c),
(-9,-218,l)
);
}
);
width = 369;
}
);
metricLeft = "=i";
metricRight = "=i";
unicode = 106;
},
{
color = 10;
glyphname = jdotless;
kernLeft = l;
kernRight = g;
lastChange = "2026-04-02 07:49:22 +0000";
layers = (
{
anchors = (
{
name = bottom;
pos = (175,-160);
},
{
name = top;
pos = (210,520);
}
);
layerId = "D65C9A1E-0FCA-4B2D-8EDF-9F36CA9182A1";
shapes = (
{
closed = 1;
nodes = (
(-28,-220,l),
(165,-198,o),
(220,-142,o),
(220,35,cs),
(220,520,l),
(200,520,l),
(200,35,ls),
(200,-131,o),
(153,-179,o),
(-30,-200,c)
);
}
);
width = 309;
},
{
anchors = (
{
name = bottom;
pos = (191,-160);
},
{
name = top;
pos = (220,520);
}
);
layerId = "9527F797-22C1-480E-A1FE-2CDBEBE1FD4C";
shapes = (
{
closed = 1;
nodes = (
(-19,-220,l),
(210,-199,o),
(275,-139,o),
(275,53,cs),
(275,520,l),
(165,520,l),
(165,53,ls),
(165,-79,o),
(131,-109,o),
(-35,-126,c)
);
}
);
width = 344;
},
{
anchors = (
{
name = bottom;
pos = (208,-160);
},
{
name = top;
pos = (230,520);
}
);
layerId = "9E6B41AB-2970-4C41-8B35-4DBE0D296A43";
shapes = (
{
closed = 1;
nodes = (
(-10,-220,l),
(255,-200,o),
(330,-136,o),
(330,70,cs),
(330,520,l),
(130,520,l),
(130,70,ls),
(130,-39,o),
(110,-56,o),
(-40,-70,c)
);
}
);
width = 389;
}
);
metricLeft = "=j";
metricRight = "=j";
unicode = 567;
},
{
glyphname = k;
kernLeft = h;
kernRight = x;
lastChange = "2026-04-10 07:07:00 +0000";
layers = (
{
anchors = (
{
name = bottom;
pos = (279,0);
},
{
name = top;
pos = (279,730);
}
);
layerId = "9527F797-22C1-480E-A1FE-2CDBEBE1FD4C";
shapes = (
{
closed = 1;
nodes = (
(178,0,l),
(178,207,l),
(219,242,l),
(219,242,l),
(435,0,l),
(560,0,l),
(299,297,l),
(560,520,l),
(421,520,l),
(180,326,l),
(178,326,l),
(178,730,l),
(70,730,l),
(70,0,l)
);
}
);
width = 567;
},
{
anchors = (
{
name = bottom;
pos = (291,0);
},
{
name = top;
pos = (291,730);
}
);
background = {
shapes = (
{
closed = 1;
nodes = (
(365,209,l),
(620,520,l),
(384,520,l),
(187,280,l),
(187,92,l),
(365,309,l)
);
},
{
closed = 1;
nodes = (
(256,730,l),
(60,730,l),
(60,0,l),
(256,0,l)
);
},
{
closed = 1;
nodes = (
(198,362,l),
(404,0,l),
(620,0,l),
(396,362,l)
);
}
);
};
layerId = "9E6B41AB-2970-4C41-8B35-4DBE0D296A43";
shapes = (
{
closed = 1;
nodes = (
(256,0,l),
(256,176,l),
(283,210,l),
(285,210,l),
(404,0,l),
(620,0,l),
(437,296,l),
(620,520,l),
(384,520,l),
(258,366,l),
(256,366,l),
(256,730,l),
(60,730,l),
(60,0,l)
);
}
);
width = 626;
},
{
anchors = (
{
name = bottom;
pos = (276,0);
},
{
name = top;
pos = (276,730);
}
);
background = {
shapes = (
{
closed = 1;
nodes = (
(110,730,l),
(90,730,l),
(90,0,l),
(110,0,l)
);
},
{
closed = 1;
nodes = (
(100,252,l),
(510,520,l),
(473,520,l),
(97,274,l)
);
},
{
closed = 1;
nodes = (
(510,0,l),
(163,305,l),
(149,291,l),
(480,0,l)
);
}
);
};
layerId = "D65C9A1E-0FCA-4B2D-8EDF-9F36CA9182A1";
name = Thin;
shapes = (
{
closed = 1;
nodes = (
(110,0,l),
(110,259,l),
(154,287,l),
(154,287,l),
(480,0,l),
(510,0,l),
(171,298,l),
(510,520,l),
(473,520,l),
(112,284,l),
(110,284,l),
(110,730,l),
(90,730,l),
(90,0,l)
);
}
);
width = 519;
}
);
metricLeft = "=h";
metricRight = "=|*.1";
unicode = 107;
},
{
color = 10;
glyphname = kgreenlandic;
kernLeft = n;
kernRight = x;
lastChange = "2026-04-02 07:49:22 +0000";
layers = (
{
anchors = (
{
name = bottom;
pos = (240,0);
},
{
name = top;
pos = (240,520);
}
);
layerId = "D65C9A1E-0FCA-4B2D-8EDF-9F36CA9182A1";
shapes = (
{
closed = 1;
nodes = (
(112,0,l),
(112,262,l),
(114,262,l),
(476,0,l),
(510,0,l),
(137,270,l),
(493,520,l),
(459,520,l),
(114,278,l),
(112,278,l),
(112,520,l),
(90,520,l),
(90,0,l)
);
}
);
width = 519;
},
{
anchors = (
{
name = bottom;
pos = (266,0);
},
{
name = top;
pos = (266,520);
}
);
layerId = "9527F797-22C1-480E-A1FE-2CDBEBE1FD4C";
shapes = (
{
closed = 1;
nodes = (
(179,0,l),
(179,235,l),
(181,235,l),
(421,0,l),
(560,0,l),
(274,270,l),
(549,520,l),
(410,520,l),
(181,306,l),
(179,306,l),
(179,520,l),
(70,520,l),
(70,0,l)
);
}
);
width = 567;
},
{
anchors = (
{
name = bottom;
pos = (301,0);
},
{
name = top;
pos = (301,520);
}
);
layerId = "9E6B41AB-2970-4C41-8B35-4DBE0D296A43";
shapes = (
{
closed = 1;
nodes = (
(256,0,l),
(256,215,l),
(258,215,l),
(395,0,l),
(620,0,l),
(420,270,l),
(615,520,l),
(390,520,l),
(258,325,l),
(256,325,l),
(256,520,l),
(60,520,l),
(60,0,l)
);
}
);
width = 626;
}
);
metricLeft = "=k";
metricRight = "=k";
unicode = 312;
},
{
glyphname = l;
kernLeft = I;
kernRight = I;
lastChange = "2026-04-14 06:46:08 +0000";
layers = (
{
anchors = (
{
name = bottom;
pos = (109,0);
},
{
name = center;
pos = (109,430);
},
{
name = pdcenter;
pos = (370,375);
},
{
name = top;
pos = (109,730);
},
{
name = topright;
pos = (254,730);
}
);
associatedMasterId = "D65C9A1E-0FCA-4B2D-8EDF-9F36CA9182A1";
layerId = "285159F9-7513-4A48-B1CD-0D1E55B93844";
name = "Apr 14, 26 at 15:45";
shapes = (
{
closed = 1;
nodes = (
(171,-11,l),
(130,74,o),
(119,136,o),
(119,280,cs),
(119,730,l),
(99,730,l),
(99,280,ls),
(99,134,o),
(111,67,o),
(153,-20,c)
);
}
);
width = 244;
},
{
anchors = (
{
name = bottom;
pos = (109,0);
},
{
name = center;
pos = (109,430);
},
{
name = pdcenter;
pos = (370,375);
},
{
name = top;
pos = (109,730);
},
{
name = topright;
pos = (254,730);
}
);
layerId = "D65C9A1E-0FCA-4B2D-8EDF-9F36CA9182A1";
name = Thin;
shapes = (
{
closed = 1;
nodes = (
(119,0,l),
(119,730,l),
(99,730,l),
(99,0,l)
);
}
);
width = 218;
},
{
anchors = (
{
name = bottom;
pos = (132,0);
},
{
name = center;
pos = (132,430);
},
{
name = pdcenter;
pos = (393,375);
},
{
name = top;
pos = (132,730);
},
{
name = topright;
pos = (277,730);
}
);
associatedMasterId = "9527F797-22C1-480E-A1FE-2CDBEBE1FD4C";
layerId = "CB087693-A698-4B9E-A72F-3D4E7CACA1F1";
name = "Apr 14, 26 at 15:45";
shapes = (
{
closed = 1;
nodes = (
(238,23,l),
(199,94,o),
(187,156,o),
(187,280,cs),
(187,730,l),
(77,730,l),
(77,280,ls),
(77,134,o),
(89,67,o),
(131,-20,c)
);
}
);
width = 289;
},
{
anchors = (
{
name = bottom;
pos = (132,0);
},
{
name = center;
pos = (132,430);
},
{
name = pdcenter;
pos = (393,375);
},
{
name = top;
pos = (132,730);
},
{
name = topright;
pos = (277,730);
}
);
layerId = "9527F797-22C1-480E-A1FE-2CDBEBE1FD4C";
name = Medium;
shapes = (
{
closed = 1;
nodes = (
(187,0,l),
(187,730,l),
(77,730,l),
(77,0,l)
);
}
);
width = 264;
},
{
anchors = (
{
name = bottom;
pos = (166,0);
},
{
name = center;
pos = (166,430);
},
{
name = pdcenter;
pos = (427,375);
},
{
name = top;
pos = (166,730);
},
{
name = topright;
pos = (311,730);
}
);
associatedMasterId = "9E6B41AB-2970-4C41-8B35-4DBE0D296A43";
layerId = "E6E764A3-7334-4899-B708-8DAEDF78D6BB";
name = "Apr 14, 26 at 15:46";
shapes = (
{
closed = 1;
nodes = (
(316,56,l),
(280,113,o),
(266,176,o),
(266,280,cs),
(266,730,l),
(66,730,l),
(66,280,ls),
(66,134,o),
(78,67,o),
(120,-20,c)
);
}
);
width = 356;
},
{
anchors = (
{
name = bottom;
pos = (166,0);
},
{
name = center;
pos = (166,430);
},
{
name = pdcenter;
pos = (427,375);
},
{
name = top;
pos = (166,730);
},
{
name = topright;
pos = (311,730);
}
);
layerId = "9E6B41AB-2970-4C41-8B35-4DBE0D296A43";
name = Black;
shapes = (
{
closed = 1;
nodes = (
(266,0,l),
(266,730,l),
(66,730,l),
(66,0,l)
);
}
);
width = 332;
}
);
metricLeft = "=I";
metricRight = "=|";
unicode = 108;
},
{
color = 10;
glyphname = lslash;
kernLeft = o;
kernRight = f;
lastChange = "2026-04-04 01:37:57 +0000";
layers = (
{
layerId = "D65C9A1E-0FCA-4B2D-8EDF-9F36CA9182A1";
metricLeft = "=t*.9";
shapes = (
{
closed = 1;
nodes = (
(362,431,l),
(354,449,l),
(24,299,l),
(32,281,l)
);
},
{
pos = (89,0);
ref = l;
}
);
width = 386;
},
{
layerId = "9527F797-22C1-480E-A1FE-2CDBEBE1FD4C";
metricLeft = "=t*.7";
shapes = (
{
closed = 1;
nodes = (
(451,407,l),
(415,491,l),
(15,323,l),
(51,239,l)
);
},
{
alignment = -1;
pos = (99,0);
ref = l;
}
);
width = 466;
},
{
layerId = "9E6B41AB-2970-4C41-8B35-4DBE0D296A43";
metricLeft = "=t*.5";
shapes = (
{
closed = 1;
nodes = (
(533,393,l),
(478,523,l),
(9,337,l),
(64,207,l)
);
},
{
pos = (106,0);
ref = l;
}
);
width = 542;
}
);
metricLeft = "=t*.5";
metricRight = "=|";
unicode = 322;
},
{
glyphname = m;
kernLeft = m;
kernRight = h;
lastChange = "2026-04-10 06:34:31 +0000";
layers = (
{
layerId = "D65C9A1E-0FCA-4B2D-8EDF-9F36CA9182A1";
shapes = (
{
closed = 1;
nodes = (
(111,0,l),
(111,368,ls),
(111,426,o),
(170,510,o),
(273,510,cs),
(359,510,o),
(392,452,o),
(392,320,cs),
(391,0,l),
(411,0,l),
(411,368,ls),
(411,426,o),
(470,510,o),
(573,510,cs),
(655,510,o),
(691,452,o),
(691,320,cs),
(691,0,l),
(711,0,l),
(711,320,ls),
(711,464,o),
(668,530,o),
(573,530,cs),
(498,530,o),
(434,489,o),
(404,422,c),
(402,422,l),
(384,495,o),
(342,530,o),
(273,530,cs),
(198,530,o),
(134,489,o),
(104,422,c),
(102,422,l),
(95,456,o),
(82,489,o),
(59,530,c),
(41,520,l),
(80,452,o),
(91,408,o),
(91,321,cs),
(91,0,l)
);
}
);
width = 783;
},
{
layerId = "9527F797-22C1-480E-A1FE-2CDBEBE1FD4C";
shapes = (
{
closed = 1;
nodes = (
(184,0,l),
(184,300,ls),
(184,369,o),
(237,434,o),
(294,434,cs),
(341,434,o),
(358,400,o),
(358,305,cs),
(358,0,l),
(464,0,l),
(464,300,ls),
(464,369,o),
(517,434,o),
(574,434,cs),
(621,434,o),
(638,400,o),
(638,305,cs),
(638,0,l),
(746,0,l),
(746,305,ls),
(746,459,o),
(701,530,o),
(604,530,cs),
(539,530,o),
(486,498,o),
(450,438,c),
(448,438,l),
(430,500,o),
(388,530,o),
(322,530,cs),
(256,530,o),
(207,500,o),
(170,438,c),
(168,438,l),
(164,468,o),
(152,499,o),
(131,534,c),
(26,492,l),
(64,423,o),
(76,370,o),
(76,271,cs),
(76,0,l)
);
}
);
width = 802;
},
{
layerId = "9E6B41AB-2970-4C41-8B35-4DBE0D296A43";
shapes = (
{
closed = 1;
nodes = (
(268,0,l),
(268,320,ls),
(268,346,o),
(286,370,o),
(306,370,cs),
(332,370,o),
(338,355,o),
(338,290,cs),
(338,0,l),
(526,0,l),
(526,320,ls),
(526,346,o),
(544,370,o),
(564,370,cs),
(590,370,o),
(596,355,o),
(596,290,cs),
(596,0,l),
(792,0,l),
(792,290,ls),
(792,455,o),
(746,530,o),
(646,530,cs),
(591,530,o),
(551,508,o),
(508,455,c),
(506,455,l),
(488,505,o),
(447,530,o),
(383,530,cs),
(328,530,o),
(294,511,o),
(250,455,c),
(248,455,l),
(239,487,o),
(228,513,o),
(214,536,c),
(22,460,l),
(58,399,o),
(72,332,o),
(72,220,cs),
(72,0,l)
);
}
);
width = 840;
},
{
associatedMasterId = "D65C9A1E-0FCA-4B2D-8EDF-9F36CA9182A1";
attr = {
coordinates = (
232
);
};
layerId = "0CBD3FAB-BA75-4DFC-AD86-B9F788B7BCE9";
name = "{232}";
shapes = (
{
closed = 1;
nodes = (
(131,0,l),
(131,346,ls),
(131,407,o),
(188,485,o),
(276,485,cs),
(349,485,o),
(376,435,o),
(376,315,cs),
(376,0,l),
(424,0,l),
(424,346,ls),
(424,407,o),
(481,485,o),
(569,485,cs),
(639,485,o),
(669,435,o),
(669,315,cs),
(669,0,l),
(718,0,l),
(718,315,ls),
(718,462,o),
(675,530,o),
(579,530,cs),
(505,530,o),
(444,495,o),
(412,435,c),
(410,435,l),
(392,499,o),
(351,530,o),
(285,530,cs),
(212,530,o),
(151,495,o),
(119,435,c),
(117,435,l),
(111,465,o),
(99,496,o),
(78,531,c),
(32,511,l),
(71,442,o),
(82,395,o),
(82,305,cs),
(82,0,l)
);
}
);
width = 785;
}
);
metricLeft = "=|d*.9";
metricRight = "=h";
unicode = 109;
},
{
glyphname = n;
kernLeft = m;
kernRight = h;
lastChange = "2026-04-10 07:11:04 +0000";
layers = (
{
anchors = (
{
name = bottom;
pos = (301,0);
},
{
name = top;
pos = (301,520);
}
);
layerId = "D65C9A1E-0FCA-4B2D-8EDF-9F36CA9182A1";
shapes = (
{
closed = 1;
nodes = (
(111,0,l),
(111,368,ls),
(111,453,o),
(230,510,o),
(325,510,cs),
(414,510,o),
(471,438,o),
(471,320,cs),
(471,0,l),
(491,0,l),
(491,320,ls),
(491,448,o),
(426,530,o),
(325,530,cs),
(232,530,o),
(138,484,o),
(104,422,c),
(102,422,l),
(95,456,o),
(82,489,o),
(59,530,c),
(41,520,l),
(80,452,o),
(91,408,o),
(91,321,cs),
(91,0,l)
);
}
);
width = 563;
},
{
anchors = (
{
name = bottom;
pos = (306,0);
},
{
name = top;
pos = (306,520);
}
);
background = {
anchors = (
{
name = bottom;
pos = (307,0);
},
{
name = top;
pos = (307,520);
}
);
};
layerId = "9527F797-22C1-480E-A1FE-2CDBEBE1FD4C";
shapes = (
{
closed = 1;
nodes = (
(184,0,l),
(184,300,ls),
(184,371,o),
(254,436,o),
(331,436,cs),
(390,436,o),
(418,394,o),
(418,305,cs),
(418,0,l),
(526,0,l),
(526,305,ls),
(526,457,o),
(469,530,o),
(351,530,cs),
(275,530,o),
(216,500,o),
(170,438,c),
(168,438,l),
(164,468,o),
(152,499,o),
(131,534,c),
(26,492,l),
(64,423,o),
(76,370,o),
(76,271,cs),
(76,0,l)
);
}
);
width = 582;
},
{
anchors = (
{
name = bottom;
pos = (322,0);
},
{
name = top;
pos = (322,520);
}
);
layerId = "9E6B41AB-2970-4C41-8B35-4DBE0D296A43";
shapes = (
{
closed = 1;
nodes = (
(268,0,l),
(268,320,ls),
(268,343,o),
(308,370,o),
(342,370,cs),
(370,370,o),
(378,352,o),
(378,290,cs),
(378,0,l),
(572,0,l),
(572,290,ls),
(572,457,o),
(523,530,o),
(411,530,cs),
(348,530,o),
(299,507,o),
(250,455,c),
(248,455,l),
(239,487,o),
(228,513,o),
(214,536,c),
(22,460,l),
(58,399,o),
(72,332,o),
(72,220,cs),
(72,0,l)
);
}
);
width = 620;
},
{
anchors = (
{
name = bottom;
pos = (298,0);
},
{
name = top;
pos = (298,520);
}
);
associatedMasterId = "D65C9A1E-0FCA-4B2D-8EDF-9F36CA9182A1";
attr = {
coordinates = (
232
);
};
layerId = "899DC2DC-F451-4B84-9275-F30D30733E24";
name = "{232}";
shapes = (
{
closed = 1;
nodes = (
(131,0,l),
(131,346,ls),
(131,418,o),
(224,486,o),
(323,486,cs),
(402,486,o),
(449,423,o),
(449,315,cs),
(449,0,l),
(498,0,l),
(498,315,ls),
(498,451,o),
(436,530,o),
(329,530,cs),
(242,530,o),
(158,492,o),
(120,435,c),
(118,435,l),
(112,466,o),
(99,498,o),
(79,531,c),
(32,510,l),
(71,441,o),
(82,396,o),
(82,305,cs),
(82,0,l)
);
}
);
width = 565;
}
);
metricLeft = "=m";
metricRight = "=h";
unicode = 110;
},
{
color = 10;
glyphname = eng;
kernLeft = n;
kernRight = g;
lastChange = "2026-04-10 06:34:36 +0000";
layers = (
{
anchors = (
{
name = bottom;
pos = (291,0);
},
{
name = top;
pos = (291,520);
}
);
layerId = "D65C9A1E-0FCA-4B2D-8EDF-9F36CA9182A1";
shapes = (
{
closed = 1;
nodes = (
(457,-211,o),
(500,-164,o),
(500,-61,cs),
(500,300,ls),
(500,451,o),
(436,530,o),
(310,530,cs),
(214,530,o),
(142,484,o),
(112,409,c),
(110,409,l),
(110,520,l),
(90,520,l),
(90,0,l),
(110,0,l),
(110,310,ls),
(110,432,o),
(189,510,o),
(310,510,cs),
(424,510,o),
(480,441,o),
(480,300,cs),
(480,-61,ls),
(480,-153,o),
(445,-191,o),
(360,-191,cs),
(335,-191,o),
(309,-186,o),
(287,-177,c),
(281,-196,l),
(305,-205,o),
(333,-211,o),
(360,-211,cs)
);
}
);
width = 572;
},
{
anchors = (
{
name = bottom;
pos = (301,0);
},
{
name = top;
pos = (301,520);
}
);
layerId = "9527F797-22C1-480E-A1FE-2CDBEBE1FD4C";
shapes = (
{
closed = 1;
nodes = (
(488,-221,o),
(540,-163,o),
(540,-26,cs),
(540,300,ls),
(540,458,o),
(483,530,o),
(357,530,cs),
(281,530,o),
(222,504,o),
(176,450,c),
(174,450,l),
(173,520,l),
(70,520,l),
(70,0,l),
(178,0,l),
(178,290,ls),
(178,372,o),
(245,440,o),
(327,440,cs),
(398,440,o),
(432,388,o),
(432,280,cs),
(432,-26,ls),
(432,-97,o),
(406,-126,o),
(342,-126,cs),
(317,-126,o),
(291,-122,o),
(267,-114,c),
(252,-205,l),
(289,-216,o),
(327,-221,o),
(364,-221,cs)
);
}
);
width = 596;
},
{
anchors = (
{
name = bottom;
pos = (322,0);
},
{
name = top;
pos = (322,520);
}
);
layerId = "9E6B41AB-2970-4C41-8B35-4DBE0D296A43";
shapes = (
{
closed = 1;
nodes = (
(535,-229,o),
(590,-169,o),
(590,0,cs),
(590,300,ls),
(590,464,o),
(540,530,o),
(415,530,cs),
(343,530,o),
(297,508,o),
(250,450,c),
(248,450,l),
(246,520,l),
(60,520,l),
(60,0,l),
(256,0,l),
(256,290,ls),
(256,334,o),
(291,370,o),
(335,370,cs),
(377,370,o),
(394,338,o),
(394,260,cs),
(394,0,ls),
(394,-54,o),
(381,-70,o),
(335,-70,cs),
(313,-70,o),
(280,-66,o),
(252,-59,c),
(232,-214,l),
(280,-223,o),
(330,-229,o),
(378,-229,cs)
);
}
);
width = 638;
},
{
anchors = (
{
name = bottom;
pos = (294,0);
},
{
name = top;
pos = (294,520);
}
);
associatedMasterId = "D65C9A1E-0FCA-4B2D-8EDF-9F36CA9182A1";
attr = {
coordinates = (
232
);
};
layerId = "79FE56B5-3AAC-4AE6-A914-FF8F134DF163";
name = "{232}";
shapes = (
{
closed = 1;
nodes = (
(467,-214,o),
(513,-164,o),
(513,-49,cs),
(513,300,ls),
(513,453,o),
(451,530,o),
(325,530,cs),
(240,530,o),
(169,495,o),
(134,436,c),
(132,436,l),
(132,520,l),
(83,520,l),
(83,0,l),
(132,0,l),
(132,303,ls),
(132,412,o),
(207,487,o),
(315,487,cs),
(415,487,o),
(463,424,o),
(463,293,cs),
(463,-49,ls),
(463,-135,o),
(431,-170,o),
(354,-170,cs),
(329,-170,o),
(303,-165,o),
(280,-156,c),
(271,-199,l),
(300,-209,o),
(331,-214,o),
(361,-214,cs)
);
}
);
width = 580;
}
);
metricLeft = "=h";
metricRight = "=h";
unicode = 331;
},
{
glyphname = o;
kernLeft = o;
kernRight = o;
lastChange = "2026-04-10 07:02:14 +0000";
layers = (
{
anchors = (
{
name = bottom;
pos = (277,0);
},
{
name = center;
pos = (277,260);
},
{
name = ogonek;
pos = (363,0);
},
{
name = top;
pos = (277,520);
},
{
name = topright;
pos = (432,454);
}
);
background = {
anchors = (
{
name = bottom;
pos = (275,0);
},
{
name = center;
pos = (275,260);
},
{
name = ogonek;
pos = (322,0);
},
{
name = top;
pos = (275,520);
},
{
name = topright;
pos = (401,450);
}
);
};
layerId = "D65C9A1E-0FCA-4B2D-8EDF-9F36CA9182A1";
shapes = (
{
closed = 1;
nodes = (
(422,-10,o),
(505,88,o),
(505,260,cs),
(505,432,o),
(422,530,o),
(275,530,cs),
(128,530,o),
(45,432,o),
(45,260,cs),
(45,88,o),
(128,-10,o),
(275,-10,cs)
);
},
{
closed = 1;
nodes = (
(140,10,o),
(65,98,o),
(65,260,cs),
(65,422,o),
(140,510,o),
(275,510,cs),
(410,510,o),
(485,422,o),
(485,260,cs),
(485,98,o),
(410,10,o),
(275,10,cs)
);
}
);
width = 550;
},
{
anchors = (
{
name = bottom;
pos = (281,0);
},
{
name = center;
pos = (281,260);
},
{
name = ogonek;
pos = (357,0);
},
{
name = top;
pos = (281,520);
},
{
name = topright;
pos = (429,453);
}
);
background = {
anchors = (
{
name = bottom;
pos = (290,0);
},
{
name = center;
pos = (290,260);
},
{
name = ogonek;
pos = (357,0);
},
{
name = top;
pos = (290,520);
},
{
name = topright;
pos = (431,452);
}
);
};
layerId = "9527F797-22C1-480E-A1FE-2CDBEBE1FD4C";
shapes = (
{
closed = 1;
nodes = (
(455,-10,o),
(545,85,o),
(545,260,cs),
(545,435,o),
(455,530,o),
(290,530,cs),
(125,530,o),
(35,435,o),
(35,260,cs),
(35,85,o),
(125,-10,o),
(290,-10,cs)
);
},
{
closed = 1;
nodes = (
(194,80,o),
(143,142,o),
(143,260,cs),
(143,378,o),
(194,440,o),
(290,440,cs),
(386,440,o),
(437,378,o),
(437,260,cs),
(437,142,o),
(386,80,o),
(290,80,cs)
);
}
);
width = 580;
},
{
anchors = (
{
name = bottom;
pos = (289,0);
},
{
name = center;
pos = (289,260);
},
{
name = ogonek;
pos = (356,0);
},
{
name = top;
pos = (289,520);
},
{
name = topright;
pos = (430,452);
}
);
background = {
anchors = (
{
name = bottom;
pos = (310,0);
},
{
name = center;
pos = (310,260);
},
{
name = ogonek;
pos = (396,0);
},
{
name = top;
pos = (310,520);
},
{
name = topright;
pos = (465,454);
}
);
};
layerId = "9E6B41AB-2970-4C41-8B35-4DBE0D296A43";
shapes = (
{
closed = 1;
nodes = (
(494,-10,o),
(590,83,o),
(590,260,cs),
(590,437,o),
(494,530,o),
(310,530,cs),
(126,530,o),
(30,437,o),
(30,260,cs),
(30,83,o),
(126,-10,o),
(310,-10,cs)
);
},
{
closed = 1;
nodes = (
(253,130,o),
(226,172,o),
(226,260,cs),
(226,348,o),
(253,390,o),
(310,390,cs),
(367,390,o),
(394,348,o),
(394,260,cs),
(394,172,o),
(367,130,o),
(310,130,cs)
);
}
);
width = 620;
}
);
metricLeft = "=h*.5";
metricRight = "=|";
unicode = 111;
},
{
color = 10;
glyphname = oogonek;
kernLeft = o;
kernRight = o;
lastChange = "2025-03-19 05:50:49 +0000";
layers = (
{
layerId = "D65C9A1E-0FCA-4B2D-8EDF-9F36CA9182A1";
shapes = (
{
closed = 1;
nodes = (
(322,-220,o),
(344,-214,o),
(362,-203,c),
(354,-185,l),
(335,-195,o),
(316,-200,o),
(298,-200,cs),
(256,-200,o),
(235,-178,o),
(235,-135,cs),
(235,-79,o),
(280,-32,o),
(367,1,c),
(343.493,10.235,l),
(258.577,-25.997,o),
(215,-75.154,o),
(215,-135,cs),
(215,-191,o),
(243,-220,o),
(298,-220,cs)
);
},
{
ref = o;
}
);
width = 580;
},
{
layerId = "9527F797-22C1-480E-A1FE-2CDBEBE1FD4C";
shapes = (
{
closed = 1;
nodes = (
(338,-217,o),
(364,-213,o),
(387,-205,c),
(370,-120,l),
(357,-127,o),
(343,-130,o),
(328,-130,cs),
(303,-130,o),
(290,-117,o),
(290,-93,cs),
(290,-65,o),
(328,-29,o),
(393,4,c),
(287.095,25.887,l),
(221.459,-16.674,o),
(188,-62.85,o),
(188,-112,cs),
(188,-179,o),
(232,-217,o),
(309,-217,cs)
);
},
{
ref = o;
}
);
width = 598;
},
{
layerId = "9E6B41AB-2970-4C41-8B35-4DBE0D296A43";
shapes = (
{
closed = 1;
nodes = (
(398,-220,o),
(422,-217,o),
(445,-210,c),
(430,-75,l),
(415,-81,o),
(396,-85,o),
(382,-85,cs),
(355,-85,o),
(341,-75,o),
(341,-57,cs),
(341,-33,o),
(369,-12,o),
(427,10,c),
(261.068,52.505,l),
(194.222,4.112,o),
(165,-34.187,o),
(165,-82,cs),
(165,-170,o),
(238,-220,o),
(370,-220,cs)
);
},
{
ref = o;
}
);
width = 614;
}
);
unicode = 491;
},
{
color = 10;
glyphname = oslash;
kernLeft = o;
kernRight = o;
lastChange = "2025-03-19 05:50:49 +0000";
layers = (
{
anchors = (
{
name = bottom;
pos = (292,0);
},
{
name = center;
pos = (292,260);
},
{
name = ogonek;
pos = (339,0);
},
{
name = top;
pos = (292,520);
},
{
name = topright;
pos = (438,480);
}
);
layerId = "D65C9A1E-0FCA-4B2D-8EDF-9F36CA9182A1";
shapes = (
{
closed = 1;
nodes = (
(146,46,l),
(146,46,l),
(454,462,l),
(454,462,l),
(500,524,l),
(484,536,l),
(438,474,l),
(438,474,l),
(130,58,l),
(130,58,l),
(84,-4,l),
(100,-16,l)
);
},
{
ref = o;
}
);
width = 546;
},
{
anchors = (
{
name = bottom;
pos = (303,0);
},
{
name = center;
pos = (303,260);
},
{
name = ogonek;
pos = (369,0);
},
{
name = top;
pos = (303,520);
},
{
name = topright;
pos = (463,482);
}
);
layerId = "9527F797-22C1-480E-A1FE-2CDBEBE1FD4C";
shapes = (
{
closed = 1;
nodes = (
(186,35,l),
(186,35,l),
(484,437,l),
(484,437,l),
(535,506,l),
(471,554,l),
(420,485,l),
(420,485,l),
(122,83,l),
(122,83,l),
(71,14,l),
(135,-34,l)
);
},
{
ref = o;
}
);
width = 578;
},
{
anchors = (
{
name = bottom;
pos = (314,0);
},
{
name = center;
pos = (314,260);
},
{
name = ogonek;
pos = (400,0);
},
{
name = top;
pos = (314,520);
},
{
name = topright;
pos = (489,484);
}
);
layerId = "9E6B41AB-2970-4C41-8B35-4DBE0D296A43";
shapes = (
{
closed = 1;
nodes = (
(194,14,l),
(186,20,l),
(506,452,l),
(514,446,l),
(554,500,l),
(474,560,l),
(434,506,l),
(442,500,l),
(122,68,l),
(114,74,l),
(74,20,l),
(154,-40,l)
);
},
{
ref = o;
}
);
width = 610;
}
);
unicode = 248;
},
{
color = 10;
glyphname = oe;
kernLeft = o;
kernRight = o;
lastChange = "2026-04-09 09:05:23 +0000";
layers = (
{
anchors = (
{
name = bottom;
pos = (505,0);
},
{
name = top;
pos = (505,520);
}
);
layerId = "D65C9A1E-0FCA-4B2D-8EDF-9F36CA9182A1";
shapes = (
{
closed = 1;
nodes = (
(824,-10,o),
(890,11,o),
(940,50,c),
(928,66,l),
(881,29,o),
(820,10,o),
(752,10,cs),
(609,10,o),
(530,97,o),
(530,260,c),
(530,260,l),
(530,418,o),
(610,510,o),
(745,510,cs),
(873,510,o),
(940,428,o),
(940,268,c),
(950,278,l),
(520,278,l),
(520,258,l),
(960,258,l),
(960,263,o),
(960,263,o),
(960,268,cs),
(960,438,o),
(885,530,o),
(745,530,cs),
(598,530,o),
(510,428,o),
(510,260,cs),
(510,87,o),
(597,-10,o),
(752,-10,cs)
);
},
{
ref = o;
}
);
width = 1005;
},
{
anchors = (
{
name = bottom;
pos = (489,0);
},
{
name = top;
pos = (489,520);
}
);
layerId = "9527F797-22C1-480E-A1FE-2CDBEBE1FD4C";
shapes = (
{
closed = 1;
nodes = (
(797,-10,o),
(865,8,o),
(916,39,c),
(897,126,l),
(847,97,o),
(785,80,o),
(723,80,cs),
(613,80,o),
(557,134,o),
(557,240,cs),
(557,270,l),
(557,382,o),
(608,442,o),
(704,442,cs),
(795,442,o),
(840,387,o),
(840,274,c),
(857,300,l),
(511,300,l),
(511,215,l),
(939,215,l),
(940,227,o),
(941,251,o),
(941,269,cs),
(941,436,o),
(856,530,o),
(704,530,cs),
(546,530,o),
(451,428,o),
(451,260,cs),
(451,87,o),
(548,-10,o),
(722,-10,cs)
);
},
{
ref = o;
}
);
width = 976;
},
{
anchors = (
{
name = bottom;
pos = (474,0);
},
{
name = top;
pos = (474,520);
}
);
layerId = "9E6B41AB-2970-4C41-8B35-4DBE0D296A43";
shapes = (
{
closed = 1;
nodes = (
(767,-10,o),
(842,5,o),
(891,28,c),
(871,168,l),
(824,146,o),
(752,130,o),
(693,130,cs),
(616,130,o),
(583,157,o),
(583,220,cs),
(583,280,ls),
(583,367,o),
(607,405,o),
(661,405,cs),
(715,405,o),
(739,367,o),
(739,280,c),
(762,315,l),
(501,315,l),
(501,200,l),
(917,200,l),
(919,211,o),
(921,246,o),
(921,270,cs),
(921,434,o),
(825,530,o),
(661,530,cs),
(493,530,o),
(391,428,o),
(391,260,cs),
(391,87,o),
(499,-10,o),
(691,-10,cs)
);
},
{
ref = o;
}
);
width = 951;
}
);
metricLeft = "=o";
metricRight = "=e";
unicode = 339;
},
{
color = 10;
glyphname = thorn;
kernLeft = b;
kernRight = o;
lastChange = "2025-03-22 12:04:40 +0000";
layers = (
{
layerId = "D65C9A1E-0FCA-4B2D-8EDF-9F36CA9182A1";
shapes = (
{
closed = 1;
nodes = (
(119,-240,l),
(119,120,l),
(121,120,l),
(155,39,o),
(226,-10,o),
(319,-10,cs),
(454,-10,o),
(533,91,o),
(533,260,cs),
(533,429,o),
(454,530,o),
(319,530,cs),
(226,530,o),
(155,481,o),
(121,400,c),
(119,400,l),
(119,760,l),
(99,760,l),
(99,-240,l)
);
},
{
closed = 1;
nodes = (
(197,10,o),
(119,100,o),
(119,235,cs),
(119,285,ls),
(119,420,o),
(197,510,o),
(319,510,cs),
(442,510,o),
(513,419,o),
(513,260,cs),
(513,101,o),
(442,10,o),
(319,10,cs)
);
}
);
width = 583;
},
{
layerId = "9527F797-22C1-480E-A1FE-2CDBEBE1FD4C";
shapes = (
{
closed = 1;
nodes = (
(185,-240,l),
(185,68,l),
(187,68,l),
(228,16,o),
(283,-10,o),
(354,-10,cs),
(493,-10,o),
(574,89,o),
(574,260,cs),
(574,431,o),
(494,530,o),
(354,530,cs),
(283,530,o),
(228,504,o),
(187,452,c),
(185,452,l),
(185,760,l),
(77,760,l),
(77,-240,l)
);
},
{
closed = 1;
nodes = (
(238,80,o),
(185,146,o),
(185,240,cs),
(185,280,ls),
(185,374,o),
(238,440,o),
(327,440,cs),
(416,440,o),
(467,375,o),
(467,260,cs),
(467,145,o),
(416,80,o),
(327,80,cs)
);
}
);
width = 613;
},
{
layerId = "9E6B41AB-2970-4C41-8B35-4DBE0D296A43";
shapes = (
{
closed = 1;
nodes = (
(250,-240,l),
(250,60,l),
(252,60,l),
(297,11,o),
(343,-10,o),
(405,-10,cs),
(538,-10,o),
(614,88,o),
(614,260,cs),
(614,432,o),
(538,530,o),
(405,530,cs),
(343,530,o),
(297,509,o),
(252,460,c),
(250,460,l),
(250,760,l),
(54,760,l),
(54,-240,l)
);
},
{
closed = 1;
nodes = (
(276,140,o),
(250,177,o),
(250,240,cs),
(250,280,ls),
(250,343,o),
(276,380,o),
(334,380,cs),
(394,380,o),
(422,341,o),
(422,260,cs),
(422,179,o),
(394,140,o),
(334,140,cs)
);
}
);
width = 641;
},
{
associatedMasterId = "D65C9A1E-0FCA-4B2D-8EDF-9F36CA9182A1";
attr = {
coordinates = (
232
);
};
layerId = "0BCAABAB-37FB-445D-B33E-60B4C38D96A8";
name = "{232}";
shapes = (
{
closed = 1;
nodes = (
(141,-240,l),
(141,90,l),
(143,90,l),
(179,27,o),
(247,-10,o),
(331,-10,cs),
(469,-10,o),
(547,88,o),
(547,260,cs),
(547,432,o),
(469,530,o),
(331,530,cs),
(247,530,o),
(179,493,o),
(143,430,c),
(141,430,l),
(141,760,l),
(92,760,l),
(92,-240,l)
);
},
{
closed = 1;
nodes = (
(211,33,o),
(141,115,o),
(141,237,cs),
(141,283,ls),
(141,405,o),
(211,487,o),
(322,487,cs),
(433,487,o),
(498,404,o),
(498,260,cs),
(498,116,o),
(433,33,o),
(322,33,cs)
);
}
);
width = 593;
}
);
unicode = 254;
},
{
glyphname = r;
kernLeft = m;
kernRight = f;
lastChange = "2026-04-08 08:09:50 +0000";
layers = (
{
anchors = (
{
name = bottom;
pos = (179,0);
},
{
name = top;
pos = (268,520);
}
);
layerId = "D65C9A1E-0FCA-4B2D-8EDF-9F36CA9182A1";
metricRight = "=f*.4";
shapes = (
{
closed = 1;
nodes = (
(111,0,l),
(111,355,ls),
(111,419,o),
(281,510,o),
(431,510,c),
(431,530,l),
(310,530,o),
(166,473,o),
(108,402,c),
(106,402,l),
(99,445,o),
(87,479,o),
(59,530,c),
(41,520,l),
(80,452,o),
(91,408,o),
(91,321,cs),
(91,0,l)
);
}
);
width = 440;
},
{
anchors = (
{
name = bottom;
pos = (168,0);
},
{
name = top;
pos = (257,520);
}
);
layerId = "9527F797-22C1-480E-A1FE-2CDBEBE1FD4C";
metricRight = "=f*.6";
shapes = (
{
closed = 1;
nodes = (
(185,0,l),
(184,295,ls),
(183,373,o),
(305,432,o),
(466,432,c),
(466,530,l),
(362,530,o),
(226,483,o),
(173,429,c),
(171,429,l),
(161,474,o),
(150,503,o),
(131,534,c),
(26,492,l),
(64,423,o),
(76,370,o),
(76,271,cs),
(76,0,l)
);
}
);
width = 476;
},
{
anchors = (
{
name = bottom;
pos = (171,0);
},
{
name = top;
pos = (260,520);
}
);
associatedMasterId = "D65C9A1E-0FCA-4B2D-8EDF-9F36CA9182A1";
attr = {
coordinates = (
232
);
};
background = {
anchors = (
{
name = bottom;
pos = (171,0);
},
{
name = top;
pos = (260,520);
}
);
};
layerId = "657C252B-5EEF-4E2C-9A2A-557819CBA416";
metricRight = "=f*.4.2";
name = "{232}";
shapes = (
{
closed = 1;
nodes = (
(131,0,l),
(131,335,ls),
(131,406,o),
(292,484,o),
(439,484,c),
(439,530,l),
(322,530,o),
(180,479,o),
(124,417,c),
(122,417,l),
(115,454,o),
(100,493,o),
(78,531,c),
(32,510,l),
(71,441,o),
(82,396,o),
(82,305,cs),
(82,0,l)
);
}
);
width = 523;
},
{
anchors = (
{
name = bottom;
pos = (169,0);
},
{
name = top;
pos = (258,520);
}
);
layerId = "9E6B41AB-2970-4C41-8B35-4DBE0D296A43";
metricRight = "=f*.8";
shapes = (
{
closed = 1;
nodes = (
(270,0,l),
(268,254,ls),
(267,341,o),
(334,374,o),
(512,374,c),
(512,530,l),
(425,530,o),
(299,494,o),
(250,455,c),
(248,455,l),
(239,487,o),
(228,513,o),
(214,536,c),
(22,460,l),
(58,399,o),
(72,332,o),
(72,220,cs),
(72,0,l)
);
}
);
width = 523;
}
);
metricLeft = "=m";
metricRight = "=f*.8";
unicode = 114;
},
{
glyphname = s;
kernLeft = s;
kernRight = s;
lastChange = "2026-04-10 07:23:22 +0000";
layers = (
{
anchors = (
{
name = bottom;
pos = (239,0);
},
{
name = cedi;
pos = (188,-1);
},
{
name = top;
pos = (239,520);
}
);
layerId = "D65C9A1E-0FCA-4B2D-8EDF-9F36CA9182A1";
shapes = (
{
closed = 1;
nodes = (
(360,-10,o),
(435,43,o),
(435,132,cs),
(435,330,o),
(65,235,o),
(65,398,cs),
(65,466,o),
(127,510,o),
(238,510,cs),
(303,510,o),
(370,495,o),
(408,473,c),
(418,490,l),
(377,514,o),
(306,530,o),
(238,530,cs),
(118,530,o),
(45,480,o),
(45,398,cs),
(45,211,o),
(415,311,o),
(415,132,cs),
(415,56,o),
(351,10,o),
(235,10,cs),
(170,10,o),
(104,25,o),
(55,51,c),
(46,33,l),
(97,6,o),
(167,-10,o),
(235,-10,cs)
);
}
);
width = 480;
},
{
anchors = (
{
name = bottom;
pos = (240,0);
},
{
name = cedi;
pos = (189,-1);
},
{
name = top;
pos = (240,520);
}
);
layerId = "9527F797-22C1-480E-A1FE-2CDBEBE1FD4C";
shapes = (
{
closed = 1;
nodes = (
(390,-10,o),
(475,47,o),
(475,143,cs),
(475,331,o),
(145,281,o),
(145,383,cs),
(145,420,o),
(185,440,o),
(257,440,cs),
(315,440,o),
(379,427,o),
(438,404,c),
(457,491,l),
(398,517,o),
(332,530,o),
(260,530,cs),
(116,530,o),
(35,478,o),
(35,385,cs),
(35,198,o),
(363,251,o),
(363,144,cs),
(363,101,o),
(328,80,o),
(251,80,cs),
(188,80,o),
(118,94,o),
(56,119,c),
(37,32,l),
(95,6,o),
(173,-10,o),
(248,-10,cs)
);
}
);
width = 510;
},
{
anchors = (
{
name = bottom;
pos = (247,0);
},
{
name = cedi;
pos = (196,-1);
},
{
name = top;
pos = (247,520);
}
);
layerId = "9E6B41AB-2970-4C41-8B35-4DBE0D296A43";
name = Black;
shapes = (
{
closed = 1;
nodes = (
(428,-10,o),
(520,49,o),
(520,153,cs),
(520,336,o),
(230,302,o),
(230,367,cs),
(230,384,o),
(244,390,o),
(282,390,cs),
(333,390,o),
(395,379,o),
(472,356,c),
(502,492,l),
(426,519,o),
(364,530,o),
(288,530,cs),
(120,530,o),
(30,475,o),
(30,372,cs),
(30,188,o),
(317,215,o),
(317,155,cs),
(317,135,o),
(308,130,o),
(272,130,cs),
(214,130,o),
(139,143,o),
(64,166,c),
(34,30,l),
(98,5,o),
(185,-10,o),
(267,-10,cs)
);
}
);
width = 550;
}
);
metricLeft = "=h*.5";
metricRight = "=|";
unicode = 115;
},
{
color = 10;
glyphname = germandbls;
kernLeft = h;
kernRight = X;
lastChange = "2026-04-03 14:14:21 +0000";
layers = (
{
layerId = "D65C9A1E-0FCA-4B2D-8EDF-9F36CA9182A1";
metricRight = "=X*.7";
shapes = (
{
closed = 1;
nodes = (
(465,-10,o),
(539,57,o),
(539,160,cs),
(539,224,o),
(514,264,o),
(411,360,cs),
(369,400,o),
(359,411,o),
(359,420,cs),
(359,427,o),
(365,436,o),
(398,473,cs),
(459,540,o),
(479,574,o),
(479,620,cs),
(479,712,o),
(421,760,o),
(309,760,cs),
(171,760,o),
(99,683,o),
(99,535,cs),
(99,0,l),
(119,0,l),
(119,535,ls),
(119,670,o),
(184,740,o),
(309,740,cs),
(408,740,o),
(459,699,o),
(459,620,cs),
(459,580,o),
(442,550,o),
(383,486,cs),
(353,453,o),
(339,436,o),
(339,420,cs),
(339,401,o),
(357,383,o),
(397,345,cs),
(495,252,o),
(519,218,o),
(519,160,cs),
(519,69,o),
(455,10,o),
(354,10,cs),
(312,10,o),
(248,20,o),
(197,35,c),
(191,15,l),
(246,0,o),
(310,-10,o),
(354,-10,cs)
);
}
);
width = 552;
},
{
layerId = "9527F797-22C1-480E-A1FE-2CDBEBE1FD4C";
metricRight = "=X*.9";
shapes = (
{
closed = 1;
nodes = (
(496,-10,o),
(569,51,o),
(569,153,cs),
(569,209,o),
(547,252,o),
(475,329,cs),
(429,378,o),
(419,391,o),
(419,403,cs),
(419,412,o),
(431,426,o),
(463,469,cs),
(508,528,o),
(514,560,o),
(514,595,cs),
(514,703,o),
(443,760,o),
(308,760,cs),
(156,760,o),
(77,674,o),
(77,508,cs),
(77,0,l),
(185,0,l),
(185,507,ls),
(185,611,o),
(229,665,o),
(313,665,cs),
(375,665,o),
(408,639,o),
(408,589,cs),
(408,567,o),
(401,541,o),
(358,489,cs),
(319,440,o),
(308,420,o),
(308,398,cs),
(308,372,o),
(324,345,o),
(366,300,cs),
(448,214,o),
(463,193,o),
(463,164,cs),
(463,116,o),
(422,85,o),
(358,85,cs),
(329,85,o),
(291,92,o),
(255,103,c),
(240,8,l),
(288,-4,o),
(337,-10,o),
(375,-10,cs)
);
}
);
width = 582;
},
{
layerId = "9E6B41AB-2970-4C41-8B35-4DBE0D296A43";
metricRight = "=X*1.1";
shapes = (
{
closed = 1;
nodes = (
(524,-10,o),
(599,47,o),
(599,145,cs),
(599,192,o),
(582,232,o),
(539,288,cs),
(508,327,o),
(485,365,o),
(485,377,cs),
(485,386,o),
(497,407,o),
(535,465,cs),
(563,508,o),
(565,541,o),
(565,570,cs),
(565,689,o),
(472,760,o),
(314,760,cs),
(151,760,o),
(54,671,o),
(54,520,cs),
(54,0,l),
(250,0,l),
(250,513,ls),
(250,568,o),
(277,600,o),
(322,600,cs),
(355,600,o),
(375,581,o),
(375,548,cs),
(375,531,o),
(368,500,o),
(347,474,cs),
(308,425,o),
(295,400,o),
(295,375,cs),
(295,351,o),
(307,330,o),
(349,274,cs),
(391,218,o),
(403,196,o),
(403,177,cs),
(403,156,o),
(388,145,o),
(360,145,cs),
(346,145,o),
(326,148,o),
(300,155,c),
(290,0,l),
(334,-7,o),
(366,-10,o),
(395,-10,cs)
);
}
);
width = 612;
}
);
metricRight = "=X*1.1";
unicode = 223;
},
{
glyphname = t;
kernLeft = f;
kernRight = c;
lastChange = "2026-04-14 08:15:58 +0000";
layers = (
{
anchors = (
{
name = bottom;
pos = (231,0);
},
{
name = cedi;
pos = (249,0);
},
{
name = center;
pos = (231,260);
},
{
name = top;
pos = (231,520);
},
{
name = topright;
pos = (418,520);
}
);
background = {
anchors = (
{
name = bottom;
pos = (238,0);
},
{
name = cedi;
pos = (209,0);
},
{
name = center;
pos = (238,260);
},
{
name = top;
pos = (238,520);
},
{
name = topright;
pos = (490,520);
}
);
};
layerId = "D65C9A1E-0FCA-4B2D-8EDF-9F36CA9182A1";
shapes = (
{
closed = 1;
nodes = (
(352,-10,o),
(391,-4,o),
(424,7,c),
(418,26,l),
(386,15,o),
(350,10,o),
(313,10,cs),
(219,10,o),
(188,44,o),
(188,150,cs),
(188,500,l),
(427,500,l),
(427,520,l),
(188,520,l),
(188,690,l),
(168,690,l),
(168,520,l),
(27,520,l),
(27,500,l),
(168,500,l),
(168,150,ls),
(168,33,o),
(207,-10,o),
(313,-10,cs)
);
}
);
width = 492;
},
{
anchors = (
{
name = bottom;
pos = (242,0);
},
{
name = cedi;
pos = (236,0);
},
{
name = center;
pos = (242,260);
},
{
name = top;
pos = (242,520);
},
{
name = topright;
pos = (461,520);
}
);
layerId = "9527F797-22C1-480E-A1FE-2CDBEBE1FD4C";
shapes = (
{
closed = 1;
nodes = (
(362,-10,o),
(403,-4,o),
(448,9,c),
(429,96,l),
(400,87,o),
(366,82,o),
(335,82,cs),
(269,82,o),
(249,104,o),
(249,175,cs),
(249,430,l),
(451,430,l),
(451,520,l),
(249,520,l),
(249,690,l),
(140,690,l),
(140,520,l),
(21,520,l),
(21,430,l),
(140,430,l),
(140,160,ls),
(140,38,o),
(190,-10,o),
(317,-10,cs)
);
}
);
width = 501;
},
{
anchors = (
{
name = bottom;
pos = (256,0);
},
{
name = cedi;
pos = (227,0);
},
{
name = center;
pos = (256,260);
},
{
name = top;
pos = (256,520);
},
{
name = topright;
pos = (508,520);
}
);
layerId = "9E6B41AB-2970-4C41-8B35-4DBE0D296A43";
shapes = (
{
closed = 1;
nodes = (
(375,-10,o),
(420,-4,o),
(475,10,c),
(443,155,l),
(418,146,o),
(387,140,o),
(360,140,cs),
(324,140,o),
(313,154,o),
(313,200,cs),
(313,380,l),
(478,380,l),
(478,520,l),
(313,520,l),
(313,690,l),
(115,690,l),
(115,520,l),
(18,520,l),
(18,380,l),
(115,380,l),
(115,170,ls),
(115,42,o),
(175,-10,o),
(324,-10,cs)
);
}
);
width = 521;
}
);
metricLeft = "=f";
metricRight = "=c";
unicode = 116;
},
{
color = 10;
glyphname = tbar;
kernLeft = f;
kernRight = c;
lastChange = "2025-03-19 05:50:49 +0000";
layers = (
{
layerId = "D65C9A1E-0FCA-4B2D-8EDF-9F36CA9182A1";
shapes = (
{
closed = 1;
nodes = (
(419,258,l),
(419,278,l),
(42,278,l),
(42,258,l)
);
},
{
ref = t;
}
);
width = 421;
},
{
layerId = "9527F797-22C1-480E-A1FE-2CDBEBE1FD4C";
shapes = (
{
closed = 1;
nodes = (
(428,220,l),
(428,310,l),
(18,310,l),
(18,220,l)
);
},
{
alignment = -1;
ref = t;
}
);
width = 473;
},
{
layerId = "9E6B41AB-2970-4C41-8B35-4DBE0D296A43";
shapes = (
{
closed = 1;
nodes = (
(453,192,l),
(453,332,l),
(13,332,l),
(13,192,l)
);
},
{
ref = t;
}
);
width = 525;
}
);
unicode = 359;
},
{
glyphname = u;
kernLeft = u;
kernRight = u;
lastChange = "2026-04-10 07:26:57 +0000";
layers = (
{
anchors = (
{
name = bottom;
pos = (291,0);
},
{
name = ogonek;
pos = (517,0);
},
{
name = top;
pos = (291,520);
},
{
name = top_ring;
pos = (291,540);
},
{
name = topright;
pos = (452,480);
}
);
background = {
anchors = (
{
name = bottom;
pos = (278,0);
},
{
name = ogonek;
pos = (537,0);
},
{
name = top;
pos = (278,520);
},
{
name = top_ring;
pos = (278,540);
},
{
name = topright;
pos = (447,480);
}
);
};
layerId = "9527F797-22C1-480E-A1FE-2CDBEBE1FD4C";
shapes = (
{
closed = 1;
nodes = (
(290,-10,o),
(358,24,o),
(402,82,c),
(404,82,l),
(408,52,o),
(420,21,o),
(441,-14,c),
(546,28,l),
(508,97,o),
(496,150,o),
(496,249,cs),
(496,520,l),
(388,520,l),
(388,220,ls),
(388,148,o),
(324,84,o),
(251,84,cs),
(192,84,o),
(164,126,o),
(164,215,cs),
(164,520,l),
(56,520,l),
(56,215,ls),
(56,63,o),
(108,-10,o),
(216,-10,cs)
);
}
);
width = 572;
},
{
anchors = (
{
name = bottom;
pos = (291,0);
},
{
name = ogonek;
pos = (550,0);
},
{
name = top;
pos = (291,520);
},
{
name = top_ring;
pos = (291,540);
},
{
name = topright;
pos = (460,480);
}
);
layerId = "9E6B41AB-2970-4C41-8B35-4DBE0D296A43";
shapes = (
{
closed = 1;
nodes = (
(264,-10,o),
(312,13,o),
(360,65,c),
(362,65,l),
(371,33,o),
(382,7,o),
(396,-16,c),
(588,60,l),
(552,121,o),
(538,188,o),
(538,300,cs),
(538,520,l),
(342,520,l),
(342,200,ls),
(342,177,o),
(306,150,o),
(275,150,cs),
(249,150,o),
(242,167,o),
(242,230,cs),
(242,520,l),
(48,520,l),
(48,230,ls),
(48,64,o),
(96,-10,o),
(204,-10,cs)
);
}
);
width = 610;
},
{
anchors = (
{
name = bottom;
pos = (270,0);
},
{
name = ogonek;
pos = (529,0);
},
{
name = top;
pos = (270,520);
},
{
name = top_ring;
pos = (270,540);
},
{
name = topright;
pos = (439,480);
}
);
associatedMasterId = "D65C9A1E-0FCA-4B2D-8EDF-9F36CA9182A1";
attr = {
coordinates = (
232
);
};
background = {
anchors = (
{
name = bottom;
pos = (279,0);
},
{
name = ogonek;
pos = (527,0);
},
{
name = top;
pos = (279,520);
},
{
name = top_ring;
pos = (279,540);
},
{
name = topright;
pos = (445,480);
}
);
};
layerId = "245D3822-9188-491B-8A3B-367571E408B0";
name = "{232}";
shapes = (
{
closed = 1;
nodes = (
(316,-10,o),
(398,29,o),
(435,85,c),
(437,85,l),
(443,54,o),
(456,22,o),
(476,-11,c),
(523,10,l),
(484,79,o),
(473,124,o),
(473,215,cs),
(473,520,l),
(424,520,l),
(424,174,ls),
(424,102,o),
(334,34,o),
(238,34,cs),
(156,34,o),
(116,90,o),
(116,205,cs),
(116,520,l),
(67,520,l),
(67,205,ls),
(67,59,o),
(120,-10,o),
(232,-10,cs)
);
}
);
width = 555;
},
{
anchors = (
{
name = bottom;
pos = (273,0);
},
{
name = ogonek;
pos = (532,0);
},
{
name = top;
pos = (273,520);
},
{
name = top_ring;
pos = (273,540);
},
{
name = topright;
pos = (442,480);
}
);
background = {
anchors = (
{
name = bottom;
pos = (329,0);
},
{
name = ogonek;
pos = (525,0);
},
{
name = top;
pos = (329,520);
},
{
name = top_ring;
pos = (329,540);
},
{
name = topright;
pos = (505,480);
}
);
};
layerId = "D65C9A1E-0FCA-4B2D-8EDF-9F36CA9182A1";
name = Thin;
shapes = (
{
closed = 1;
nodes = (
(323,-10,o),
(416,37,o),
(449,98,c),
(451,98,l),
(458,64,o),
(471,31,o),
(494,-10,c),
(512,0,l),
(473,68,o),
(462,112,o),
(462,199,cs),
(462,520,l),
(442,520,l),
(442,152,ls),
(442,68,o),
(324,10,o),
(235,10,cs),
(140,10,o),
(92,71,o),
(92,200,cs),
(92,520,l),
(72,520,l),
(72,200,ls),
(72,61,o),
(127,-10,o),
(235,-10,cs)
);
}
);
width = 553;
}
);
metricLeft = "=|n";
metricRight = "=|n";
unicode = 117;
},
{
glyphname = v;
kernLeft = v;
kernRight = v;
lastChange = "2026-04-14 08:30:18 +0000";
layers = (
{
layerId = "D65C9A1E-0FCA-4B2D-8EDF-9F36CA9182A1";
shapes = (
{
closed = 1;
nodes = (
(269,0,l),
(499,520,l),
(477,520,l),
(255,17,l),
(253,17,l),
(31,520,l),
(9,520,l),
(239,0,l)
);
}
);
width = 508;
},
{
layerId = "9527F797-22C1-480E-A1FE-2CDBEBE1FD4C";
shapes = (
{
closed = 1;
nodes = (
(348,0,l),
(537,520,l),
(421,520,l),
(273,78,l),
(271,78,l),
(123,520,l),
(7,520,l),
(196,0,l)
);
}
);
width = 544;
},
{
layerId = "9E6B41AB-2970-4C41-8B35-4DBE0D296A43";
shapes = (
{
closed = 1;
nodes = (
(428,0,l),
(576,520,l),
(374,520,l),
(292,120,l),
(290,120,l),
(208,520,l),
(6,520,l),
(154,0,l)
);
}
);
width = 582;
}
);
metricLeft = "=h*.1";
metricRight = "=|";
unicode = 118;
},
{
glyphname = w;
kernLeft = v;
kernRight = v;
lastChange = "2026-04-10 07:29:29 +0000";
layers = (
{
anchors = (
{
name = bottom;
pos = (370,0);
},
{
name = top;
pos = (370,520);
}
);
background = {
anchors = (
{
name = bottom;
pos = (365,0);
},
{
name = top;
pos = (365,520);
}
);
};
layerId = "9527F797-22C1-480E-A1FE-2CDBEBE1FD4C";
shapes = (
{
closed = 1;
nodes = (
(292,0,l),
(304,117,o),
(348,253,o),
(414,375,c),
(333,424,l),
(282,311,o),
(252,223,o),
(230,110,c),
(228,110,l),
(118,520,l),
(10,520,l),
(160,0,l)
);
},
{
closed = 1;
nodes = (
(580,0,l),
(730,520,l),
(621,520,l),
(511,110,l),
(509,110,l),
(392,520,l),
(285,520,l),
(450,0,l)
);
}
);
width = 740;
},
{
anchors = (
{
name = bottom;
pos = (388,0);
},
{
name = top;
pos = (388,520);
}
);
background = {
shapes = (
{
closed = 1;
nodes = (
(350,0,l),
(350,109,o),
(389,247,o),
(449,352,c),
(333,410,l),
(301,288,o),
(284,260,o),
(270,170,c),
(268,170,l),
(202,520,l),
(8,520,l),
(138,0,l)
);
},
{
closed = 1;
nodes = (
(638,0,l),
(768,520,l),
(574,520,l),
(504,150,l),
(502,150,l),
(456,520,l),
(292,520,l),
(426,0,l)
);
}
);
};
layerId = "9E6B41AB-2970-4C41-8B35-4DBE0D296A43";
name = Black;
shapes = (
{
closed = 1;
nodes = (
(350,0,l),
(350,108,o),
(389,247,o),
(449,352,c),
(333,410,l),
(300,318,o),
(288,272,o),
(270,170,c),
(268,170,l),
(202,520,l),
(8,520,l),
(138,0,l)
);
},
{
closed = 1;
nodes = (
(638,0,l),
(768,520,l),
(574,520,l),
(504,150,l),
(502,150,l),
(456,520,l),
(292,520,l),
(426,0,l)
);
}
);
width = 776;
},
{
anchors = (
{
name = bottom;
pos = (353,0);
},
{
name = top;
pos = (353,520);
}
);
background = {
shapes = (
{
closed = 1;
nodes = (
(200,20,l),
(198,20,l),
(34,520,l),
(13,520,l),
(183,0,l),
(213,0,l)
);
},
{
closed = 1;
nodes = (
(523,0,l),
(693,520,l),
(672,520,l),
(508,20,l),
(506,20,l),
(315,520,l),
(293,520,l),
(493,0,l)
);
},
{
attr = {
strokeWidth = 20;
};
closed = 0;
nodes = (
(205,2,l),
(230,129,o),
(279,263,o),
(351,402,c)
);
}
);
};
layerId = "D65C9A1E-0FCA-4B2D-8EDF-9F36CA9182A1";
name = Thin;
shapes = (
{
closed = 1;
nodes = (
(215,0,l),
(240,127,o),
(288,258,o),
(360,397,c),
(342,407,l),
(274,274,o),
(226,143,o),
(200,20,c),
(198,20,l),
(34,520,l),
(13,520,l),
(183,0,l)
);
},
{
closed = 1;
nodes = (
(523,0,l),
(693,520,l),
(672,520,l),
(508,20,l),
(506,20,l),
(315,520,l),
(293,520,l),
(493,0,l)
);
}
);
width = 706;
}
);
metricLeft = "=v*1.4";
metricRight = "=|";
unicode = 119;
},
{
glyphname = x;
kernLeft = x;
kernRight = x;
lastChange = "2026-04-10 06:42:25 +0000";
layers = (
{
layerId = "D65C9A1E-0FCA-4B2D-8EDF-9F36CA9182A1";
shapes = (
{
closed = 1;
nodes = (
(35,0,l),
(228,247,l),
(230,247,l),
(423,0,l),
(449,0,l),
(242,263,l),
(444,520,l),
(418,520,l),
(230,279,l),
(228,279,l),
(40,520,l),
(14,520,l),
(216,263,l),
(9,0,l)
);
}
);
width = 458;
},
{
layerId = "9527F797-22C1-480E-A1FE-2CDBEBE1FD4C";
shapes = (
{
closed = 1;
nodes = (
(131,0,l),
(251,204,l),
(253,204,l),
(373,0,l),
(497,0,l),
(326,262,l),
(495,520,l),
(371,520,l),
(253,320,l),
(251,320,l),
(133,520,l),
(9,520,l),
(178,262,l),
(7,0,l)
);
}
);
width = 504;
},
{
layerId = "9E6B41AB-2970-4C41-8B35-4DBE0D296A43";
shapes = (
{
closed = 1;
nodes = (
(208,0,l),
(275,160,l),
(277,160,l),
(344,0,l),
(546,0,l),
(411,260,l),
(546,520,l),
(344,520,l),
(277,360,l),
(275,360,l),
(208,520,l),
(6,520,l),
(141,260,l),
(6,0,l)
);
}
);
width = 552;
}
);
metricLeft = "=|k";
metricRight = "=|";
unicode = 120;
},
{
glyphname = y;
kernLeft = v;
kernRight = v;
lastChange = "2026-04-17 08:26:53 +0000";
layers = (
{
anchors = (
{
name = bottom;
pos = (267,0);
},
{
name = dotR;
pos = (409,20);
},
{
name = top;
pos = (267,520);
}
);
background = {
anchors = (
{
name = bottom;
pos = (272,0);
},
{
name = dotR;
pos = (422,20);
},
{
name = top;
pos = (272,520);
}
);
shapes = (
{
closed = 0;
nodes = (
(130,-518,l),
(534,520,l)
);
}
);
};
layerId = "9527F797-22C1-480E-A1FE-2CDBEBE1FD4C";
shapes = (
{
closed = 1;
nodes = (
(211,-197,o),
(277,-139,o),
(332,1,cs),
(534,520,l),
(418,520,l),
(278,112,l),
(276,112,l),
(120,520,l),
(4,520,l),
(243,-35,l),
(241,45,l),
(212,-71,o),
(168,-114,o),
(64,-131,c),
(83,-218,l)
);
}
);
width = 538;
},
{
anchors = (
{
name = bottom;
pos = (299,0);
},
{
name = dotR;
pos = (500,20);
},
{
name = top;
pos = (299,520);
}
);
layerId = "9E6B41AB-2970-4C41-8B35-4DBE0D296A43";
name = Black;
shapes = (
{
closed = 1;
nodes = (
(284,-194,o),
(358,-138,o),
(408,1,cs),
(594,520,l),
(384,520,l),
(307,181,l),
(305,181,l),
(214,520,l),
(4,520,l),
(247,-60,l),
(248,63,l),
(248,-33,o),
(214,-64,o),
(89,-82,c),
(119,-218,l)
);
}
);
width = 598;
},
{
anchors = (
{
name = bottom;
pos = (235,0);
},
{
name = dotR;
pos = (319,20);
},
{
name = top;
pos = (235,520);
}
);
background = {
anchors = (
{
name = bottom;
pos = (270,0);
},
{
name = dotR;
pos = (471,20);
},
{
name = top;
pos = (270,520);
}
);
shapes = (
{
closed = 0;
nodes = (
(37,-518,ls),
(475,520,l)
);
}
);
};
layerId = "D65C9A1E-0FCA-4B2D-8EDF-9F36CA9182A1";
name = Thin;
shapes = (
{
closed = 1;
nodes = (
(141,-199,o),
(196,-141,o),
(256,1,cs),
(475,520,l),
(453,520,l),
(246,26,l),
(244,26,l),
(27,520,l),
(5,520,l),
(239,-10,l),
(238,9,l),
(180,-128,o),
(128,-181,o),
(43,-198,c),
(47,-218,l)
);
}
);
width = 480;
}
);
metricLeft = "=v*.6";
metricRight = "=|";
unicode = 121;
},
{
glyphname = z;
kernLeft = z;
kernRight = z;
lastChange = "2026-04-10 07:32:47 +0000";
layers = (
{
anchors = (
{
name = bottom;
pos = (267,0);
},
{
name = center;
pos = (267,260);
},
{
name = top;
pos = (267,520);
}
);
background = {
anchors = (
{
name = bottom;
pos = (292,0);
},
{
name = center;
pos = (292,260);
},
{
name = top;
pos = (292,520);
}
);
};
layerId = "D65C9A1E-0FCA-4B2D-8EDF-9F36CA9182A1";
shapes = (
{
closed = 1;
nodes = (
(472,0,l),
(472,20,l),
(99,20,l),
(99,22,l),
(472,500,l),
(472,520,l),
(72,520,l),
(72,500,l),
(445,500,l),
(445,498,l),
(72,20,l),
(72,0,l)
);
}
);
width = 544;
},
{
anchors = (
{
name = bottom;
pos = (271,0);
},
{
name = center;
pos = (271,260);
},
{
name = top;
pos = (271,520);
}
);
background = {
anchors = (
{
name = bottom;
pos = (277,0);
},
{
name = center;
pos = (277,260);
},
{
name = top;
pos = (277,520);
}
);
};
layerId = "9527F797-22C1-480E-A1FE-2CDBEBE1FD4C";
shapes = (
{
closed = 1;
nodes = (
(486,0,l),
(486,90,l),
(196,90,l),
(196,92,l),
(486,430,l),
(486,520,l),
(56,520,l),
(56,430,l),
(346,430,l),
(346,428,l),
(56,90,l),
(56,0,l)
);
}
);
width = 542;
},
{
anchors = (
{
name = bottom;
pos = (278,0);
},
{
name = center;
pos = (278,260);
},
{
name = top;
pos = (278,520);
}
);
layerId = "9E6B41AB-2970-4C41-8B35-4DBE0D296A43";
name = Black;
shapes = (
{
closed = 1;
nodes = (
(508,0,l),
(508,140,l),
(300,140,l),
(300,142,l),
(508,380,l),
(508,520,l),
(48,520,l),
(48,380,l),
(256,380,l),
(256,378,l),
(48,140,l),
(48,0,l)
);
}
);
width = 556;
}
);
metricLeft = "=h*.8";
metricRight = "=|";
unicode = 122;
},
{
glyphname = f.002;
kernLeft = f;
kernRight = f;
lastChange = "2026-04-10 06:23:51 +0000";
layers = (
{
layerId = "9527F797-22C1-480E-A1FE-2CDBEBE1FD4C";
shapes = (
{
closed = 1;
nodes = (
(276,0,l),
(276,400,l),
(486,400,l),
(486,490,l),
(276,490,l),
(276,585,ls),
(276,653,o),
(309,680,o),
(393,680,cs),
(421,680,o),
(442,677,o),
(472,668,c),
(491,755,l),
(453,765,o),
(412,770,o),
(373,770,cs),
(236,770,o),
(167,708,o),
(167,585,cs),
(167,490,l),
(21,490,l),
(21,400,l),
(167,400,l),
(167,0,l)
);
}
);
width = 508;
},
{
layerId = "D65C9A1E-0FCA-4B2D-8EDF-9F36CA9182A1";
shapes = (
{
closed = 1;
nodes = (
(227,0,l),
(227,460,l),
(472,460,l),
(472,480,l),
(227,480,l),
(227,620,ls),
(227,710,o),
(273,750,o),
(383,750,cs),
(416,750,o),
(438,747,o),
(471,736,c),
(477,755,l),
(443,766,o),
(418,770,o),
(383,770,cs),
(263,770,o),
(207,722,o),
(207,620,cs),
(207,480,l),
(27,480,l),
(27,460,l),
(207,460,l),
(207,0,l)
);
}
);
width = 499;
},
{
layerId = "9E6B41AB-2970-4C41-8B35-4DBE0D296A43";
name = Black;
shapes = (
{
closed = 1;
nodes = (
(327,0,l),
(327,360,l),
(503,360,l),
(503,500,l),
(327,500,l),
(327,550,ls),
(327,611,o),
(345,630,o),
(403,630,cs),
(426,630,o),
(448,627,o),
(478,620,c),
(508,755,l),
(466,764,o),
(409,770,o),
(366,770,cs),
(212,770,o),
(129,693,o),
(129,550,cs),
(129,500,l),
(18,500,l),
(18,360,l),
(129,360,l),
(129,0,l)
);
}
);
width = 522;
}
);
metricLeft = "=h*.3";
metricRight = "=|*.8";
},
{
color = 4;
export = 0;
glyphname = b.001;
kernLeft = h;
kernRight = o;
lastChange = "2026-04-02 07:49:22 +0000";
layers = (
{
layerId = "D65C9A1E-0FCA-4B2D-8EDF-9F36CA9182A1";
shapes = (
{
closed = 1;
nodes = (
(110,0,l),
(169,-6,o),
(236,-10,o),
(278,-10,cs),
(442,-10,o),
(490,51,o),
(490,260,cs),
(490,440,o),
(435,530,o),
(324,530,cs),
(247,530,o),
(164,482,o),
(112,407,c),
(110,407,l),
(110,730,l),
(90,730,l),
(90,0,l)
);
},
{
closed = 1;
nodes = (
(237,10,o),
(110,18,o),
(110,22,cs),
(110,360,ls),
(110,384,o),
(200,510,o),
(324,510,cs),
(421,510,o),
(470,432,o),
(470,260,cs),
(470,62,o),
(429,10,o),
(278,10,cs)
);
}
);
width = 544;
},
{
layerId = "9527F797-22C1-480E-A1FE-2CDBEBE1FD4C";
name = Medium;
shapes = (
{
closed = 1;
nodes = (
(177,0,l),
(239,-6,o),
(300,-10,o),
(329,-10,cs),
(472,-10,o),
(530,68,o),
(530,260,cs),
(530,447,o),
(478,530,o),
(361,530,cs),
(293,530,o),
(230,502,o),
(180,450,c),
(178,450,l),
(178,730,l),
(70,730,l),
(70,0,l)
);
},
{
closed = 1;
nodes = (
(227,78,o),
(178,87,o),
(178,99,cs),
(178,294,ls),
(178,356,o),
(252,434,o),
(329,434,cs),
(392,434,o),
(424,380,o),
(424,250,cs),
(424,107,o),
(402,78,o),
(292,78,cs)
);
}
);
width = 572;
},
{
layerId = "9E6B41AB-2970-4C41-8B35-4DBE0D296A43";
name = Black;
shapes = (
{
closed = 1;
nodes = (
(254,0,l),
(290,-5,o),
(358,-10,o),
(390,-10,cs),
(519,-10,o),
(580,76,o),
(580,260,cs),
(580,440,o),
(523,530,o),
(408,530,cs),
(349,530,o),
(304,506,o),
(258,450,c),
(256,450,l),
(256,730,l),
(60,730,l),
(60,0,l)
);
},
{
closed = 1;
nodes = (
(280,110,o),
(256,122,o),
(256,140,cs),
(256,320,ls),
(256,345,o),
(291,370,o),
(326,370,cs),
(372,370,o),
(388,336,o),
(388,240,cs),
(388,142,o),
(370,110,o),
(316,110,cs)
);
}
);
width = 616;
}
);
metricLeft = "=h";
metricRight = "=o*1.2";
},
{
color = 4;
export = 0;
glyphname = b.002;
kernLeft = h;
kernRight = o;
lastChange = "2026-04-02 03:47:41 +0000";
layers = (
{
background = {
shapes = (
{
closed = 1;
nodes = (
(396,0,l),
(455,-6,o),
(522,-10,o),
(564,-10,cs),
(728,-10,o),
(776,51,o),
(776,260,cs),
(776,440,o),
(721,530,o),
(610,530,cs),
(533,530,o),
(450,482,o),
(398,407,c),
(396,407,l),
(396,730,l),
(376,730,l),
(376,0,l)
);
},
{
closed = 1;
nodes = (
(523,10,o),
(396,18,o),
(396,22,cs),
(396,360,ls),
(396,384,o),
(486,510,o),
(610,510,cs),
(707,510,o),
(756,432,o),
(756,260,cs),
(756,62,o),
(715,10,o),
(564,10,cs)
);
}
);
};
layerId = "D65C9A1E-0FCA-4B2D-8EDF-9F36CA9182A1";
shapes = (
{
pos = (560,0);
ref = d;
scale = (-1,1);
}
);
width = 560;
},
{
background = {
shapes = (
{
closed = 1;
nodes = (
(694,0,l),
(756,-6,o),
(817,-10,o),
(846,-10,cs),
(989,-10,o),
(1047,68,o),
(1047,260,cs),
(1047,447,o),
(995,530,o),
(878,530,cs),
(810,530,o),
(747,502,o),
(697,450,c),
(695,450,l),
(695,730,l),
(587,730,l),
(587,0,l)
);
},
{
closed = 1;
nodes = (
(744,78,o),
(695,87,o),
(695,99,cs),
(695,294,ls),
(695,356,o),
(769,434,o),
(846,434,cs),
(909,434,o),
(941,380,o),
(941,250,cs),
(941,107,o),
(919,78,o),
(809,78,cs)
);
}
);
};
layerId = "9527F797-22C1-480E-A1FE-2CDBEBE1FD4C";
name = Medium;
shapes = (
{
pos = (594,0);
ref = d;
scale = (-1,1);
}
);
width = 594;
},
{
background = {
shapes = (
{
closed = 1;
nodes = (
(769,0,l),
(805,-5,o),
(873,-10,o),
(905,-10,cs),
(1034,-10,o),
(1095,76,o),
(1095,260,cs),
(1095,440,o),
(1038,530,o),
(923,530,cs),
(864,530,o),
(819,506,o),
(773,450,c),
(771,450,l),
(771,730,l),
(575,730,l),
(575,0,l)
);
},
{
closed = 1;
nodes = (
(795,110,o),
(771,122,o),
(771,140,cs),
(771,320,ls),
(771,345,o),
(806,370,o),
(841,370,cs),
(887,370,o),
(903,336,o),
(903,240,cs),
(903,142,o),
(885,110,o),
(831,110,cs)
);
}
);
};
layerId = "9E6B41AB-2970-4C41-8B35-4DBE0D296A43";
name = Black;
shapes = (
{
pos = (644,0);
ref = d;
scale = (-1,1);
}
);
width = 644;
}
);
metricLeft = "=h";
metricRight = "=o*1.2";
},
{
color = 4;
export = 0;
glyphname = c.001;
kernLeft = o;
kernRight = c;
lastChange = "2026-04-10 06:34:06 +0000";
layers = (
{
anchors = (
{
name = bottom;
pos = (275,0);
},
{
name = cedi;
pos = (216,0);
},
{
name = top;
pos = (275,520);
}
);
layerId = "9527F797-22C1-480E-A1FE-2CDBEBE1FD4C";
shapes = (
{
closed = 1;
nodes = (
(364,-10,o),
(423,3,o),
(475,28,c),
(456,115,l),
(408,92,o),
(359,80,o),
(312,80,cs),
(205,80,o),
(145,145,o),
(145,260,cs),
(145,375,o),
(205,440,o),
(312,440,cs),
(348,440,o),
(387,432,o),
(423,417,c),
(365,483,l),
(365,310,l),
(473,310,l),
(473,487,l),
(422,516,o),
(367,530,o),
(303,530,cs),
(133,530,o),
(35,431,o),
(35,260,cs),
(35,89,o),
(133,-10,o),
(303,-10,cs)
);
}
);
width = 525;
},
{
anchors = (
{
name = bottom;
pos = (265,0);
},
{
name = cedi;
pos = (221,0);
},
{
name = top;
pos = (265,520);
}
);
layerId = "D65C9A1E-0FCA-4B2D-8EDF-9F36CA9182A1";
shapes = (
{
closed = 1;
nodes = (
(352,-10,o),
(398,1,o),
(445,25,c),
(436,43,l),
(392,20,o),
(349,10,o),
(301,10,cs),
(154,10,o),
(65,105,o),
(65,260,cs),
(65,415,o),
(154,510,o),
(301,510,cs),
(348,510,o),
(391,500,o),
(434,477,c),
(423,495,l),
(423,330,l),
(443,330,l),
(443,495,l),
(397,519,o),
(351,530,o),
(301,530,cs),
(143,530,o),
(45,426,o),
(45,260,cs),
(45,94,o),
(143,-10,o),
(301,-10,cs)
);
}
);
width = 510;
},
{
anchors = (
{
name = bottom;
pos = (290,0);
},
{
name = cedi;
pos = (216,0);
},
{
name = top;
pos = (290,520);
}
);
layerId = "9E6B41AB-2970-4C41-8B35-4DBE0D296A43";
name = Black;
shapes = (
{
closed = 1;
nodes = (
(385,-10,o),
(454,4,o),
(510,30,c),
(480,170,l),
(428,145,o),
(371,130,o),
(328,130,cs),
(260,130,o),
(230,170,o),
(230,260,cs),
(230,350,o),
(260,390,o),
(328,390,cs),
(352,390,o),
(387,384,o),
(416,375,c),
(328,470,l),
(328,330,l),
(508,330,l),
(508,478,l),
(449,513,o),
(385,530,o),
(309,530,cs),
(127,530,o),
(30,437,o),
(30,260,cs),
(30,83,o),
(127,-10,o),
(312,-10,cs)
);
}
);
width = 553;
},
{
anchors = (
{
name = bottom;
pos = (282,0);
},
{
name = cedi;
pos = (208,0);
},
{
name = top;
pos = (282,520);
}
);
associatedMasterId = "9E6B41AB-2970-4C41-8B35-4DBE0D296A43";
layerId = "77E87F8C-353B-4387-A7AC-CF66C6EE63D5";
name = "Mar 20, 25 at 11:58";
shapes = (
{
closed = 1;
nodes = (
(377,-10,o),
(446,4,o),
(502,30,c),
(472,170,l),
(420,145,o),
(363,130,o),
(320,130,cs),
(252,130,o),
(222,170,o),
(222,260,cs),
(222,350,o),
(252,390,o),
(320,390,cs),
(344,390,o),
(379,384,o),
(408,375,c),
(320,470,l),
(320,290,l),
(500,290,l),
(500,478,l),
(441,513,o),
(377,530,o),
(301,530,cs),
(119,530,o),
(22,437,o),
(22,260,cs),
(22,83,o),
(119,-10,o),
(304,-10,cs)
);
}
);
width = 541;
}
);
metricLeft = "=o";
metricRight = "=h*.9";
},
{
color = 4;
export = 0;
glyphname = f.001;
kernLeft = f;
kernRight = f;
lastChange = "2026-04-02 07:49:22 +0000";
layers = (
{
layerId = "9527F797-22C1-480E-A1FE-2CDBEBE1FD4C";
shapes = (
{
closed = 1;
nodes = (
(268,0,l),
(268,385,l),
(480,385,l),
(480,475,l),
(268,475,l),
(268,585,ls),
(268,652,o),
(293,677,o),
(360,677,cs),
(390,677,o),
(425,672,o),
(463,663,c),
(411,733,l),
(411,560,l),
(511,560,l),
(511,738,l),
(464,759,o),
(408,770,o),
(353,770,cs),
(222,770,o),
(158,709,o),
(158,585,cs),
(158,475,l),
(21,475,l),
(21,385,l),
(158,385,l),
(158,0,l)
);
}
);
width = 520;
},
{
layerId = "D65C9A1E-0FCA-4B2D-8EDF-9F36CA9182A1";
shapes = (
{
closed = 1;
nodes = (
(211,0,l),
(211,440,l),
(457,440,l),
(457,460,l),
(211,460,l),
(211,620,ls),
(211,712,o),
(250,750,o),
(346,750,cs),
(383,750,o),
(425,744,o),
(463,736,c),
(447,755,l),
(447,590,l),
(467,590,l),
(467,755,l),
(428,764,o),
(384,770,o),
(346,770,cs),
(239,770,o),
(191,723,o),
(191,620,cs),
(191,460,l),
(27,460,l),
(27,440,l),
(191,440,l),
(191,0,l)
);
}
);
width = 481;
},
{
layerId = "9E6B41AB-2970-4C41-8B35-4DBE0D296A43";
name = Black;
shapes = (
{
closed = 1;
nodes = (
(326,0,l),
(326,340,l),
(506,340,l),
(506,480,l),
(316,480,l),
(316,550,ls),
(316,604,o),
(330,620,o),
(377,620,cs),
(401,620,o),
(436,614,o),
(465,605,c),
(378,710,l),
(378,560,l),
(558,560,l),
(558,720,l),
(502,753,o),
(435,770,o),
(362,770,cs),
(208,770,o),
(128,695,o),
(128,550,cs),
(128,480,l),
(18,480,l),
(18,340,l),
(128,340,l),
(128,0,l)
);
}
);
width = 565;
},
{
associatedMasterId = "9E6B41AB-2970-4C41-8B35-4DBE0D296A43";
layerId = "41EC7414-2A71-443B-8025-F1BB67CA1BB7";
name = "Mar 20, 25 at 11:58";
shapes = (
{
closed = 1;
nodes = (
(324,0,l),
(324,340,l),
(504,340,l),
(504,480,l),
(314,480,l),
(314,550,ls),
(314,604,o),
(328,620,o),
(375,620,cs),
(399,620,o),
(434,614,o),
(463,605,c),
(376,710,l),
(376,530,l),
(556,530,l),
(556,720,l),
(500,753,o),
(433,770,o),
(360,770,cs),
(206,770,o),
(126,695,o),
(126,550,cs),
(126,480,l),
(16,480,l),
(16,340,l),
(126,340,l),
(126,0,l)
);
}
);
width = 559;
}
);
metricLeft = "=h*.3";
metricRight = "=d*.3";
},
{
color = 4;
export = 0;
glyphname = g.001;
kernLeft = o;
kernRight = g;
lastChange = "2026-04-02 07:49:53 +0000";
layers = (
{
anchors = (
{
name = bottom;
pos = (310,-140);
},
{
name = top;
pos = (310,520);
}
);
layerId = "D65C9A1E-0FCA-4B2D-8EDF-9F36CA9182A1";
name = Thin;
shapes = (
{
closed = 1;
nodes = (
(398,-218,o),
(465,-140,o),
(465,25,cs),
(465,520,l),
(445,520,l),
(445,438,l),
(443,438,l),
(403,496,o),
(330,530,o),
(249,530,cs),
(118,530,o),
(45,440,o),
(45,280,cs),
(45,120,o),
(118,30,o),
(249,30,cs),
(330,30,o),
(403,64,o),
(443,122,c),
(445,122,l),
(445,25,ls),
(445,-130,o),
(386,-198,o),
(256,-198,cs),
(193,-198,o),
(140,-182,o),
(90,-149,c),
(79,-166,l),
(132,-201,o),
(190,-218,o),
(256,-218,cs)
);
},
{
closed = 1;
nodes = (
(130,50,o),
(65,130,o),
(65,280,cs),
(65,430,o),
(130,510,o),
(249,510,cs),
(366,510,o),
(445,439,o),
(445,367,cs),
(445,193,ls),
(445,121,o),
(366,50,o),
(249,50,cs)
);
}
);
width = 555;
},
{
anchors = (
{
name = bottom;
pos = (306,-140);
},
{
name = top;
pos = (306,520);
}
);
associatedMasterId = "D65C9A1E-0FCA-4B2D-8EDF-9F36CA9182A1";
attr = {
coordinates = (
232
);
};
background = {
anchors = (
{
name = bottom;
pos = (308,-140);
},
{
name = top;
pos = (308,520);
}
);
};
layerId = "131C9389-DF90-47E7-B02A-D8FEDA410CB7";
name = "{232} Apr 11, 25 at 11:49";
shapes = (
{
closed = 1;
nodes = (
(407,-218,o),
(482,-135,o),
(482,30,cs),
(483,520,l),
(433,520,l),
(433,450,l),
(431,450,l),
(399,498,o),
(323,530,o),
(245,530,cs),
(115,530,o),
(42,440,o),
(42,279,cs),
(42,118,o),
(115,28,o),
(245,28,cs),
(323,28,o),
(399,60,o),
(431,108,c),
(433,108,l),
(433,30,ls),
(433,-112,o),
(376,-175,o),
(253,-175,cs),
(192,-175,o),
(143,-160,o),
(94,-127,c),
(77,-166,l),
(131,-201,o),
(192,-218,o),
(260,-218,cs)
);
},
{
closed = 1;
nodes = (
(148,71,o),
(90,145,o),
(90,278,cs),
(90,413,o),
(148,486,o),
(253,486,cs),
(357,486,o),
(433,420,o),
(433,350,cs),
(433,207,ls),
(433,137,o),
(357,71,o),
(253,71,cs)
);
}
);
width = 566;
},
{
anchors = (
{
name = bottom;
pos = (298,-140);
},
{
name = top;
pos = (298,520);
}
);
background = {
anchors = (
{
name = bottom;
pos = (298,-140);
},
{
name = top;
pos = (298,520);
}
);
};
layerId = "9527F797-22C1-480E-A1FE-2CDBEBE1FD4C";
name = Medium;
shapes = (
{
closed = 1;
nodes = (
(425,-218,o),
(515,-125,o),
(515,40,cs),
(517,520,l),
(408,520,l),
(407,450,l),
(405,450,l),
(368,502,o),
(309,530,o),
(236,530,cs),
(106,530,o),
(35,440,o),
(35,275,cs),
(35,111,o),
(107,20,o),
(236,20,cs),
(309,20,o),
(368,48,o),
(405,100,c),
(407,100,l),
(407,40,ls),
(407,-74,o),
(355,-128,o),
(246,-128,cs),
(190,-128,o),
(146,-114,o),
(102,-83,c),
(73,-165,l),
(126,-199,o),
(194,-218,o),
(266,-218,cs)
);
},
{
closed = 1;
nodes = (
(185,114,o),
(141,173,o),
(141,275,cs),
(141,377,o),
(185,436,o),
(260,436,cs),
(339,436,o),
(407,380,o),
(407,315,cs),
(407,235,ls),
(407,170,o),
(339,114,o),
(260,114,cs)
);
}
);
width = 587;
},
{
anchors = (
{
name = bottom;
pos = (291,-140);
},
{
name = top;
pos = (291,520);
}
);
layerId = "9E6B41AB-2970-4C41-8B35-4DBE0D296A43";
name = Black;
shapes = (
{
closed = 1;
nodes = (
(458,-218,o),
(570,-112,o),
(570,55,cs),
(570,520,l),
(376,520,l),
(374,450,l),
(372,450,l),
(338,505,o),
(294,530,o),
(227,530,cs),
(99,530,o),
(30,439,o),
(30,270,cs),
(30,101,o),
(99,10,o),
(227,10,cs),
(293,10,o),
(338,34,o),
(372,87,c),
(374,87,l),
(374,55,ls),
(374,-27,o),
(330,-68,o),
(242,-68,cs),
(194,-68,o),
(157,-56,o),
(119,-28,c),
(72,-164,l),
(126,-198,o),
(204,-218,o),
(281,-218,cs)
);
},
{
closed = 1;
nodes = (
(246,155,o),
(222,194,o),
(222,270,cs),
(222,346,o),
(246,385,o),
(294,385,cs),
(339,385,o),
(374,352,o),
(374,310,cs),
(374,230,ls),
(374,188,o),
(339,155,o),
(294,155,cs)
);
}
);
width = 630;
}
);
metricLeft = "=d";
metricRight = "=|h";
},
{
color = 4;
export = 0;
glyphname = g.002;
kernLeft = o;
kernRight = g;
lastChange = "2026-04-10 06:34:46 +0000";
layers = (
{
layerId = "D65C9A1E-0FCA-4B2D-8EDF-9F36CA9182A1";
metricRight = "=h*.4";
name = Thin;
shapes = (
{
closed = 1;
nodes = (
(396,160,o),
(475,228,o),
(475,345,cs),
(475,520,l),
(455,520,l),
(455,438,l),
(453,438,l),
(421,498,o),
(355,530,o),
(265,530,cs),
(134,530,o),
(55,462,o),
(55,345,cs),
(55,228,o),
(134,160,o),
(265,160,cs)
);
},
{
closed = 1;
nodes = (
(144,180,o),
(75,240,o),
(75,345,cs),
(75,450,o),
(144,510,o),
(265,510,cs),
(386,510,o),
(455,450,o),
(455,345,cs),
(455,240,o),
(386,180,o),
(265,180,cs)
);
},
{
closed = 1;
nodes = (
(403,-230,o),
(495,-169,o),
(495,-63,cs),
(495,156,o),
(90,2,o),
(90,135,cs),
(90,162,o),
(107,188,o),
(133,201,c),
(124,219,l),
(92,203,o),
(70,170,o),
(70,135,cs),
(70,-28,o),
(475,135,o),
(475,-63,cs),
(475,-155,o),
(394,-210,o),
(242,-210,cs),
(175,-210,o),
(130,-200,o),
(53,-168,c),
(45,-187,l),
(123,-219,o),
(173,-230,o),
(242,-230,cs)
);
}
);
width = 524;
},
{
layerId = "9527F797-22C1-480E-A1FE-2CDBEBE1FD4C";
metricRight = "=h*.6";
name = Medium;
shapes = (
{
closed = 1;
nodes = (
(425,130,o),
(505,199,o),
(505,323,cs),
(505,520,l),
(398,520,l),
(397,450,l),
(395,450,l),
(364,500,o),
(302,530,o),
(228,530,cs),
(111,530,o),
(35,455,o),
(35,340,cs),
(35,211,o),
(130,130,o),
(283,130,cs)
);
},
{
closed = 1;
nodes = (
(190,211,o),
(143,253,o),
(143,325,cs),
(143,397,o),
(190,439,o),
(270,439,cs),
(350,439,o),
(397,397,o),
(397,325,cs),
(397,253,o),
(350,211,o),
(270,211,cs)
);
},
{
closed = 1;
nodes = (
(427,-230,o),
(515,-171,o),
(515,-62,cs),
(515,158,o),
(158,33,o),
(158,129,cs),
(158,147,o),
(170,157,o),
(207,169,c),
(136,233,l),
(79,199,o),
(55,165,o),
(55,118,cs),
(55,-64,o),
(407,65,o),
(407,-67,cs),
(407,-115,o),
(351,-142,o),
(252,-142,cs),
(186,-142,o),
(126,-130,o),
(48,-101,c),
(35,-188,l),
(108,-216,o),
(185,-230,o),
(265,-230,cs)
);
}
);
width = 549;
},
{
background = {
anchors = (
{
name = bottom;
pos = (364,-140);
},
{
name = top;
pos = (364,520);
}
);
};
layerId = "9E6B41AB-2970-4C41-8B35-4DBE0D296A43";
metricRight = "=h*.8";
name = Black;
shapes = (
{
closed = 1;
nodes = (
(472,140,o),
(551,201,o),
(551,321,cs),
(551,520,l),
(357,520,l),
(355,460,l),
(353,460,l),
(323,505,o),
(271,530,o),
(207,530,cs),
(99,530,o),
(30,462,o),
(30,355,cs),
(30,222,o),
(139,140,o),
(317,140,cs)
);
},
{
closed = 1;
nodes = (
(246,241,o),
(225,266,o),
(225,319,cs),
(225,372,o),
(246,397,o),
(290,397,cs),
(334,397,o),
(355,372,o),
(355,319,cs),
(355,266,o),
(334,241,o),
(290,241,cs)
);
},
{
closed = 1;
nodes = (
(471,-230,o),
(550,-174,o),
(550,-61,cs),
(550,169,o),
(215,67,o),
(215,130,cs),
(215,146,o),
(240,170,o),
(271,184,c),
(163,247,l),
(90,200,o),
(55,152,o),
(55,99,cs),
(55,-59,o),
(354,34,o),
(354,-51,cs),
(354,-78,o),
(330,-90,o),
(276,-90,cs),
(216,-90,o),
(139,-76,o),
(57,-50,c),
(40,-190,l),
(114,-214,o),
(221,-230,o),
(309,-230,cs)
);
}
);
width = 589;
},
{
associatedMasterId = "D65C9A1E-0FCA-4B2D-8EDF-9F36CA9182A1";
attr = {
coordinates = (
232
);
};
background = {
shapes = (
{
closed = 1;
nodes = (
(406,150,o),
(485,218,o),
(485,338,cs),
(485,520,l),
(437,520,l),
(436,442,l),
(434,442,l),
(402,499,o),
(338,530,o),
(253,530,cs),
(127,530,o),
(49,460,o),
(49,343,cs),
(49,222,o),
(133,150,o),
(271,150,cs)
);
},
{
closed = 1;
nodes = (
(160,190,o),
(98,244,o),
(98,338,cs),
(98,433,o),
(160,487,o),
(267,487,cs),
(374,487,o),
(436,433,o),
(436,338,cs),
(436,244,o),
(374,190,o),
(267,190,cs)
);
},
{
closed = 1;
nodes = (
(411,-230,o),
(502,-170,o),
(502,-63,cs),
(502,157,o),
(113,12,o),
(113,133,cs),
(113,157,o),
(127,177,o),
(158,190,c),
(128,224,l),
(88,202,o),
(65,168,o),
(65,129,cs),
(65,-40,o),
(453,112,o),
(453,-64,cs),
(453,-142,o),
(380,-188,o),
(246,-188,cs),
(179,-188,o),
(129,-177,o),
(52,-146,c),
(42,-187,l),
(119,-218,o),
(177,-230,o),
(250,-230,cs)
);
}
);
};
layerId = "E8F9AAB5-85A1-45A9-A400-93FFDC7DA9F8";
metricRight = "=h*.5";
name = "Mar 15, 26 at 16:49";
shapes = (
{
closed = 1;
nodes = (
(406,150,o),
(485,218,o),
(485,338,cs),
(485,520,l),
(437,520,l),
(436,450,l),
(434,450,l),
(402,502,o),
(339,530,o),
(254,530,cs),
(127,530,o),
(49,460,o),
(49,343,cs),
(49,222,o),
(133,150,o),
(271,150,cs)
);
},
{
closed = 1;
nodes = (
(160,190,o),
(98,244,o),
(98,338,cs),
(98,433,o),
(160,487,o),
(267,487,cs),
(374,487,o),
(436,433,o),
(436,338,cs),
(436,244,o),
(374,190,o),
(267,190,cs)
);
},
{
closed = 1;
nodes = (
(411,-230,o),
(502,-170,o),
(502,-63,cs),
(502,157,o),
(113,12,o),
(113,133,cs),
(113,157,o),
(127,177,o),
(158,190,c),
(128,224,l),
(88,202,o),
(65,168,o),
(65,129,cs),
(65,-40,o),
(453,112,o),
(453,-64,cs),
(453,-142,o),
(380,-188,o),
(246,-188,cs),
(179,-188,o),
(129,-177,o),
(52,-146,c),
(42,-187,l),
(119,-218,o),
(177,-230,o),
(250,-230,cs)
);
}
);
width = 536;
}
);
metricLeft = "=d";
metricRight = "=h*.8";
},
{
color = 4;
export = 0;
glyphname = k.001;
kernLeft = b;
kernRight = x;
lastChange = "2026-04-02 07:49:22 +0000";
layers = (
{
anchors = (
{
name = bottom;
pos = (260,0);
},
{
name = top;
pos = (260,730);
}
);
layerId = "9527F797-22C1-480E-A1FE-2CDBEBE1FD4C";
metricRight = "=d*.3";
shapes = (
{
closed = 1;
nodes = (
(179,0,l),
(179,244,l),
(181,244,l),
(407,0,l),
(540,0,l),
(280,280,l),
(535,520,l),
(400,520,l),
(181,317,l),
(179,317,l),
(179,730,l),
(70,730,l),
(70,0,l)
);
}
);
width = 549;
},
{
anchors = (
{
name = bottom;
pos = (291,0);
},
{
name = top;
pos = (291,730);
}
);
layerId = "9E6B41AB-2970-4C41-8B35-4DBE0D296A43";
metricRight = "=d*.2";
shapes = (
{
closed = 1;
nodes = (
(256,0,l),
(256,215,l),
(258,215,l),
(375,0,l),
(600,0,l),
(440,270,l),
(595,520,l),
(370,520,l),
(258,325,l),
(256,325,l),
(256,730,l),
(60,730,l),
(60,0,l)
);
}
);
width = 605;
},
{
anchors = (
{
name = bottom;
pos = (240,0);
},
{
name = top;
pos = (240,730);
}
);
background = {
shapes = (
{
closed = 0;
nodes = (
(478,-16,l),
(93,292,l),
(474,537,l)
);
}
);
};
layerId = "D65C9A1E-0FCA-4B2D-8EDF-9F36CA9182A1";
metricRight = "=d*.4";
name = Thin;
shapes = (
{
closed = 1;
nodes = (
(112,0,l),
(112,276,l),
(114,276,l),
(458,0,l),
(490,0,l),
(127,290,l),
(485,520,l),
(448,520,l),
(114,305,l),
(112,305,l),
(112,730,l),
(90,730,l),
(90,0,l)
);
}
);
width = 508;
}
);
metricLeft = "=h";
metricRight = "=d*.2";
},
{
color = 4;
export = 0;
glyphname = k.002;
kernLeft = b;
kernRight = x;
lastChange = "2026-04-02 07:49:22 +0000";
layers = (
{
anchors = (
{
name = bottom;
pos = (260,0);
},
{
name = top;
pos = (260,730);
}
);
background = {
shapes = (
{
closed = 1;
nodes = (
(178,730,l),
(70,730,l),
(70,0,l),
(178,0,l)
);
},
{
closed = 1;
nodes = (
(228,274,l),
(438,0,l),
(560,0,l),
(302,336,l)
);
},
{
closed = 1;
nodes = (
(128,159,l),
(560,520,l),
(420,520,l),
(128,276,l)
);
}
);
};
layerId = "9527F797-22C1-480E-A1FE-2CDBEBE1FD4C";
metricRight = "=d*.3";
shapes = (
{
closed = 1;
nodes = (
(178,0,l),
(178,201,l),
(243,255,l),
(243,255,l),
(438,0,l),
(560,0,l),
(317,317,l),
(560,520,l),
(420,520,l),
(180,319,l),
(178,319,l),
(178,730,l),
(70,730,l),
(70,0,l)
);
}
);
width = 569;
},
{
anchors = (
{
name = bottom;
pos = (291,0);
},
{
name = top;
pos = (291,730);
}
);
background = {
shapes = (
{
closed = 1;
nodes = (
(365,209,l),
(620,520,l),
(384,520,l),
(187,280,l),
(187,112,l),
(365,329,l)
);
},
{
closed = 1;
nodes = (
(256,730,l),
(60,730,l),
(60,0,l),
(256,0,l)
);
},
{
closed = 1;
nodes = (
(198,362,l),
(404,0,l),
(620,0,l),
(396,362,l)
);
}
);
};
layerId = "9E6B41AB-2970-4C41-8B35-4DBE0D296A43";
metricRight = "=d*.2";
shapes = (
{
closed = 1;
nodes = (
(256,0,l),
(256,196,l),
(276,221,l),
(278,221,l),
(404,0,l),
(620,0,l),
(437,296,l),
(620,520,l),
(384,520,l),
(258,366,l),
(256,366,l),
(256,730,l),
(60,730,l),
(60,0,l)
);
}
);
width = 625;
},
{
anchors = (
{
name = bottom;
pos = (240,0);
},
{
name = top;
pos = (240,730);
}
);
background = {
shapes = (
{
closed = 1;
nodes = (
(110,730,l),
(90,730,l),
(90,0,l),
(110,0,l)
);
},
{
closed = 1;
nodes = (
(100,232,l),
(510,520,l),
(476,520,l),
(100,256,l)
);
},
{
closed = 1;
nodes = (
(202,308,l),
(483,0,l),
(510,0,l),
(218,320,l)
);
}
);
};
layerId = "D65C9A1E-0FCA-4B2D-8EDF-9F36CA9182A1";
metricRight = "=d*.4";
name = Thin;
shapes = (
{
closed = 1;
nodes = (
(110,0,l),
(110,239,l),
(204,305,l),
(204,305,l),
(483,0,l),
(510,0,l),
(221,317,l),
(510,520,l),
(476,520,l),
(112,264,l),
(110,264,l),
(110,730,l),
(90,730,l),
(90,0,l)
);
}
);
width = 528;
}
);
metricLeft = "=h";
metricRight = "=d*.2";
},
{
color = 4;
export = 0;
glyphname = k.003;
kernLeft = b;
kernRight = x;
lastChange = "2026-04-02 07:49:22 +0000";
layers = (
{
anchors = (
{
name = bottom;
pos = (278,0);
},
{
name = top;
pos = (278,730);
}
);
background = {
shapes = (
{
closed = 1;
nodes = (
(178,730,l),
(70,730,l),
(70,0,l),
(178,0,l)
);
},
{
closed = 1;
nodes = (
(220,262,l),
(437,0,l),
(560,0,l),
(292,323,l)
);
},
{
closed = 1;
nodes = (
(128,127,l),
(560,520,l),
(425,520,l),
(128,266,l)
);
}
);
};
layerId = "9527F797-22C1-480E-A1FE-2CDBEBE1FD4C";
metricRight = "=d*.3";
shapes = (
{
closed = 1;
nodes = (
(178,0,l),
(178,182,l),
(239,239,l),
(239,239,l),
(437,0,l),
(560,0,l),
(314,296,l),
(560,520,l),
(425,520,l),
(180,310,l),
(178,310,l),
(178,730,l),
(70,730,l),
(70,0,l)
);
}
);
width = 569;
},
{
anchors = (
{
name = bottom;
pos = (291,0);
},
{
name = top;
pos = (291,730);
}
);
background = {
shapes = (
{
closed = 1;
nodes = (
(365,209,l),
(620,520,l),
(384,520,l),
(187,280,l),
(187,112,l),
(365,329,l)
);
},
{
closed = 1;
nodes = (
(256,730,l),
(60,730,l),
(60,0,l),
(256,0,l)
);
},
{
closed = 1;
nodes = (
(198,362,l),
(404,0,l),
(620,0,l),
(396,362,l)
);
}
);
};
layerId = "9E6B41AB-2970-4C41-8B35-4DBE0D296A43";
metricRight = "=d*.2";
shapes = (
{
closed = 1;
nodes = (
(256,0,l),
(256,196,l),
(276,221,l),
(278,221,l),
(404,0,l),
(620,0,l),
(437,296,l),
(620,520,l),
(384,520,l),
(258,366,l),
(256,366,l),
(256,730,l),
(60,730,l),
(60,0,l)
);
}
);
width = 625;
},
{
anchors = (
{
name = bottom;
pos = (258,0);
},
{
name = top;
pos = (258,730);
}
);
background = {
shapes = (
{
closed = 1;
nodes = (
(110,730,l),
(90,730,l),
(90,0,l),
(110,0,l)
);
},
{
closed = 1;
nodes = (
(100,222,l),
(510,520,l),
(476,520,l),
(100,247,l)
);
},
{
closed = 1;
nodes = (
(182,288,l),
(481,0,l),
(510,0,l),
(198,300,l)
);
}
);
};
layerId = "D65C9A1E-0FCA-4B2D-8EDF-9F36CA9182A1";
metricRight = "=d*.4";
name = Thin;
shapes = (
{
closed = 1;
nodes = (
(110,0,l),
(110,229,l),
(186,284,l),
(186,284,l),
(481,0,l),
(510,0,l),
(202,296,l),
(510,520,l),
(476,520,l),
(112,255,l),
(110,255,l),
(110,730,l),
(90,730,l),
(90,0,l)
);
}
);
width = 528;
}
);
metricLeft = "=h";
metricRight = "=d*.2";
},
{
color = 4;
export = 0;
glyphname = r.001;
kernLeft = n;
kernRight = r;
lastChange = "2026-04-07 08:42:46 +0000";
layers = (
{
anchors = (
{
name = bottom;
pos = (188,0);
},
{
name = top;
pos = (277,520);
}
);
background = {
anchors = (
{
name = bottom;
pos = (141,0);
},
{
name = top;
pos = (247,520);
}
);
shapes = (
{
closed = 1;
nodes = (
(151,0,l),
(151,280,ls),
(151,408,o),
(262,510,o),
(401,510,c),
(401,530,l),
(290,530,o),
(191,466,o),
(153,370,c),
(151,370,l),
(151,520,l),
(131,520,l),
(131,0,l)
);
}
);
};
layerId = "D65C9A1E-0FCA-4B2D-8EDF-9F36CA9182A1";
metricRight = "=|*.2";
shapes = (
{
closed = 1;
nodes = (
(287,0,l),
(278,290,ls),
(277,338,o),
(329,380,o),
(391,380,cs),
(410,380,o),
(432,377,o),
(450,372,c),
(391,450,l),
(391,290,l),
(571,290,l),
(571,480,l),
(533,515,o),
(494,530,o),
(442,530,cs),
(376,530,o),
(320,506,o),
(269,455,c),
(267,455,l),
(258,487,o),
(247,513,o),
(233,536,c),
(41,460,l),
(77,399,o),
(91,332,o),
(91,220,cs),
(91,0,l)
);
}
);
width = 579;
},
{
anchors = (
{
name = bottom;
pos = (173,0);
},
{
name = top;
pos = (262,520);
}
);
background = {
anchors = (
{
name = bottom;
pos = (146,0);
},
{
name = top;
pos = (251,520);
}
);
shapes = (
{
closed = 1;
nodes = (
(204,0,l),
(204,250,ls),
(204,353,o),
(307,435,o),
(435,435,c),
(435,530,l),
(338,530,o),
(251,489,o),
(202,420,c),
(200,420,l),
(199,520,l),
(95,520,l),
(95,0,l)
);
}
);
};
layerId = "9527F797-22C1-480E-A1FE-2CDBEBE1FD4C";
metricRight = "=|*.25";
shapes = (
{
closed = 1;
nodes = (
(272,0,l),
(263,290,ls),
(262,338,o),
(314,380,o),
(376,380,cs),
(395,380,o),
(417,377,o),
(435,372,c),
(376,450,l),
(376,290,l),
(556,290,l),
(556,480,l),
(518,515,o),
(479,530,o),
(427,530,cs),
(361,530,o),
(305,506,o),
(254,455,c),
(252,455,l),
(243,487,o),
(232,513,o),
(218,536,c),
(26,460,l),
(62,399,o),
(76,332,o),
(76,220,cs),
(76,0,l)
);
}
);
width = 563;
},
{
anchors = (
{
name = bottom;
pos = (68,0);
},
{
name = top;
pos = (184,520);
}
);
associatedMasterId = "D65C9A1E-0FCA-4B2D-8EDF-9F36CA9182A1";
layerId = "657C252B-5EEF-4E2C-9A2A-557819CBA416";
metricRight = "=|*.2";
name = "{232}";
shapes = (
{
closed = 1;
nodes = (
(90,0,l),
(90,270,ls),
(90,390,o),
(198,485,o),
(334,485,c),
(334,530,l),
(228,530,o),
(132,479,o),
(91,402,c),
(89,402,l),
(89,520,l),
(41,520,l),
(41,0,l)
);
}
);
width = 342;
},
{
anchors = (
{
name = bottom;
pos = (169,0);
},
{
name = top;
pos = (258,520);
}
);
layerId = "9E6B41AB-2970-4C41-8B35-4DBE0D296A43";
metricRight = "=|";
shapes = (
{
closed = 1;
nodes = (
(268,0,l),
(259,290,ls),
(258,338,o),
(310,380,o),
(372,380,cs),
(391,380,o),
(413,377,o),
(431,372,c),
(372,450,l),
(372,290,l),
(552,290,l),
(552,480,l),
(514,515,o),
(475,530,o),
(423,530,cs),
(357,530,o),
(301,506,o),
(250,455,c),
(248,455,l),
(239,487,o),
(228,513,o),
(214,536,c),
(22,460,l),
(58,399,o),
(72,332,o),
(72,220,cs),
(72,0,l)
);
}
);
width = 574;
}
);
metricLeft = "=n";
metricRight = "=|*.3";
},
{
color = 4;
export = 0;
glyphname = r.002;
kernLeft = n;
kernRight = f;
lastChange = "2026-04-02 07:50:01 +0000";
layers = (
{
anchors = (
{
name = bottom;
pos = (183,0);
},
{
name = top;
pos = (272,520);
}
);
layerId = "D65C9A1E-0FCA-4B2D-8EDF-9F36CA9182A1";
shapes = (
{
closed = 1;
nodes = (
(115,0,l),
(115,355,ls),
(115,419,o),
(285,510,o),
(435,510,c),
(435,530,l),
(314,530,o),
(170,473,o),
(112,402,c),
(110,402,l),
(103,445,o),
(91,479,o),
(63,530,c),
(45,520,l),
(84,452,o),
(95,408,o),
(95,321,cs),
(95,0,l)
);
}
);
width = 453;
},
{
anchors = (
{
name = bottom;
pos = (171,0);
},
{
name = top;
pos = (260,520);
}
);
background = {
anchors = (
{
name = bottom;
pos = (172,0);
},
{
name = top;
pos = (261,520);
}
);
};
layerId = "9527F797-22C1-480E-A1FE-2CDBEBE1FD4C";
shapes = (
{
closed = 1;
nodes = (
(188,0,l),
(187,324,ls),
(187,372,o),
(344,432,o),
(469,432,c),
(469,530,l),
(365,530,o),
(229,483,o),
(176,429,c),
(174,429,l),
(164,474,o),
(153,503,o),
(134,534,c),
(29,492,l),
(67,423,o),
(79,370,o),
(79,271,cs),
(79,0,l)
);
}
);
width = 483;
},
{
anchors = (
{
name = bottom;
pos = (174,0);
},
{
name = top;
pos = (263,520);
}
);
associatedMasterId = "D65C9A1E-0FCA-4B2D-8EDF-9F36CA9182A1";
attr = {
coordinates = (
232
);
};
layerId = "657C252B-5EEF-4E2C-9A2A-557819CBA416";
metricRight = "=|*.2";
name = "{232}";
shapes = (
{
closed = 1;
nodes = (
(134,0,l),
(134,345,ls),
(134,406,o),
(306,484,o),
(441,484,c),
(441,530,l),
(325,530,o),
(183,479,o),
(127,417,c),
(125,417,l),
(118,454,o),
(103,493,o),
(81,531,c),
(35,510,l),
(74,441,o),
(85,396,o),
(85,305,cs),
(85,0,l)
);
}
);
width = 448;
},
{
anchors = (
{
name = bottom;
pos = (171,0);
},
{
name = top;
pos = (260,520);
}
);
layerId = "9E6B41AB-2970-4C41-8B35-4DBE0D296A43";
shapes = (
{
closed = 1;
nodes = (
(272,0,l),
(270,304,ls),
(270,337,o),
(399,374,o),
(514,374,c),
(514,530,l),
(427,530,o),
(301,494,o),
(252,455,c),
(250,455,l),
(241,487,o),
(230,513,o),
(216,536,c),
(24,460,l),
(60,399,o),
(74,332,o),
(74,220,cs),
(74,0,l)
);
}
);
width = 525;
}
);
metricLeft = "=|d";
metricRight = "=f*.8";
},
